<?xml version="1.0" standalone="no"?>
 <!DOCTYPE svg PUBLIC "-//W3C//DTD SVG 1.1//EN" 
 "http://www.w3.org/Graphics/SVG/1.1/DTD/svg11.dtd"> 
<svg xmlns="http://www.w3.org/2000/svg" version="1.1" 
    width="5.36956cm" height="3.0607cm" viewBox="0 0 21140 12050 ">
<title>SVG Picture created as battery-monitor-F.Cu.svg date 2017/06/01 19:58:08 </title>
  <desc>Picture generated by PCBNEW </desc>
<g style="fill:#000000; fill-opacity:1;stroke:#000000; stroke-opacity:1;
stroke-linecap:round; stroke-linejoin:round; "
 transform="translate(0 0) scale(1 1)">
</g>
<g style="fill:#000000; fill-opacity:0.0; 
stroke:#000000; stroke-width:-0.000393701; stroke-opacity:1; 
stroke-linecap:round; stroke-linejoin:round;">
</g>
<g style="fill:#000000; fill-opacity:0.0; 
stroke:#000000; stroke-width:59.0551; stroke-opacity:1; 
stroke-linecap:round; stroke-linejoin:round;">
<path d="M29 12029
L29 29
" />
<path d="M21029 12029
L29 12029
" />
<path d="M21029 29
L21029 12029
" />
<path d="M29 29
L21029 29
" />
</g>
<g style="fill:#000000; fill-opacity:0.0; 
stroke:#000000; stroke-width:0; stroke-opacity:1; 
stroke-linecap:round; stroke-linejoin:round;">
</g>
<g style="fill:#000000; fill-opacity:1.0; 
stroke:#000000; stroke-width:0; stroke-opacity:1; 
stroke-linecap:round; stroke-linejoin:round;">
<polyline style="fill-rule:evenodd;"
points="13054,6679
13504,6679
13504,6879
13054,6879
13054,6679
" /> 
<polyline style="fill-rule:evenodd;"
points="13054,7179
13504,7179
13504,7379
13054,7379
13054,7179
" /> 
<polyline style="fill-rule:evenodd;"
points="13054,7679
13504,7679
13504,7879
13054,7879
13054,7679
" /> 
<polyline style="fill-rule:evenodd;"
points="13054,8179
13504,8179
13504,8379
13054,8379
13054,8179
" /> 
<polyline style="fill-rule:evenodd;"
points="10554,8179
11004,8179
11004,8379
10554,8379
10554,8179
" /> 
<polyline style="fill-rule:evenodd;"
points="10554,7679
11004,7679
11004,7879
10554,7879
10554,7679
" /> 
<polyline style="fill-rule:evenodd;"
points="10554,7179
11004,7179
11004,7379
10554,7379
10554,7179
" /> 
<polyline style="fill-rule:evenodd;"
points="10554,6679
11004,6679
11004,6879
10554,6879
10554,6679
" /> 
<polyline style="fill-rule:evenodd;"
points="13054,3179
13504,3179
13504,3379
13054,3379
13054,3179
" /> 
<polyline style="fill-rule:evenodd;"
points="13054,3679
13504,3679
13504,3879
13054,3879
13054,3679
" /> 
<polyline style="fill-rule:evenodd;"
points="13054,4179
13504,4179
13504,4379
13054,4379
13054,4179
" /> 
<polyline style="fill-rule:evenodd;"
points="13054,4679
13504,4679
13504,4879
13054,4879
13054,4679
" /> 
<polyline style="fill-rule:evenodd;"
points="10554,4679
11004,4679
11004,4879
10554,4879
10554,4679
" /> 
<polyline style="fill-rule:evenodd;"
points="10554,4179
11004,4179
11004,4379
10554,4379
10554,4179
" /> 
<polyline style="fill-rule:evenodd;"
points="10554,3679
11004,3679
11004,3879
10554,3879
10554,3679
" /> 
<polyline style="fill-rule:evenodd;"
points="10554,3179
11004,3179
11004,3379
10554,3379
10554,3179
" /> 
<circle cx="15029.5" cy="7529.53" r="275.591" /> 
</g>
<g style="fill:#000000; fill-opacity:1.0; 
stroke:#000000; stroke-width:196.85; stroke-opacity:1; 
stroke-linecap:round; stroke-linejoin:round;">
</g>
<g style="fill:#000000; fill-opacity:1.0; 
stroke:#000000; stroke-width:0; stroke-opacity:1; 
stroke-linecap:round; stroke-linejoin:round;">
<circle cx="16013.8" cy="7529.53" r="275.591" /> 
</g>
<g style="fill:#000000; fill-opacity:1.0; 
stroke:#000000; stroke-width:196.85; stroke-opacity:1; 
stroke-linecap:round; stroke-linejoin:round;">
</g>
<g style="fill:#000000; fill-opacity:1.0; 
stroke:#000000; stroke-width:0; stroke-opacity:1; 
stroke-linecap:round; stroke-linejoin:round;">
<circle cx="15029.5" cy="4029.53" r="275.591" /> 
</g>
<g style="fill:#000000; fill-opacity:1.0; 
stroke:#000000; stroke-width:196.85; stroke-opacity:1; 
stroke-linecap:round; stroke-linejoin:round;">
</g>
<g style="fill:#000000; fill-opacity:1.0; 
stroke:#000000; stroke-width:0; stroke-opacity:1; 
stroke-linecap:round; stroke-linejoin:round;">
<circle cx="16013.8" cy="4029.53" r="275.591" /> 
</g>
<g style="fill:#000000; fill-opacity:1.0; 
stroke:#000000; stroke-width:196.85; stroke-opacity:1; 
stroke-linecap:round; stroke-linejoin:round;">
</g>
<g style="fill:#000000; fill-opacity:1.0; 
stroke:#000000; stroke-width:0; stroke-opacity:1; 
stroke-linecap:round; stroke-linejoin:round;">
<circle cx="19029.5" cy="3907.48" r="472.441" /> 
</g>
<g style="fill:#000000; fill-opacity:1.0; 
stroke:#000000; stroke-width:196.85; stroke-opacity:1; 
stroke-linecap:round; stroke-linejoin:round;">
</g>
<g style="fill:#000000; fill-opacity:1.0; 
stroke:#000000; stroke-width:0; stroke-opacity:1; 
stroke-linecap:round; stroke-linejoin:round;">
<polyline style="fill-rule:evenodd;"
points="18557,2057
19501,2057
19501,3001
18557,3001
18557,2057
" /> 
<circle cx="19029.5" cy="5285.43" r="472.441" /> 
</g>
<g style="fill:#000000; fill-opacity:1.0; 
stroke:#000000; stroke-width:196.85; stroke-opacity:1; 
stroke-linecap:round; stroke-linejoin:round;">
</g>
<g style="fill:#000000; fill-opacity:1.0; 
stroke:#000000; stroke-width:0; stroke-opacity:1; 
stroke-linecap:round; stroke-linejoin:round;">
<circle cx="19029.5" cy="6663.39" r="472.441" /> 
</g>
<g style="fill:#000000; fill-opacity:1.0; 
stroke:#000000; stroke-width:196.85; stroke-opacity:1; 
stroke-linecap:round; stroke-linejoin:round;">
</g>
<g style="fill:#000000; fill-opacity:1.0; 
stroke:#000000; stroke-width:0; stroke-opacity:1; 
stroke-linecap:round; stroke-linejoin:round;">
<circle cx="19029.5" cy="8041.34" r="472.441" /> 
</g>
<g style="fill:#000000; fill-opacity:1.0; 
stroke:#000000; stroke-width:196.85; stroke-opacity:1; 
stroke-linecap:round; stroke-linejoin:round;">
</g>
<g style="fill:#000000; fill-opacity:1.0; 
stroke:#000000; stroke-width:0; stroke-opacity:1; 
stroke-linecap:round; stroke-linejoin:round;">
<circle cx="19029.5" cy="9419.29" r="472.441" /> 
</g>
<g style="fill:#000000; fill-opacity:1.0; 
stroke:#000000; stroke-width:196.85; stroke-opacity:1; 
stroke-linecap:round; stroke-linejoin:round;">
</g>
<g style="fill:#000000; fill-opacity:1.0; 
stroke:#000000; stroke-width:0; stroke-opacity:1; 
stroke-linecap:round; stroke-linejoin:round;">
<circle cx="6029.53" cy="8029.53" r="314.961" /> 
</g>
<g style="fill:#000000; fill-opacity:1.0; 
stroke:#000000; stroke-width:196.85; stroke-opacity:1; 
stroke-linecap:round; stroke-linejoin:round;">
</g>
<g style="fill:#000000; fill-opacity:1.0; 
stroke:#000000; stroke-width:629.921; stroke-opacity:1; 
stroke-linecap:round; stroke-linejoin:round;">
</g>
<g style="fill:#000000; fill-opacity:0.0; 
stroke:#000000; stroke-width:629.921; stroke-opacity:1; 
stroke-linecap:round; stroke-linejoin:round;">
<path d="M9029 8029
L9029 8029
" />
</g>
<g style="fill:#000000; fill-opacity:1.0; 
stroke:#000000; stroke-width:0; stroke-opacity:1; 
stroke-linecap:round; stroke-linejoin:round;">
<circle cx="6029.53" cy="6529.53" r="314.961" /> 
</g>
<g style="fill:#000000; fill-opacity:1.0; 
stroke:#000000; stroke-width:196.85; stroke-opacity:1; 
stroke-linecap:round; stroke-linejoin:round;">
</g>
<g style="fill:#000000; fill-opacity:1.0; 
stroke:#000000; stroke-width:629.921; stroke-opacity:1; 
stroke-linecap:round; stroke-linejoin:round;">
</g>
<g style="fill:#000000; fill-opacity:0.0; 
stroke:#000000; stroke-width:629.921; stroke-opacity:1; 
stroke-linecap:round; stroke-linejoin:round;">
<path d="M9029 6529
L9029 6529
" />
</g>
<g style="fill:#000000; fill-opacity:1.0; 
stroke:#000000; stroke-width:0; stroke-opacity:1; 
stroke-linecap:round; stroke-linejoin:round;">
<circle cx="6029.53" cy="5029.53" r="314.961" /> 
</g>
<g style="fill:#000000; fill-opacity:1.0; 
stroke:#000000; stroke-width:196.85; stroke-opacity:1; 
stroke-linecap:round; stroke-linejoin:round;">
</g>
<g style="fill:#000000; fill-opacity:1.0; 
stroke:#000000; stroke-width:629.921; stroke-opacity:1; 
stroke-linecap:round; stroke-linejoin:round;">
</g>
<g style="fill:#000000; fill-opacity:0.0; 
stroke:#000000; stroke-width:629.921; stroke-opacity:1; 
stroke-linecap:round; stroke-linejoin:round;">
<path d="M9029 5029
L9029 5029
" />
</g>
<g style="fill:#000000; fill-opacity:1.0; 
stroke:#000000; stroke-width:0; stroke-opacity:1; 
stroke-linecap:round; stroke-linejoin:round;">
<circle cx="6029.53" cy="3529.53" r="314.961" /> 
</g>
<g style="fill:#000000; fill-opacity:1.0; 
stroke:#000000; stroke-width:196.85; stroke-opacity:1; 
stroke-linecap:round; stroke-linejoin:round;">
</g>
<g style="fill:#000000; fill-opacity:1.0; 
stroke:#000000; stroke-width:629.921; stroke-opacity:1; 
stroke-linecap:round; stroke-linejoin:round;">
</g>
<g style="fill:#000000; fill-opacity:0.0; 
stroke:#000000; stroke-width:629.921; stroke-opacity:1; 
stroke-linecap:round; stroke-linejoin:round;">
<path d="M9029 3529
L9029 3529
" />
</g>
<g style="fill:#000000; fill-opacity:1.0; 
stroke:#000000; stroke-width:0; stroke-opacity:1; 
stroke-linecap:round; stroke-linejoin:round;">
<circle cx="3029.53" cy="7907.48" r="472.441" /> 
</g>
<g style="fill:#000000; fill-opacity:1.0; 
stroke:#000000; stroke-width:196.85; stroke-opacity:1; 
stroke-linecap:round; stroke-linejoin:round;">
</g>
<g style="fill:#000000; fill-opacity:1.0; 
stroke:#000000; stroke-width:0; stroke-opacity:1; 
stroke-linecap:round; stroke-linejoin:round;">
<polyline style="fill-rule:evenodd;"
points="2557,6057
3501,6057
3501,7001
2557,7001
2557,6057
" /> 
<circle cx="3029.53" cy="4907.48" r="472.441" /> 
</g>
<g style="fill:#000000; fill-opacity:1.0; 
stroke:#000000; stroke-width:196.85; stroke-opacity:1; 
stroke-linecap:round; stroke-linejoin:round;">
</g>
<g style="fill:#000000; fill-opacity:1.0; 
stroke:#000000; stroke-width:0; stroke-opacity:1; 
stroke-linecap:round; stroke-linejoin:round;">
<polyline style="fill-rule:evenodd;"
points="2557,3057
3501,3057
3501,4001
2557,4001
2557,3057
" /> 
</g>
<g style="fill:#000000; fill-opacity:1.0; 
stroke:#000000; stroke-width:98.4252; stroke-opacity:1; 
stroke-linecap:round; stroke-linejoin:round;">
</g>
<g style="fill:#000000; fill-opacity:0.0; 
stroke:#000000; stroke-width:98.4252; stroke-opacity:1; 
stroke-linecap:round; stroke-linejoin:round;">
<path d="M13279 6779
L13632 6779
" />
<path d="M13832 6580
L13632 6779
" />
<path d="M18294 6580
L13832 6580
" />
<path d="M18294 6799
L18294 6580
" />
<path d="M18910 7415
L18294 6799
" />
<path d="M19253 7415
L18910 7415
" />
<path d="M19643 7805
L19253 7415
" />
<path d="M19643 8805
L19643 7805
" />
<path d="M19029 9419
L19643 8805
" />
<path d="M16563 3279
L13279 3279
" />
<path d="M17880 4596
L16563 3279
" />
<path d="M19218 4596
L17880 4596
" />
<path d="M19645 5023
L19218 4596
" />
<path d="M19645 5544
L19645 5023
" />
<path d="M19215 5974
L19645 5544
" />
<path d="M18853 5974
L19215 5974
" />
<path d="M18294 6534
L18853 5974
" />
<path d="M18294 6580
L18294 6534
" />
<path d="M13909 7279
L13279 7279
" />
<path d="M14431 6757
L13909 7279
" />
<path d="M17745 6757
L14431 6757
" />
<path d="M19029 8041
L17745 6757
" />
<path d="M13279 7779
L13632 7779
" />
<path d="M15600 7116
L16013 7529
" />
<path d="M14638 7116
L15600 7116
" />
<path d="M13975 7779
L14638 7116
" />
<path d="M13632 7779
L13975 7779
" />
<path d="M2960 5928
L3505 5383
" />
<path d="M2495 5928
L2960 5928
" />
<path d="M2428 5995
L2495 5928
" />
<path d="M2428 7306
L2428 5995
" />
<path d="M3029 7907
L2428 7306
" />
<path d="M3505 5383
L3029 4907
" />
<path d="M14279 8279
L13279 8279
" />
<path d="M15029 7529
L14279 8279
" />
<path d="M11132 7779
L11132 8279
" />
<path d="M10779 7779
L11132 7779
" />
<path d="M10956 8279
L11132 8279
" />
<path d="M11132 8279
L13279 8279
" />
<path d="M10867 8279
L10956 8279
" />
<path d="M10867 8279
L10779 8279
" />
<path d="M10779 8279
L10426 8279
" />
<path d="M9873 8832
L10426 8279
" />
<path d="M3954 8832
L9873 8832
" />
<path d="M3029 7907
L3954 8832
" />
<path d="M15263 4779
L13279 4779
" />
<path d="M16013 4029
L15263 4779
" />
<path d="M13279 4779
L12926 4779
" />
<path d="M4651 6529
L3505 5383
" />
<path d="M6029 6529
L4651 6529
" />
<path d="M7083 4583
L7083 5476
" />
<path d="M6029 3529
L7083 4583
" />
<path d="M6029 6529
L7083 5476
" />
<path d="M9729 5476
L10426 4779
" />
<path d="M7083 5476
L9729 5476
" />
<path d="M10779 4779
L10427 4779
" />
<path d="M10427 4779
L10426 4779
" />
<path d="M10426 4778
L10426 4279
" />
<path d="M10427 4779
L10426 4778
" />
<path d="M10779 4279
L10426 4279
" />
<path d="M10779 4279
L11132 4279
" />
<path d="M12595 4279
L11132 4279
" />
<path d="M12595 3454
L12595 4279
" />
<path d="M13521 2529
L12595 3454
" />
<path d="M19029 2529
L13521 2529
" />
<path d="M12595 4448
L12926 4779
" />
<path d="M12595 4279
L12595 4448
" />
<path d="M3029 6529
L3630 6529
" />
<path d="M5130 8029
L6029 8029
" />
<path d="M3630 6529
L5130 8029
" />
<path d="M10426 7509
L10426 7279
" />
<path d="M9281 8655
L10426 7509
" />
<path d="M6655 8655
L9281 8655
" />
<path d="M6029 8029
L6655 8655
" />
<path d="M10779 7279
L10602 7279
" />
<path d="M10602 7279
L10426 7279
" />
<path d="M10779 7102
L10779 6779
" />
<path d="M10602 7279
L10779 7102
" />
<path d="M13279 3779
L13632 3779
" />
<path d="M13802 3609
L13632 3779
" />
<path d="M16182 3609
L13802 3609
" />
<path d="M16431 3858
L16182 3609
" />
<path d="M16431 4199
L16431 3858
" />
<path d="M15522 5108
L16431 4199
" />
<path d="M10599 5108
L15522 5108
" />
<path d="M10042 5664
L10599 5108
" />
<path d="M9236 5664
L10042 5664
" />
<path d="M8573 6327
L9236 5664
" />
<path d="M8573 8234
L8573 6327
" />
<path d="M8817 8477
L8573 8234
" />
<path d="M9207 8477
L8817 8477
" />
<path d="M9950 7735
L9207 8477
" />
<path d="M9950 7102
L9950 7735
" />
<path d="M10501 6551
L9950 7102
" />
<path d="M11536 6551
L10501 6551
" />
<path d="M12492 7507
L11536 6551
" />
<path d="M13986 7507
L12492 7507
" />
<path d="M14559 6934
L13986 7507
" />
<path d="M15999 6934
L14559 6934
" />
<path d="M16818 7753
L15999 6934
" />
<path d="M16818 8057
L16818 7753
" />
<path d="M18799 10038
L16818 8057
" />
<path d="M19259 10038
L18799 10038
" />
<path d="M19823 9474
L19259 10038
" />
<path d="M19823 7457
L19823 9474
" />
<path d="M19029 6663
L19823 7457
" />
<path d="M13882 4029
L13632 4279
" />
<path d="M15029 4029
L13882 4029
" />
<path d="M13279 4279
L13632 4279
" />
<path d="M10779 3279
L10602 3279
" />
<path d="M10779 3779
L10426 3779
" />
<path d="M4529 3529
L4779 3779
" />
<path d="M3029 3529
L4529 3529
" />
<path d="M4779 3779
L6029 5029
" />
<path d="M10042 3072
L10426 3456
" />
<path d="M5486 3072
L10042 3072
" />
<path d="M4779 3779
L5486 3072
" />
<path d="M10602 3279
L10426 3456
" />
<path d="M10426 3456
L10426 3779
" />
<path d="M9029 5029
L9029 4586
" />
<path d="M9029 3529
L9029 4029
" />
<path d="M9029 4029
L9029 4586
" />
<path d="M19630 3306
L19029 3907
" />
<path d="M19630 1998
L19630 3306
" />
<path d="M19560 1928
L19630 1998
" />
<path d="M13153 1928
L19560 1928
" />
<path d="M11052 4029
L13153 1928
" />
<path d="M9029 4029
L11052 4029
" />
<path d="M9029 8029
L9029 6529
" />
<path d="M9029 6529
L9472 6529
" />
<path d="M10716 5285
L19029 5285
" />
<path d="M9472 6529
L10716 5285
" />
</g>
<g style="fill:#FFFFFF; fill-opacity:0.0; 
stroke:#FFFFFF; stroke-width:98.4252; stroke-opacity:1; 
stroke-linecap:round; stroke-linejoin:round;">
</g>
<g style="fill:#FFFFFF; fill-opacity:1.0; 
stroke:#FFFFFF; stroke-width:0; stroke-opacity:1; 
stroke-linecap:round; stroke-linejoin:round;">
<circle cx="15029.5" cy="7529.53" r="137.795" /> 
</g>
<g style="fill:#FFFFFF; fill-opacity:1.0; 
stroke:#FFFFFF; stroke-width:196.85; stroke-opacity:1; 
stroke-linecap:round; stroke-linejoin:round;">
</g>
<g style="fill:#FFFFFF; fill-opacity:1.0; 
stroke:#FFFFFF; stroke-width:0; stroke-opacity:1; 
stroke-linecap:round; stroke-linejoin:round;">
<circle cx="16013.8" cy="7529.53" r="137.795" /> 
</g>
<g style="fill:#FFFFFF; fill-opacity:1.0; 
stroke:#FFFFFF; stroke-width:196.85; stroke-opacity:1; 
stroke-linecap:round; stroke-linejoin:round;">
</g>
<g style="fill:#FFFFFF; fill-opacity:1.0; 
stroke:#FFFFFF; stroke-width:0; stroke-opacity:1; 
stroke-linecap:round; stroke-linejoin:round;">
<circle cx="15029.5" cy="4029.53" r="137.795" /> 
</g>
<g style="fill:#FFFFFF; fill-opacity:1.0; 
stroke:#FFFFFF; stroke-width:196.85; stroke-opacity:1; 
stroke-linecap:round; stroke-linejoin:round;">
</g>
<g style="fill:#FFFFFF; fill-opacity:1.0; 
stroke:#FFFFFF; stroke-width:0; stroke-opacity:1; 
stroke-linecap:round; stroke-linejoin:round;">
<circle cx="16013.8" cy="4029.53" r="137.795" /> 
</g>
<g style="fill:#FFFFFF; fill-opacity:1.0; 
stroke:#FFFFFF; stroke-width:196.85; stroke-opacity:1; 
stroke-linecap:round; stroke-linejoin:round;">
</g>
<g style="fill:#FFFFFF; fill-opacity:1.0; 
stroke:#FFFFFF; stroke-width:0; stroke-opacity:1; 
stroke-linecap:round; stroke-linejoin:round;">
<circle cx="19029.5" cy="3907.48" r="236.22" /> 
</g>
<g style="fill:#FFFFFF; fill-opacity:1.0; 
stroke:#FFFFFF; stroke-width:196.85; stroke-opacity:1; 
stroke-linecap:round; stroke-linejoin:round;">
</g>
<g style="fill:#FFFFFF; fill-opacity:1.0; 
stroke:#FFFFFF; stroke-width:0; stroke-opacity:1; 
stroke-linecap:round; stroke-linejoin:round;">
<circle cx="19029.5" cy="2529.53" r="236.22" /> 
</g>
<g style="fill:#FFFFFF; fill-opacity:1.0; 
stroke:#FFFFFF; stroke-width:196.85; stroke-opacity:1; 
stroke-linecap:round; stroke-linejoin:round;">
</g>
<g style="fill:#FFFFFF; fill-opacity:1.0; 
stroke:#FFFFFF; stroke-width:0; stroke-opacity:1; 
stroke-linecap:round; stroke-linejoin:round;">
<circle cx="19029.5" cy="5285.43" r="236.22" /> 
</g>
<g style="fill:#FFFFFF; fill-opacity:1.0; 
stroke:#FFFFFF; stroke-width:196.85; stroke-opacity:1; 
stroke-linecap:round; stroke-linejoin:round;">
</g>
<g style="fill:#FFFFFF; fill-opacity:1.0; 
stroke:#FFFFFF; stroke-width:0; stroke-opacity:1; 
stroke-linecap:round; stroke-linejoin:round;">
<circle cx="19029.5" cy="6663.39" r="236.22" /> 
</g>
<g style="fill:#FFFFFF; fill-opacity:1.0; 
stroke:#FFFFFF; stroke-width:196.85; stroke-opacity:1; 
stroke-linecap:round; stroke-linejoin:round;">
</g>
<g style="fill:#FFFFFF; fill-opacity:1.0; 
stroke:#FFFFFF; stroke-width:0; stroke-opacity:1; 
stroke-linecap:round; stroke-linejoin:round;">
<circle cx="19029.5" cy="8041.34" r="236.22" /> 
</g>
<g style="fill:#FFFFFF; fill-opacity:1.0; 
stroke:#FFFFFF; stroke-width:196.85; stroke-opacity:1; 
stroke-linecap:round; stroke-linejoin:round;">
</g>
<g style="fill:#FFFFFF; fill-opacity:1.0; 
stroke:#FFFFFF; stroke-width:0; stroke-opacity:1; 
stroke-linecap:round; stroke-linejoin:round;">
<circle cx="19029.5" cy="9419.29" r="236.22" /> 
</g>
<g style="fill:#FFFFFF; fill-opacity:1.0; 
stroke:#FFFFFF; stroke-width:196.85; stroke-opacity:1; 
stroke-linecap:round; stroke-linejoin:round;">
</g>
<g style="fill:#FFFFFF; fill-opacity:1.0; 
stroke:#FFFFFF; stroke-width:0; stroke-opacity:1; 
stroke-linecap:round; stroke-linejoin:round;">
<circle cx="6029.53" cy="8029.53" r="157.48" /> 
</g>
<g style="fill:#FFFFFF; fill-opacity:1.0; 
stroke:#FFFFFF; stroke-width:196.85; stroke-opacity:1; 
stroke-linecap:round; stroke-linejoin:round;">
</g>
<g style="fill:#FFFFFF; fill-opacity:1.0; 
stroke:#FFFFFF; stroke-width:0; stroke-opacity:1; 
stroke-linecap:round; stroke-linejoin:round;">
<circle cx="9029.53" cy="8029.53" r="157.48" /> 
</g>
<g style="fill:#FFFFFF; fill-opacity:1.0; 
stroke:#FFFFFF; stroke-width:196.85; stroke-opacity:1; 
stroke-linecap:round; stroke-linejoin:round;">
</g>
<g style="fill:#FFFFFF; fill-opacity:1.0; 
stroke:#FFFFFF; stroke-width:0; stroke-opacity:1; 
stroke-linecap:round; stroke-linejoin:round;">
<circle cx="6029.53" cy="6529.53" r="157.48" /> 
</g>
<g style="fill:#FFFFFF; fill-opacity:1.0; 
stroke:#FFFFFF; stroke-width:196.85; stroke-opacity:1; 
stroke-linecap:round; stroke-linejoin:round;">
</g>
<g style="fill:#FFFFFF; fill-opacity:1.0; 
stroke:#FFFFFF; stroke-width:0; stroke-opacity:1; 
stroke-linecap:round; stroke-linejoin:round;">
<circle cx="9029.53" cy="6529.53" r="157.48" /> 
</g>
<g style="fill:#FFFFFF; fill-opacity:1.0; 
stroke:#FFFFFF; stroke-width:196.85; stroke-opacity:1; 
stroke-linecap:round; stroke-linejoin:round;">
</g>
<g style="fill:#FFFFFF; fill-opacity:1.0; 
stroke:#FFFFFF; stroke-width:0; stroke-opacity:1; 
stroke-linecap:round; stroke-linejoin:round;">
<circle cx="6029.53" cy="5029.53" r="157.48" /> 
</g>
<g style="fill:#FFFFFF; fill-opacity:1.0; 
stroke:#FFFFFF; stroke-width:196.85; stroke-opacity:1; 
stroke-linecap:round; stroke-linejoin:round;">
</g>
<g style="fill:#FFFFFF; fill-opacity:1.0; 
stroke:#FFFFFF; stroke-width:0; stroke-opacity:1; 
stroke-linecap:round; stroke-linejoin:round;">
<circle cx="9029.53" cy="5029.53" r="157.48" /> 
</g>
<g style="fill:#FFFFFF; fill-opacity:1.0; 
stroke:#FFFFFF; stroke-width:196.85; stroke-opacity:1; 
stroke-linecap:round; stroke-linejoin:round;">
</g>
<g style="fill:#FFFFFF; fill-opacity:1.0; 
stroke:#FFFFFF; stroke-width:0; stroke-opacity:1; 
stroke-linecap:round; stroke-linejoin:round;">
<circle cx="6029.53" cy="3529.53" r="157.48" /> 
</g>
<g style="fill:#FFFFFF; fill-opacity:1.0; 
stroke:#FFFFFF; stroke-width:196.85; stroke-opacity:1; 
stroke-linecap:round; stroke-linejoin:round;">
</g>
<g style="fill:#FFFFFF; fill-opacity:1.0; 
stroke:#FFFFFF; stroke-width:0; stroke-opacity:1; 
stroke-linecap:round; stroke-linejoin:round;">
<circle cx="9029.53" cy="3529.53" r="157.48" /> 
</g>
<g style="fill:#FFFFFF; fill-opacity:1.0; 
stroke:#FFFFFF; stroke-width:196.85; stroke-opacity:1; 
stroke-linecap:round; stroke-linejoin:round;">
</g>
<g style="fill:#FFFFFF; fill-opacity:1.0; 
stroke:#FFFFFF; stroke-width:0; stroke-opacity:1; 
stroke-linecap:round; stroke-linejoin:round;">
<circle cx="3029.53" cy="7907.48" r="236.22" /> 
</g>
<g style="fill:#FFFFFF; fill-opacity:1.0; 
stroke:#FFFFFF; stroke-width:196.85; stroke-opacity:1; 
stroke-linecap:round; stroke-linejoin:round;">
</g>
<g style="fill:#FFFFFF; fill-opacity:1.0; 
stroke:#FFFFFF; stroke-width:0; stroke-opacity:1; 
stroke-linecap:round; stroke-linejoin:round;">
<circle cx="3029.53" cy="6529.53" r="236.22" /> 
</g>
<g style="fill:#FFFFFF; fill-opacity:1.0; 
stroke:#FFFFFF; stroke-width:196.85; stroke-opacity:1; 
stroke-linecap:round; stroke-linejoin:round;">
</g>
<g style="fill:#FFFFFF; fill-opacity:1.0; 
stroke:#FFFFFF; stroke-width:0; stroke-opacity:1; 
stroke-linecap:round; stroke-linejoin:round;">
<circle cx="3029.53" cy="4907.48" r="236.22" /> 
</g>
<g style="fill:#FFFFFF; fill-opacity:1.0; 
stroke:#FFFFFF; stroke-width:196.85; stroke-opacity:1; 
stroke-linecap:round; stroke-linejoin:round;">
</g>
<g style="fill:#FFFFFF; fill-opacity:1.0; 
stroke:#FFFFFF; stroke-width:0; stroke-opacity:1; 
stroke-linecap:round; stroke-linejoin:round;">
<circle cx="3029.53" cy="3529.53" r="236.22" /> 
</g>
<g style="fill:#FFFFFF; fill-opacity:1.0; 
stroke:#FFFFFF; stroke-width:196.85; stroke-opacity:1; 
stroke-linecap:round; stroke-linejoin:round;">
</g>
<g style="fill:#000000; fill-opacity:1.0; 
stroke:#000000; stroke-width:196.85; stroke-opacity:1; 
stroke-linecap:round; stroke-linejoin:round;">
</g> 
</svg>
