<?xml version="1.0" standalone="no"?>
 <!DOCTYPE svg PUBLIC "-//W3C//DTD SVG 1.1//EN" 
 "http://www.w3.org/Graphics/SVG/1.1/DTD/svg11.dtd"> 
<svg xmlns="http://www.w3.org/2000/svg" version="1.1" 
    width="5.36956cm" height="3.0607cm" viewBox="0 0 21140 12050 ">
<title>SVG Picture created as battery-monitor-F.SilkS.svg date 2017/06/01 19:58:08 </title>
  <desc>Picture generated by PCBNEW </desc>
<g style="fill:#000000; fill-opacity:1;stroke:#000000; stroke-opacity:1;
stroke-linecap:round; stroke-linejoin:round; "
 transform="translate(0 0) scale(1 1)">
</g>
<g style="fill:#000000; fill-opacity:0.0; 
stroke:#000000; stroke-width:-0.000393701; stroke-opacity:1; 
stroke-linecap:round; stroke-linejoin:round;">
</g>
<g style="fill:#000000; fill-opacity:0.0; 
stroke:#000000; stroke-width:59.0551; stroke-opacity:1; 
stroke-linecap:round; stroke-linejoin:round;">
<path d="M29 12029
L29 29
" />
<path d="M21029 12029
L29 12029
" />
<path d="M21029 29
L21029 12029
" />
<path d="M29 29
L21029 29
" />
<path d="M12313 7829
L12632 7829
L12670 7810
L12688 7791
L12707 7754
L12707 7679
L12688 7642
L12670 7623
L12632 7604
L12313 7604
" />
<path d="M12707 7210
L12707 7435
" />
<path d="M12707 7323
L12313 7323
L12370 7360
L12407 7398
L12426 7435
" />
<path d="M12313 4329
L12632 4329
L12670 4310
L12688 4291
L12707 4254
L12707 4179
L12688 4142
L12670 4123
L12632 4104
L12313 4104
" />
<path d="M12351 3935
L12332 3917
L12313 3879
L12313 3785
L12332 3748
L12351 3729
L12388 3710
L12426 3710
L12482 3729
L12707 3954
L12707 3710
" />
<path d="M15456 6504
L15437 6523
L15381 6542
L15343 6542
L15287 6523
L15249 6486
L15231 6448
L15212 6373
L15212 6317
L15231 6242
L15249 6204
L15287 6167
L15343 6148
L15381 6148
L15437 6167
L15456 6186
" />
<path d="M15830 6542
L15606 6542
" />
<path d="M15718 6542
L15718 6148
L15681 6204
L15643 6242
L15606 6261
" />
<path d="M15456 3004
L15437 3023
L15381 3042
L15343 3042
L15287 3023
L15249 2986
L15231 2948
L15212 2873
L15212 2817
L15231 2742
L15249 2704
L15287 2667
L15343 2648
L15381 2648
L15437 2667
L15456 2686
" />
<path d="M15606 2686
L15624 2667
L15662 2648
L15756 2648
L15793 2667
L15812 2686
L15830 2723
L15830 2761
L15812 2817
L15587 3042
L15830 3042
" />
<path d="M20506 6105
L20788 6105
L20844 6124
L20881 6161
L20900 6218
L20900 6255
" />
<path d="M20506 5955
L20506 5711
L20656 5843
L20656 5786
L20675 5749
L20694 5730
L20731 5711
L20825 5711
L20863 5730
L20881 5749
L20900 5786
L20900 5899
L20881 5936
L20863 5955
" />
<path d="M7463 7298
L7332 7110
" />
<path d="M7238 7298
L7238 6904
L7388 6904
L7426 6923
L7445 6941
L7463 6979
L7463 7035
L7445 7073
L7426 7091
L7388 7110
L7238 7110
" />
<path d="M7838 7298
L7613 7298
" />
<path d="M7726 7298
L7726 6904
L7688 6960
L7651 6998
L7613 7016
" />
<path d="M7463 5798
L7332 5610
" />
<path d="M7238 5798
L7238 5404
L7388 5404
L7426 5423
L7445 5441
L7463 5479
L7463 5535
L7445 5573
L7426 5591
L7388 5610
L7238 5610
" />
<path d="M7613 5441
L7632 5423
L7670 5404
L7763 5404
L7801 5423
L7820 5441
L7838 5479
L7838 5516
L7820 5573
L7595 5798
L7838 5798
" />
<path d="M7463 4298
L7332 4110
" />
<path d="M7238 4298
L7238 3904
L7388 3904
L7426 3923
L7445 3941
L7463 3979
L7463 4035
L7445 4073
L7426 4091
L7388 4110
L7238 4110
" />
<path d="M7595 3904
L7838 3904
L7707 4054
L7763 4054
L7801 4073
L7820 4091
L7838 4129
L7838 4223
L7820 4260
L7801 4279
L7763 4298
L7651 4298
L7613 4279
L7595 4260
" />
<path d="M7463 2798
L7332 2610
" />
<path d="M7238 2798
L7238 2404
L7388 2404
L7426 2423
L7445 2441
L7463 2479
L7463 2535
L7445 2573
L7426 2591
L7388 2610
L7238 2610
" />
<path d="M7801 2535
L7801 2798
" />
<path d="M7707 2385
L7613 2666
L7857 2666
" />
<path d="M4506 7349
L4788 7349
L4844 7368
L4881 7405
L4900 7462
L4900 7499
" />
<path d="M4900 6956
L4900 7181
" />
<path d="M4900 7068
L4506 7068
L4563 7106
L4600 7143
L4619 7181
" />
<path d="M4506 4349
L4788 4349
L4844 4368
L4881 4405
L4900 4462
L4900 4499
" />
<path d="M4544 4181
L4525 4162
L4506 4124
L4506 4031
L4525 3993
L4544 3974
L4581 3956
L4619 3956
L4675 3974
L4900 4199
L4900 3956
" />
<path d="M12929 6529
L12929 8529
" />
<path d="M12929 8529
L11129 8529
" />
<path d="M11129 8529
L11129 6529
" />
<path d="M11129 6529
L12929 6529
" />
<path d="M12329 6529
L12329 6729
" />
<path d="M12329 6729
L11829 6729
" />
<path d="M11829 6729
L11829 6529
" />
<path d="M12929 3029
L12929 5029
" />
<path d="M12929 5029
L11129 5029
" />
<path d="M11129 5029
L11129 3029
" />
<path d="M11129 3029
L12929 3029
" />
<path d="M12329 3029
L12329 3229
" />
<path d="M12329 3229
L11829 3229
" />
<path d="M11829 3229
L11829 3029
" />
</g>
<g style="fill:#000000; fill-opacity:0.0; 
stroke:#000000; stroke-width:47.2441; stroke-opacity:1; 
stroke-linecap:round; stroke-linejoin:round;">
<path d="M14592 6757
L16450 6757
" />
<path d="M14592 8301
L16450 8301
" />
<path d="M14592 6757
L14592 8301
" />
<path d="M16450 6757
L16450 8301
" />
<path d="M14592 3257
L16450 3257
" />
<path d="M14592 4801
L16450 4801
" />
<path d="M14592 3257
L14592 4801
" />
<path d="M16450 3257
L16450 4801
" />
</g>
<g style="fill:#000000; fill-opacity:0.0; 
stroke:#000000; stroke-width:59.0551; stroke-opacity:1; 
stroke-linecap:round; stroke-linejoin:round;">
<path d="M17415 8730
L17257 8730
" />
<path d="M17415 7352
L17257 7352
" />
<path d="M17415 3218
L17257 3218
" />
<path d="M17415 4596
L17257 4596
" />
<path d="M17415 5974
L17257 5974
" />
<path d="M17848 1840
L17848 10108
" />
<path d="M17415 1840
L17415 10108
" />
<path d="M20250 1840
L17257 1840
" />
<path d="M17257 10108
L20250 10108
" />
<path d="M20250 10108
L20250 1840
" />
</g>
<g style="fill:#000000; fill-opacity:0.0; 
stroke:#000000; stroke-width:47.2441; stroke-opacity:1; 
stroke-linecap:round; stroke-linejoin:round;">
<path d="M6265 7643
L6265 7513
" />
<path d="M6265 7513
L8793 7513
" />
<path d="M8793 7513
L8793 7643
" />
<path d="M6265 8415
L6265 8545
" />
<path d="M6265 8545
L8793 8545
" />
<path d="M8793 8545
L8793 8415
" />
<path d="M6265 6143
L6265 6013
" />
<path d="M6265 6013
L8793 6013
" />
<path d="M8793 6013
L8793 6143
" />
<path d="M6265 6915
L6265 7045
" />
<path d="M6265 7045
L8793 7045
" />
<path d="M8793 7045
L8793 6915
" />
<path d="M6265 4643
L6265 4513
" />
<path d="M6265 4513
L8793 4513
" />
<path d="M8793 4513
L8793 4643
" />
<path d="M6265 5415
L6265 5545
" />
<path d="M6265 5545
L8793 5545
" />
<path d="M8793 5545
L8793 5415
" />
<path d="M6265 3143
L6265 3013
" />
<path d="M6265 3013
L8793 3013
" />
<path d="M8793 3013
L8793 3143
" />
<path d="M6265 3915
L6265 4045
" />
<path d="M6265 4045
L8793 4045
" />
<path d="M8793 4045
L8793 3915
" />
</g>
<g style="fill:#000000; fill-opacity:0.0; 
stroke:#000000; stroke-width:59.0551; stroke-opacity:1; 
stroke-linecap:round; stroke-linejoin:round;">
<path d="M1415 7218
L1257 7218
" />
<path d="M1848 5840
L1848 8596
" />
<path d="M1415 5840
L1415 8596
" />
<path d="M4250 5840
L1257 5840
" />
<path d="M1257 8596
L4250 8596
" />
<path d="M4250 8596
L4250 5840
" />
<path d="M1415 4218
L1257 4218
" />
<path d="M1848 2840
L1848 5596
" />
<path d="M1415 2840
L1415 5596
" />
<path d="M4250 2840
L1257 2840
" />
<path d="M1257 5596
L4250 5596
" />
<path d="M4250 5596
L4250 2840
" />
</g> 
</svg>
