M48
METRIC,TZ
T1C0.500
T2C0.700
T3C0.800
T4C1.200
T5C1.500
%
G90
G05
T1
X173990Y-129540
X176530Y-129540
T2
X124460Y-138430
X126960Y-138430
X132120Y-138430
X134620Y-116840
X134620Y-121920
X134620Y-138430
X137120Y-116840
X137120Y-121920
X139700Y-138430
X142200Y-138430
X146050Y-138430
X148550Y-138430
T3
X142240Y-115570
X142240Y-119380
X142240Y-123190
X142240Y-127000
X142240Y-132080
X149860Y-115570
X149860Y-119380
X149860Y-123190
X149860Y-127000
X149860Y-132080
X158750Y-110490
X158750Y-113030
X158750Y-115570
X158750Y-118110
X158750Y-120650
X158750Y-123190
X158750Y-125730
X158750Y-128270
X158750Y-130810
X158750Y-133350
X158750Y-135890
X158750Y-138430
X158750Y-140970
X158750Y-143510
X166370Y-110490
X166370Y-113030
X166370Y-115570
X166370Y-118110
X166370Y-120650
X166370Y-123190
X166370Y-125730
X166370Y-128270
X166370Y-130810
X166370Y-133350
X166370Y-135890
X166370Y-138430
X166370Y-140970
X166370Y-143510
T4
X113340Y-118110
X115570Y-127000
X115570Y-130500
X115570Y-134620
X115570Y-138120
X116840Y-118110
X176530Y-110800
X176530Y-114300
X176530Y-119690
X176530Y-123190
T5
X125730Y-130810
X131180Y-130810
X136630Y-130810
T0
M30
