<?xml version="1.0" standalone="no"?>
<!DOCTYPE svg PUBLIC "-//W3C//DTD SVG 1.1//EN"
"http://www.w3.org/Graphics/SVG/1.1/DTD/svg11.dtd">
<svg width="5733.98" height="3133.98" viewBox="0 0 5733.98 3133.98" version="1.1"
xmlns="http://www.w3.org/2000/svg"
xmlns:xlink="http://www.w3.org/1999/xlink">
<circle cx="5065" cy="1766" r="19" style=""/>
<circle cx="5265" cy="1766" r="19" style=""/>
<circle cx="1167" cy="2466" r="27" style=""/>
<circle cx="1363" cy="2466" r="27" style=""/>
<circle cx="1769" cy="2466" r="27" style=""/>
<circle cx="1966" cy="2466" r="27" style=""/>
<circle cx="2366" cy="2466" r="27" style=""/>
<circle cx="2563" cy="2466" r="27" style=""/>
<circle cx="2866" cy="2466" r="27" style=""/>
<circle cx="3063" cy="2466" r="27" style=""/>
<circle cx="2163" cy="1166" r="27" style=""/>
<circle cx="1966" cy="1166" r="27" style=""/>
<circle cx="1966" cy="766" r="27" style=""/>
<circle cx="2163" cy="766" r="27" style=""/>
<circle cx="2566" cy="1966" r="31" style=""/>
<circle cx="2566" cy="1566" r="31" style=""/>
<circle cx="2566" cy="1266" r="31" style=""/>
<circle cx="2566" cy="966" r="31" style=""/>
<circle cx="2566" cy="666" r="31" style=""/>
<circle cx="3166" cy="666" r="31" style=""/>
<circle cx="3166" cy="966" r="31" style=""/>
<circle cx="3166" cy="1266" r="31" style=""/>
<circle cx="3166" cy="1566" r="31" style=""/>
<circle cx="3166" cy="1966" r="31" style=""/>
<circle cx="3866" cy="2066" r="31" style=""/>
<circle cx="3866" cy="2266" r="31" style=""/>
<circle cx="3866" cy="2466" r="31" style=""/>
<circle cx="3866" cy="2666" r="31" style=""/>
<circle cx="3866" cy="2866" r="31" style=""/>
<circle cx="4465" cy="2866" r="31" style=""/>
<circle cx="4465" cy="2666" r="31" style=""/>
<circle cx="4465" cy="2466" r="31" style=""/>
<circle cx="4465" cy="2266" r="31" style=""/>
<circle cx="4465" cy="2066" r="31" style=""/>
<circle cx="4465" cy="1866" r="31" style=""/>
<circle cx="4465" cy="1666" r="31" style=""/>
<circle cx="4465" cy="1466" r="31" style=""/>
<circle cx="4465" cy="1266" r="31" style=""/>
<circle cx="4465" cy="1066" r="31" style=""/>
<circle cx="4465" cy="866" r="31" style=""/>
<circle cx="4465" cy="666" r="31" style=""/>
<circle cx="4465" cy="466" r="31" style=""/>
<circle cx="4465" cy="266" r="31" style=""/>
<circle cx="3866" cy="266" r="31" style=""/>
<circle cx="3866" cy="466" r="31" style=""/>
<circle cx="3866" cy="666" r="31" style=""/>
<circle cx="3866" cy="866" r="31" style=""/>
<circle cx="3866" cy="1066" r="31" style=""/>
<circle cx="3866" cy="1266" r="31" style=""/>
<circle cx="3866" cy="1466" r="31" style=""/>
<circle cx="3866" cy="1666" r="31" style=""/>
<circle cx="3866" cy="1866" r="31" style=""/>
<circle cx="467" cy="2441" r="47" style=""/>
<circle cx="467" cy="2166" r="47" style=""/>
<circle cx="467" cy="1842" r="47" style=""/>
<circle cx="467" cy="1566" r="47" style=""/>
<circle cx="567" cy="866" r="47" style=""/>
<circle cx="291" cy="866" r="47" style=""/>
<circle cx="5265" cy="991" r="47" style=""/>
<circle cx="5265" cy="1266" r="47" style=""/>
<circle cx="5265" cy="566" r="47" style=""/>
<circle cx="5265" cy="291" r="47" style=""/>
<circle cx="1267" cy="1866" r="59" style=""/>
<circle cx="1696" cy="1866" r="59" style=""/>
<circle cx="2125" cy="1866" r="59" style=""/>
</svg>
