<?xml version="1.0" standalone="no"?>
<!DOCTYPE svg PUBLIC "-//W3C//DTD SVG 1.1//EN"
"http://www.w3.org/Graphics/SVG/1.1/DTD/svg11.dtd">
<svg width="5718" height="3118" viewBox="0 0 5718 3118" version="1.1"
xmlns="http://www.w3.org/2000/svg"
xmlns:xlink="http://www.w3.org/1999/xlink">
<g fill-rule="evenodd"><path d="M 5658,0 L 5670,1 L 5681,4 L 5691,9 L 5700,17 L 5708,26 L 5713,36 L 5716,47 L 5717,59 L 5717,3058 L 5716,3070 L 5713,3081 L 5708,3091 L 5700,3100 L 5691,3108 L 5681,3113 L 5670,3116 L 5658,3118 L 59,3118 L 47,3116 L 36,3113 L 26,3108 L 17,3100 L 9,3091 L 4,3081 L 1,3070 L 0,3058 L 0,59 L 1,47 L 4,36 L 9,26 L 17,17 L 26,9 L 36,4 L 47,1 L 59,0 L 5658,0 z " style="fill-opacity:1.000000;fill:rgb(103,198,105);stroke:rgb(0,0,0);stroke-width:2"/></g>
</svg>
