<?xml version="1.0" standalone="no"?>
<!DOCTYPE svg PUBLIC "-//W3C//DTD SVG 1.1//EN"
"http://www.w3.org/Graphics/SVG/1.1/DTD/svg11.dtd">
<svg width="5600" height="3000" viewBox="0 0 5600 3000" version="1.1"
xmlns="http://www.w3.org/2000/svg"
xmlns:xlink="http://www.w3.org/1999/xlink">
<g fill-rule="evenodd"><path d="M 4400,2862 L 4387,2861 L 4375,2857 L 4364,2851 L 4354,2843 L 4346,2833 L 4340,2821 L 4337,2809 L 4337,2796 L 4339,2784 L 4343,2772 L 4350,2761 L 4358,2752 L 4369,2744 L 4381,2739 L 4393,2737 L 4400,2737 L 4412,2738 L 4424,2742 L 4435,2748 L 4445,2756 L 4453,2766 L 4459,2778 L 4462,2790 L 4462,2803 L 4460,2815 L 4456,2827 L 4449,2838 L 4441,2847 L 4430,2855 L 4418,2860 L 4406,2862 L 4400,2862 z " style="fill-opacity:1.000000;fill:rgb(103,198,105);stroke:rgb(0,0,0);stroke-width:2"/></g>
<g fill-rule="evenodd"><path d="M 3800,462 L 3787,461 L 3775,457 L 3764,451 L 3754,443 L 3746,433 L 3740,421 L 3737,409 L 3737,396 L 3739,384 L 3743,372 L 3750,361 L 3758,352 L 3769,344 L 3781,339 L 3793,337 L 3800,337 L 3812,338 L 3824,342 L 3835,348 L 3845,356 L 3853,366 L 3859,378 L 3862,390 L 3862,403 L 3860,415 L 3856,427 L 3849,438 L 3841,447 L 3830,455 L 3818,460 L 3806,462 L 3800,462 z " style="fill-opacity:1.000000;fill:rgb(115,81,255);stroke:rgb(0,0,0);stroke-width:2"/></g>
<g fill-rule="evenodd"><path d="M 4400,2662 L 4387,2661 L 4375,2657 L 4364,2651 L 4354,2643 L 4346,2633 L 4340,2621 L 4337,2609 L 4337,2596 L 4339,2584 L 4343,2572 L 4350,2561 L 4358,2552 L 4369,2544 L 4381,2539 L 4393,2537 L 4400,2537 L 4412,2538 L 4424,2542 L 4435,2548 L 4445,2556 L 4453,2566 L 4459,2578 L 4462,2590 L 4462,2603 L 4460,2615 L 4456,2627 L 4449,2638 L 4441,2647 L 4430,2655 L 4418,2660 L 4406,2662 L 4400,2662 z " style="fill-opacity:1.000000;fill:rgb(74,236,41);stroke:rgb(0,0,0);stroke-width:2"/></g>
<g fill-rule="evenodd"><path d="M 3800,662 L 3787,661 L 3775,657 L 3764,651 L 3754,643 L 3746,633 L 3740,621 L 3737,609 L 3737,596 L 3739,584 L 3743,572 L 3750,561 L 3758,552 L 3769,544 L 3781,539 L 3793,537 L 3800,537 L 3812,538 L 3824,542 L 3835,548 L 3845,556 L 3853,566 L 3859,578 L 3862,590 L 3862,603 L 3860,615 L 3856,627 L 3849,638 L 3841,647 L 3830,655 L 3818,660 L 3806,662 L 3800,662 z " style="fill-opacity:1.000000;fill:rgb(205,186,171);stroke:rgb(0,0,0);stroke-width:2"/></g>
<g fill-rule="evenodd"><path d="M 4400,2462 L 4387,2461 L 4375,2457 L 4364,2451 L 4354,2443 L 4346,2433 L 4340,2421 L 4337,2409 L 4337,2396 L 4339,2384 L 4343,2372 L 4350,2361 L 4358,2352 L 4369,2344 L 4381,2339 L 4393,2337 L 4400,2337 L 4412,2338 L 4424,2342 L 4435,2348 L 4445,2356 L 4453,2366 L 4459,2378 L 4462,2390 L 4462,2403 L 4460,2415 L 4456,2427 L 4449,2438 L 4441,2447 L 4430,2455 L 4418,2460 L 4406,2462 L 4400,2462 z " style="fill-opacity:1.000000;fill:rgb(242,251,227);stroke:rgb(0,0,0);stroke-width:2"/></g>
<g fill-rule="evenodd"><path d="M 3800,862 L 3787,861 L 3775,857 L 3764,851 L 3754,843 L 3746,833 L 3740,821 L 3737,809 L 3737,796 L 3739,784 L 3743,772 L 3750,761 L 3758,752 L 3769,744 L 3781,739 L 3793,737 L 3800,737 L 3812,738 L 3824,742 L 3835,748 L 3845,756 L 3853,766 L 3859,778 L 3862,790 L 3862,803 L 3860,815 L 3856,827 L 3849,838 L 3841,847 L 3830,855 L 3818,860 L 3806,862 L 3800,862 z " style="fill-opacity:1.000000;fill:rgb(70,124,194);stroke:rgb(0,0,0);stroke-width:2"/></g>
<g fill-rule="evenodd"><path d="M 4400,2262 L 4387,2261 L 4375,2257 L 4364,2251 L 4354,2243 L 4346,2233 L 4340,2221 L 4337,2209 L 4337,2196 L 4339,2184 L 4343,2172 L 4350,2161 L 4358,2152 L 4369,2144 L 4381,2139 L 4393,2137 L 4400,2137 L 4412,2138 L 4424,2142 L 4435,2148 L 4445,2156 L 4453,2166 L 4459,2178 L 4462,2190 L 4462,2203 L 4460,2215 L 4456,2227 L 4449,2238 L 4441,2247 L 4430,2255 L 4418,2260 L 4406,2262 L 4400,2262 z " style="fill-opacity:1.000000;fill:rgb(84,248,27);stroke:rgb(0,0,0);stroke-width:2"/></g>
<g fill-rule="evenodd"><path d="M 3800,1062 L 3787,1061 L 3775,1057 L 3764,1051 L 3754,1043 L 3746,1033 L 3740,1021 L 3737,1009 L 3737,996 L 3739,984 L 3743,972 L 3750,961 L 3758,952 L 3769,944 L 3781,939 L 3793,937 L 3800,937 L 3812,938 L 3824,942 L 3835,948 L 3845,956 L 3853,966 L 3859,978 L 3862,990 L 3862,1003 L 3860,1015 L 3856,1027 L 3849,1038 L 3841,1047 L 3830,1055 L 3818,1060 L 3806,1062 L 3800,1062 z " style="fill-opacity:1.000000;fill:rgb(232,231,141);stroke:rgb(0,0,0);stroke-width:2"/></g>
<g fill-rule="evenodd"><path d="M 4400,2062 L 4387,2061 L 4375,2057 L 4364,2051 L 4354,2043 L 4346,2033 L 4340,2021 L 4337,2009 L 4337,1996 L 4339,1984 L 4343,1972 L 4350,1961 L 4358,1952 L 4369,1944 L 4381,1939 L 4393,1937 L 4400,1937 L 4412,1938 L 4424,1942 L 4435,1948 L 4445,1956 L 4453,1966 L 4459,1978 L 4462,1990 L 4462,2003 L 4460,2015 L 4456,2027 L 4449,2038 L 4441,2047 L 4430,2055 L 4418,2060 L 4406,2062 L 4400,2062 z " style="fill-opacity:1.000000;fill:rgb(118,90,46);stroke:rgb(0,0,0);stroke-width:2"/></g>
<g fill-rule="evenodd"><path d="M 3800,1262 L 3787,1261 L 3775,1257 L 3764,1251 L 3754,1243 L 3746,1233 L 3740,1221 L 3737,1209 L 3737,1196 L 3739,1184 L 3743,1172 L 3750,1161 L 3758,1152 L 3769,1144 L 3781,1139 L 3793,1137 L 3800,1137 L 3812,1138 L 3824,1142 L 3835,1148 L 3845,1156 L 3853,1166 L 3859,1178 L 3862,1190 L 3862,1203 L 3860,1215 L 3856,1227 L 3849,1238 L 3841,1247 L 3830,1255 L 3818,1260 L 3806,1262 L 3800,1262 z " style="fill-opacity:1.000000;fill:rgb(99,51,159);stroke:rgb(0,0,0);stroke-width:2"/></g>
<g fill-rule="evenodd"><path d="M 3800,2262 L 3787,2261 L 3775,2257 L 3764,2251 L 3754,2243 L 3746,2233 L 3740,2221 L 3737,2209 L 3737,2196 L 3739,2184 L 3743,2172 L 3750,2161 L 3758,2152 L 3769,2144 L 3781,2139 L 3793,2137 L 3800,2137 L 3812,2138 L 3824,2142 L 3835,2148 L 3845,2156 L 3853,2166 L 3859,2178 L 3862,2190 L 3862,2203 L 3860,2215 L 3856,2227 L 3849,2238 L 3841,2247 L 3830,2255 L 3818,2260 L 3806,2262 L 3800,2262 z " style="fill-opacity:1.000000;fill:rgb(201,154,102);stroke:rgb(0,0,0);stroke-width:2"/></g>
<g fill-rule="evenodd"><path d="M 3800,2462 L 3787,2461 L 3775,2457 L 3764,2451 L 3754,2443 L 3746,2433 L 3740,2421 L 3737,2409 L 3737,2396 L 3739,2384 L 3743,2372 L 3750,2361 L 3758,2352 L 3769,2344 L 3781,2339 L 3793,2337 L 3800,2337 L 3812,2338 L 3824,2342 L 3835,2348 L 3845,2356 L 3853,2366 L 3859,2378 L 3862,2390 L 3862,2403 L 3860,2415 L 3856,2427 L 3849,2438 L 3841,2447 L 3830,2455 L 3818,2460 L 3806,2462 L 3800,2462 z " style="fill-opacity:1.000000;fill:rgb(50,13,183);stroke:rgb(0,0,0);stroke-width:2"/></g>
<g fill-rule="evenodd"><path d="M 3800,2662 L 3787,2661 L 3775,2657 L 3764,2651 L 3754,2643 L 3746,2633 L 3740,2621 L 3737,2609 L 3737,2596 L 3739,2584 L 3743,2572 L 3750,2561 L 3758,2552 L 3769,2544 L 3781,2539 L 3793,2537 L 3800,2537 L 3812,2538 L 3824,2542 L 3835,2548 L 3845,2556 L 3853,2566 L 3859,2578 L 3862,2590 L 3862,2603 L 3860,2615 L 3856,2627 L 3849,2638 L 3841,2647 L 3830,2655 L 3818,2660 L 3806,2662 L 3800,2662 z " style="fill-opacity:1.000000;fill:rgb(49,88,163);stroke:rgb(0,0,0);stroke-width:2"/></g>
<g fill-rule="evenodd"><path d="M 3800,2862 L 3787,2861 L 3775,2857 L 3764,2851 L 3754,2843 L 3746,2833 L 3740,2821 L 3737,2809 L 3737,2796 L 3739,2784 L 3743,2772 L 3750,2761 L 3758,2752 L 3769,2744 L 3781,2739 L 3793,2737 L 3800,2737 L 3812,2738 L 3824,2742 L 3835,2748 L 3845,2756 L 3853,2766 L 3859,2778 L 3862,2790 L 3862,2803 L 3860,2815 L 3856,2827 L 3849,2838 L 3841,2847 L 3830,2855 L 3818,2860 L 3806,2862 L 3800,2862 z " style="fill-opacity:1.000000;fill:rgb(90,37,93);stroke:rgb(0,0,0);stroke-width:2"/></g>
<g fill-rule="evenodd"><path d="M 4400,262 L 4387,261 L 4375,257 L 4364,251 L 4354,243 L 4346,233 L 4340,221 L 4337,209 L 4337,196 L 4339,184 L 4343,172 L 4350,161 L 4358,152 L 4369,144 L 4381,139 L 4393,137 L 4400,137 L 4412,138 L 4424,142 L 4435,148 L 4445,156 L 4453,166 L 4459,178 L 4462,190 L 4462,203 L 4460,215 L 4456,227 L 4449,238 L 4441,247 L 4430,255 L 4418,260 L 4406,262 L 4400,262 z " style="fill-opacity:1.000000;fill:rgb(5,23,88);stroke:rgb(0,0,0);stroke-width:2"/></g>
<g fill-rule="evenodd"><path d="M 2550,2390 L 2745,2390 L 2746,2388 L 2749,2377 L 2755,2367 L 2763,2359 L 2772,2352 L 2782,2347 L 2794,2345 L 2805,2345 L 2817,2347 L 2827,2352 L 2836,2359 L 2844,2367 L 2850,2377 L 2853,2388 L 2855,2400 L 2853,2411 L 2850,2422 L 2845,2431 L 2892,2478 L 4501,2478 L 5257,1723 L 5257,1442 L 5224,1409 L 4461,1409 L 4460,1415 L 4456,1427 L 4449,1438 L 4441,1447 L 4430,1455 L 4418,1460 L 4406,1462 L 4400,1462 L 4387,1461 L 4375,1457 L 4364,1451 L 4354,1443 L 4346,1433 L 4340,1421 L 4337,1409 L 4092,1409 L 3895,1606 L 3892,1609 L 3888,1609 L 3861,1609 L 3860,1615 L 3856,1627 L 3849,1638 L 3841,1647 L 3830,1655 L 3818,1660 L 3806,1662 L 3800,1662 L 3787,1661 L 3775,1657 L 3764,1651 L 3754,1643 L 3746,1633 L 3740,1621 L 3737,1609 L 3737,1596 L 3739,1584 L 3743,1572 L 3750,1561 L 3758,1552 L 3769,1544 L 3781,1539 L 3793,1537 L 3800,1537 L 3812,1538 L 3824,1542 L 3835,1548 L 3845,1556 L 3853,1566 L 3859,1578 L 3862,1590 L 3884,1590 L 4081,1393 L 4084,1390 L 4088,1390 L 4338,1390 L 4339,1384 L 4343,1372 L 4350,1361 L 4358,1352 L 4369,1344 L 4381,1339 L 4393,1337 L 4400,1337 L 4412,1338 L 4424,1342 L 4435,1348 L 4445,1356 L 4453,1366 L 4459,1378 L 4462,1390 L 5224,1390 L 5311,1303 L 5311,1049 L 5259,997 L 5247,1006 L 5229,1014 L 5209,1018 L 5190,1018 L 5170,1014 L 5152,1006 L 5136,994 L 5123,979 L 5113,962 L 5107,944 L 5105,924 L 5107,904 L 5113,885 L 5123,868 L 5136,854 L 5152,842 L 5170,834 L 5190,830 L 5209,830 L 5229,834 L 5247,842 L 5259,851 L 5310,800 L 5310,348 L 5259,297 L 5247,306 L 5229,314 L 5209,318 L 5190,318 L 5170,314 L 5152,306 L 5136,294 L 5123,279 L 5113,262 L 5107,244 L 5105,224 L 5107,204 L 5113,185 L 5123,168 L 5136,154 L 5152,142 L 5170,134 L 5190,130 L 5209,130 L 5229,134 L 5247,142 L 5263,154 L 5276,168 L 5286,185 L 5292,204 L 5294,224 L 5292,244 L 5286,262 L 5276,279 L 5273,283 L 5327,337 L 5329,340 L 5329,344 L 5329,804 L 5329,808 L 5327,811 L 5273,865 L 5276,868 L 5286,885 L 5292,904 L 5294,924 L 5292,944 L 5286,962 L 5276,979 L 5273,983 L 5327,1038 L 5329,1039 L 5330,1043 L 5330,1307 L 5329,1311 L 5327,1314 L 5242,1399 L 5273,1431 L 5275,1432 L 5276,1436 L 5276,1727 L 5276,1730 L 5273,1734 L 4512,2495 L 4509,2497 L 4507,2498 L 2888,2498 L 2884,2497 L 2881,2495 L 2831,2445 L 2827,2447 L 2817,2452 L 2805,2454 L 2794,2454 L 2782,2452 L 2772,2447 L 2763,2440 L 2755,2432 L 2749,2422 L 2746,2411 L 2745,2409 L 2550,2409 L 2550,2411 L 2547,2422 L 2541,2432 L 2533,2440 L 2524,2447 L 2513,2452 L 2502,2454 L 2491,2454 L 2479,2452 L 2469,2447 L 2465,2445 L 2386,2524 L 2382,2526 L 2379,2527 L 1818,2527 L 1815,2525 L 1813,2524 L 1734,2445 L 1730,2447 L 1720,2452 L 1708,2454 L 1697,2454 L 1686,2452 L 1675,2447 L 1666,2440 L 1658,2432 L 1652,2422 L 1649,2411 L 1649,2409 L 1350,2409 L 1350,2411 L 1347,2422 L 1341,2432 L 1333,2440 L 1324,2447 L 1313,2452 L 1302,2454 L 1291,2454 L 1279,2452 L 1269,2447 L 1265,2445 L 1221,2489 L 1218,2491 L 1214,2492 L 506,2492 L 503,2491 L 500,2489 L 459,2448 L 447,2457 L 429,2465 L 409,2469 L 390,2469 L 370,2465 L 352,2457 L 336,2445 L 323,2431 L 313,2414 L 307,2395 L 305,2375 L 307,2355 L 313,2337 L 323,2320 L 326,2316 L 272,2262 L 270,2258 L 269,2257 L 269,1894 L 270,1892 L 272,1889 L 326,1834 L 323,1831 L 313,1814 L 307,1795 L 305,1775 L 307,1755 L 313,1737 L 323,1720 L 326,1716 L 217,1606 L 215,1603 L 214,1601 L 214,893 L 195,889 L 177,881 L 161,870 L 147,855 L 138,838 L 131,819 L 129,800 L 131,780 L 138,761 L 147,744 L 161,729 L 177,718 L 195,710 L 214,706 L 234,706 L 253,710 L 271,718 L 283,726 L 337,672 L 340,670 L 344,670 L 1183,670 L 1185,670 L 1188,672 L 1230,715 L 1231,716 L 1233,720 L 1233,913 L 1232,915 L 1230,918 L 1199,949 L 1228,979 L 1229,981 L 1230,985 L 1230,1007 L 1569,1007 L 1569,918 L 1570,914 L 1572,911 L 1591,892 L 1594,890 L 1596,889 L 1702,889 L 1857,734 L 1855,732 L 1849,722 L 1846,711 L 1844,700 L 1846,688 L 1849,677 L 1855,667 L 1863,659 L 1872,652 L 1882,647 L 1894,645 L 1905,645 L 1917,647 L 1927,652 L 1936,659 L 1944,667 L 1950,677 L 1953,688 L 1955,700 L 1953,711 L 1950,722 L 1944,732 L 1936,740 L 1927,747 L 1917,752 L 1905,754 L 1894,754 L 1882,752 L 1872,747 L 1713,906 L 1710,908 L 1706,909 L 1602,909 L 1589,922 L 1589,1040 L 1605,1040 L 1605,1030 L 1695,1030 L 1695,1040 L 1720,1040 L 1724,1040 L 1727,1043 L 1857,1172 L 2010,1172 L 2051,1131 L 2046,1122 L 2042,1111 L 2041,1100 L 2042,1088 L 2046,1077 L 2052,1067 L 2059,1059 L 2069,1052 L 2079,1047 L 2091,1045 L 2102,1045 L 2113,1047 L 2124,1052 L 2133,1059 L 2141,1067 L 2147,1077 L 2150,1088 L 2150,1090 L 2295,1090 L 2449,937 L 2442,925 L 2438,913 L 2437,900 L 2438,886 L 2442,874 L 2449,862 L 2457,853 L 2468,845 L 2480,840 L 2493,837 L 2506,837 L 2519,840 L 2531,845 L 2542,853 L 2550,862 L 2557,874 L 2561,886 L 2562,900 L 2561,913 L 2557,925 L 2550,937 L 2542,946 L 2531,954 L 2519,959 L 2506,962 L 2493,962 L 2480,959 L 2468,954 L 2463,950 L 2363,1049 L 2463,1149 L 2468,1145 L 2480,1140 L 2493,1137 L 2506,1137 L 2519,1140 L 2531,1145 L 2542,1153 L 2550,1162 L 2557,1174 L 2561,1186 L 2562,1200 L 2561,1213 L 2557,1225 L 2550,1237 L 2542,1246 L 2531,1254 L 2519,1259 L 2506,1262 L 2493,1262 L 2480,1259 L 2468,1254 L 2457,1246 L 2449,1237 L 2442,1225 L 2438,1213 L 2437,1200 L 2438,1186 L 2442,1174 L 2449,1162 L 2350,1063 L 2306,1106 L 2303,1109 L 2301,1109 L 2150,1109 L 2150,1111 L 2147,1122 L 2141,1132 L 2133,1140 L 2124,1147 L 2113,1152 L 2102,1154 L 2091,1154 L 2079,1152 L 2069,1147 L 2065,1145 L 2021,1189 L 2018,1191 L 2014,1192 L 1853,1192 L 1849,1191 L 1846,1189 L 1716,1059 L 1695,1059 L 1695,1070 L 1605,1070 L 1605,1059 L 1579,1059 L 1575,1059 L 1572,1056 L 1570,1053 L 1569,1050 L 1569,1027 L 1230,1027 L 1230,1050 L 1229,1053 L 1227,1056 L 1224,1059 L 1220,1059 L 1195,1059 L 1195,1070 L 1105,1070 L 1105,1030 L 1195,1030 L 1195,1040 L 1210,1040 L 1210,989 L 1191,970 L 1105,970 L 1105,930 L 1191,930 L 1213,907 L 1213,726 L 1177,689 L 348,689 L 297,740 L 300,744 L 310,761 L 316,780 L 318,800 L 316,819 L 310,838 L 300,855 L 287,870 L 271,881 L 253,889 L 234,893 L 234,1595 L 340,1702 L 352,1693 L 370,1685 L 390,1681 L 409,1681 L 429,1685 L 447,1693 L 463,1705 L 476,1720 L 486,1737 L 492,1755 L 494,1775 L 492,1795 L 486,1814 L 476,1831 L 463,1845 L 447,1857 L 429,1865 L 409,1869 L 390,1869 L 370,1865 L 352,1857 L 340,1848 L 289,1900 L 289,2251 L 340,2302 L 352,2293 L 370,2285 L 390,2281 L 409,2281 L 429,2285 L 447,2293 L 463,2305 L 476,2320 L 486,2337 L 492,2355 L 494,2375 L 492,2395 L 486,2414 L 476,2431 L 473,2434 L 511,2472 L 1210,2472 L 1251,2431 L 1246,2422 L 1242,2411 L 1241,2400 L 1242,2388 L 1246,2377 L 1252,2367 L 1259,2359 L 1269,2352 L 1279,2347 L 1291,2345 L 1302,2345 L 1313,2347 L 1324,2352 L 1333,2359 L 1341,2367 L 1347,2377 L 1350,2388 L 1350,2390 L 1649,2390 L 1649,2388 L 1652,2377 L 1657,2368 L 1622,2332 L 1620,2329 L 1619,2325 L 1619,1936 L 1604,1934 L 1585,1927 L 1568,1917 L 1554,1903 L 1543,1887 L 1535,1868 L 1531,1849 L 1530,1760 L 1532,1740 L 1538,1721 L 1548,1704 L 1561,1689 L 1577,1677 L 1594,1668 L 1614,1663 L 1634,1662 L 1653,1665 L 1672,1672 L 1689,1682 L 1703,1696 L 1715,1712 L 1723,1731 L 1727,1750 L 1727,1839 L 1725,1859 L 1719,1878 L 1709,1895 L 1696,1910 L 1681,1922 L 1663,1931 L 1644,1936 L 1638,1936 L 1638,2321 L 1671,2354 L 1675,2352 L 1686,2347 L 1697,2345 L 1708,2345 L 1720,2347 L 1730,2352 L 1740,2359 L 1747,2367 L 1753,2377 L 1757,2388 L 1758,2400 L 1757,2411 L 1753,2422 L 1748,2431 L 1824,2507 L 2375,2507 L 2451,2431 L 2446,2422 L 2442,2411 L 2441,2400 L 2442,2388 L 2446,2377 L 2452,2367 L 2459,2359 L 2469,2352 L 2479,2347 L 2491,2345 L 2502,2345 L 2513,2347 L 2524,2352 L 2533,2359 L 2541,2367 L 2547,2377 L 2550,2388 L 2550,2390 z " style="fill-opacity:1.000000;fill:rgb(233,94,212);stroke:rgb(0,0,0);stroke-width:2"/></g>
<g fill-rule="evenodd"><path d="M 390,1594 L 305,1594 L 305,1405 L 390,1405 L 390,1018 L 390,1016 L 393,1013 L 490,916 L 490,894 L 405,894 L 405,705 L 594,705 L 594,850 L 1065,850 L 1073,841 L 1077,840 L 1105,840 L 1105,830 L 1140,830 L 1140,770 L 1105,770 L 1105,730 L 1195,730 L 1195,770 L 1159,770 L 1159,830 L 1195,830 L 1195,870 L 1105,870 L 1105,859 L 1083,859 L 1074,868 L 1073,869 L 1069,869 L 594,869 L 594,894 L 509,894 L 509,920 L 509,923 L 508,925 L 409,1024 L 409,1405 L 494,1405 L 494,1594 L 409,1594 L 409,1610 L 416,1610 L 418,1611 L 421,1613 L 528,1719 L 529,1721 L 529,1725 L 529,1790 L 1101,1790 L 1101,1662 L 1298,1662 L 1298,1790 L 1319,1790 L 1484,1626 L 1487,1623 L 1490,1623 L 2490,1623 L 2490,1561 L 2480,1559 L 2468,1554 L 2457,1546 L 2449,1537 L 2442,1525 L 2438,1513 L 2437,1500 L 2438,1486 L 2442,1474 L 2449,1462 L 2457,1453 L 2468,1445 L 2480,1440 L 2493,1437 L 2506,1437 L 2519,1440 L 2531,1445 L 2542,1453 L 2550,1462 L 2557,1474 L 2561,1486 L 2562,1500 L 2561,1513 L 2557,1525 L 2550,1537 L 2542,1546 L 2531,1554 L 2519,1559 L 2509,1561 L 2509,1838 L 2519,1840 L 2531,1845 L 2542,1853 L 2550,1862 L 2557,1874 L 2561,1886 L 2562,1900 L 2561,1913 L 2557,1925 L 2550,1937 L 2542,1946 L 2531,1954 L 2519,1959 L 2506,1962 L 2493,1962 L 2480,1959 L 2468,1954 L 2457,1946 L 2449,1937 L 2442,1925 L 2438,1913 L 2437,1900 L 2438,1886 L 2442,1874 L 2449,1862 L 2457,1853 L 2468,1845 L 2480,1840 L 2490,1838 L 2490,1642 L 1495,1642 L 1330,1806 L 1327,1809 L 1324,1809 L 1298,1809 L 1298,1937 L 1109,1937 L 1109,2346 L 1117,2347 L 1127,2352 L 1136,2359 L 1144,2367 L 1150,2377 L 1153,2388 L 1155,2400 L 1153,2411 L 1150,2422 L 1144,2432 L 1136,2440 L 1127,2447 L 1117,2452 L 1105,2454 L 1094,2454 L 1082,2452 L 1072,2447 L 1063,2440 L 1055,2432 L 1049,2422 L 1046,2411 L 1044,2400 L 1046,2388 L 1049,2377 L 1055,2367 L 1063,2359 L 1072,2352 L 1082,2347 L 1090,2346 L 1090,1837 L 1090,1836 L 1091,1832 L 1101,1822 L 1101,1809 L 529,1809 L 529,1859 L 529,1863 L 528,1865 L 409,1983 L 409,2005 L 494,2005 L 494,2194 L 305,2194 L 305,2005 L 390,2005 L 390,1979 L 390,1977 L 391,1974 L 510,1855 L 510,1729 L 410,1629 L 398,1629 L 396,1629 L 393,1627 L 390,1623 L 390,1620 L 390,1594 z " style="fill-opacity:1.000000;fill:rgb(171,178,205);stroke:rgb(0,0,0);stroke-width:2"/></g>
<g fill-rule="evenodd"><path d="M 1945,2368 L 1950,2377 L 1953,2388 L 1955,2400 L 1953,2411 L 1950,2422 L 1944,2432 L 1936,2440 L 1927,2447 L 1917,2452 L 1905,2454 L 1894,2454 L 1882,2452 L 1872,2447 L 1863,2440 L 1855,2432 L 1849,2422 L 1846,2411 L 1844,2400 L 1846,2388 L 1849,2377 L 1855,2367 L 1863,2359 L 1872,2352 L 1882,2347 L 1894,2345 L 1905,2345 L 1917,2347 L 1927,2352 L 1931,2354 L 2174,2112 L 2177,2109 L 2179,2109 L 3388,2109 L 3704,1793 L 3707,1790 L 3711,1790 L 3738,1790 L 3739,1784 L 3743,1772 L 3750,1761 L 3758,1752 L 3769,1744 L 3781,1739 L 3793,1737 L 3800,1737 L 3812,1738 L 3824,1742 L 3835,1748 L 3845,1756 L 3853,1766 L 3859,1778 L 3862,1790 L 3888,1790 L 3890,1790 L 3894,1791 L 3981,1878 L 4807,1878 L 4966,1719 L 4964,1716 L 4961,1708 L 4960,1700 L 4961,1691 L 4964,1683 L 4968,1676 L 4973,1670 L 4980,1665 L 4987,1662 L 4995,1660 L 5004,1660 L 5012,1662 L 5019,1665 L 5026,1670 L 5031,1676 L 5035,1683 L 5038,1691 L 5039,1700 L 5038,1708 L 5035,1716 L 5031,1723 L 5026,1729 L 5019,1734 L 5012,1737 L 5004,1739 L 4995,1739 L 4987,1737 L 4980,1733 L 4818,1895 L 4815,1897 L 4811,1898 L 3977,1898 L 3973,1897 L 3970,1895 L 3884,1809 L 3861,1809 L 3860,1815 L 3856,1827 L 3849,1838 L 3841,1847 L 3830,1855 L 3818,1860 L 3806,1862 L 3800,1862 L 3787,1861 L 3775,1857 L 3764,1851 L 3754,1843 L 3746,1833 L 3740,1821 L 3737,1809 L 3715,1809 L 3399,2125 L 3396,2128 L 3394,2128 L 2185,2128 L 1945,2368 z " style="fill-opacity:1.000000;fill:rgb(198,155,180);stroke:rgb(0,0,0);stroke-width:2"/></g>
<g fill-rule="evenodd"><path d="M 2345,2368 L 2350,2377 L 2353,2388 L 2355,2400 L 2353,2411 L 2350,2422 L 2344,2432 L 2336,2440 L 2327,2447 L 2317,2452 L 2305,2454 L 2294,2454 L 2282,2452 L 2272,2447 L 2263,2440 L 2255,2432 L 2249,2422 L 2246,2411 L 2244,2400 L 2246,2388 L 2249,2377 L 2255,2367 L 2263,2359 L 2272,2352 L 2282,2347 L 2294,2345 L 2305,2345 L 2317,2347 L 2327,2352 L 2331,2354 L 2435,2250 L 2438,2248 L 2440,2247 L 3449,2247 L 3704,1993 L 3707,1990 L 3711,1990 L 3738,1990 L 3739,1984 L 3743,1972 L 3750,1961 L 3758,1952 L 3769,1944 L 3781,1939 L 3793,1937 L 3800,1937 L 3812,1938 L 3824,1942 L 3835,1948 L 3845,1956 L 3853,1966 L 3859,1978 L 3862,1990 L 3888,1990 L 3890,1990 L 3894,1991 L 3981,2078 L 4807,2078 L 5166,1719 L 5164,1716 L 5161,1708 L 5160,1700 L 5161,1691 L 5164,1683 L 5168,1676 L 5173,1670 L 5180,1665 L 5187,1662 L 5195,1660 L 5204,1660 L 5212,1662 L 5219,1665 L 5226,1670 L 5231,1676 L 5235,1683 L 5238,1691 L 5239,1700 L 5238,1708 L 5235,1716 L 5231,1723 L 5226,1729 L 5219,1734 L 5212,1737 L 5204,1739 L 5195,1739 L 5187,1737 L 5180,1733 L 4818,2095 L 4815,2097 L 4813,2098 L 3977,2098 L 3973,2097 L 3970,2095 L 3884,2009 L 3861,2009 L 3860,2015 L 3856,2027 L 3849,2038 L 3841,2047 L 3830,2055 L 3818,2060 L 3806,2062 L 3800,2062 L 3787,2061 L 3775,2057 L 3764,2051 L 3754,2043 L 3746,2033 L 3740,2021 L 3737,2009 L 3715,2009 L 3460,2264 L 3457,2266 L 3455,2267 L 2446,2267 L 2345,2368 z " style="fill-opacity:1.000000;fill:rgb(84,17,14);stroke:rgb(0,0,0);stroke-width:2"/></g>
<g fill-rule="evenodd"><path d="M 2068,1936 L 2068,1959 L 2087,1978 L 2582,1978 L 2582,834 L 2427,678 L 2191,678 L 2191,818 L 2190,821 L 2190,823 L 1945,1068 L 1950,1077 L 1953,1088 L 1955,1100 L 1953,1111 L 1950,1122 L 1944,1132 L 1936,1140 L 1927,1147 L 1917,1152 L 1905,1154 L 1894,1154 L 1882,1152 L 1872,1147 L 1863,1140 L 1855,1132 L 1849,1122 L 1846,1111 L 1844,1100 L 1846,1088 L 1849,1077 L 1855,1067 L 1863,1059 L 1872,1052 L 1882,1047 L 1894,1045 L 1905,1045 L 1917,1047 L 1927,1052 L 1931,1054 L 2172,814 L 2172,672 L 2125,626 L 1858,626 L 1726,758 L 1724,759 L 1720,759 L 1695,759 L 1695,770 L 1605,770 L 1605,730 L 1695,730 L 1695,740 L 1716,740 L 1847,609 L 1850,607 L 1852,606 L 2129,606 L 2133,607 L 2136,609 L 2185,659 L 2427,659 L 2449,637 L 2442,625 L 2438,613 L 2437,600 L 2438,586 L 2442,574 L 2449,562 L 2457,553 L 2468,545 L 2480,540 L 2493,537 L 2506,537 L 2519,540 L 2531,545 L 2542,553 L 2550,562 L 2557,574 L 2561,586 L 2562,600 L 2561,613 L 2557,625 L 2550,637 L 2542,646 L 2531,654 L 2519,659 L 2506,662 L 2493,662 L 2480,659 L 2468,654 L 2463,650 L 2445,668 L 2599,823 L 2600,824 L 2601,828 L 2602,1978 L 3429,1978 L 3700,1707 L 3700,1555 L 3701,1551 L 3703,1548 L 3770,1481 L 3774,1479 L 3775,1478 L 3790,1478 L 3790,1461 L 3787,1461 L 3775,1457 L 3764,1451 L 3754,1443 L 3746,1433 L 3740,1421 L 3737,1409 L 3737,1396 L 3739,1384 L 3743,1372 L 3750,1361 L 3758,1352 L 3769,1344 L 3781,1339 L 3793,1337 L 3800,1337 L 3812,1338 L 3824,1342 L 3835,1348 L 3845,1356 L 3853,1366 L 3859,1378 L 3862,1390 L 3862,1403 L 3860,1415 L 3856,1427 L 3849,1438 L 3841,1447 L 3830,1455 L 3818,1460 L 3809,1461 L 3809,1488 L 3809,1492 L 3806,1495 L 3803,1497 L 3801,1498 L 3781,1498 L 3720,1559 L 3720,1701 L 4390,1701 L 4390,1661 L 4387,1661 L 4375,1657 L 4364,1651 L 4354,1643 L 4346,1633 L 4340,1621 L 4337,1609 L 4337,1596 L 4339,1584 L 4343,1572 L 4350,1561 L 4358,1552 L 4369,1544 L 4381,1539 L 4393,1537 L 4400,1537 L 4412,1538 L 4424,1542 L 4435,1548 L 4445,1556 L 4453,1566 L 4459,1578 L 4462,1590 L 4462,1603 L 4460,1615 L 4456,1627 L 4449,1638 L 4441,1647 L 4430,1655 L 4418,1660 L 4409,1661 L 4409,1738 L 4412,1738 L 4424,1742 L 4435,1748 L 4445,1756 L 4453,1766 L 4459,1778 L 4462,1790 L 4462,1803 L 4460,1815 L 4456,1827 L 4449,1838 L 4441,1847 L 4430,1855 L 4418,1860 L 4406,1862 L 4400,1862 L 4387,1861 L 4375,1857 L 4364,1851 L 4354,1843 L 4346,1833 L 4340,1821 L 4337,1809 L 4337,1796 L 4339,1784 L 4343,1772 L 4350,1761 L 4358,1752 L 4369,1744 L 4381,1739 L 4390,1738 L 4390,1721 L 3714,1721 L 3440,1995 L 3437,1997 L 3435,1998 L 2087,1998 L 1826,2259 L 1826,2429 L 1870,2472 L 2329,2472 L 2388,2413 L 2388,2376 L 2388,2374 L 2390,2370 L 2453,2307 L 2456,2305 L 2460,2304 L 2913,2304 L 2914,2305 L 2918,2307 L 2965,2354 L 2969,2352 L 2979,2347 L 2991,2345 L 3002,2345 L 3013,2347 L 3024,2352 L 3033,2359 L 3041,2367 L 3047,2377 L 3050,2388 L 3051,2400 L 3050,2411 L 3047,2422 L 3041,2432 L 3033,2440 L 3024,2447 L 3013,2452 L 3002,2454 L 2991,2454 L 2979,2452 L 2969,2447 L 2959,2440 L 2952,2432 L 2946,2422 L 2942,2411 L 2941,2400 L 2942,2388 L 2946,2377 L 2951,2368 L 2907,2324 L 2464,2324 L 2408,2380 L 2408,2417 L 2407,2421 L 2406,2422 L 2340,2489 L 2337,2491 L 2335,2491 L 1866,2492 L 1862,2491 L 1860,2490 L 1810,2440 L 1807,2436 L 1807,2435 L 1807,2253 L 1807,2251 L 1810,2248 L 2069,1988 L 2051,1970 L 2049,1967 L 2048,1963 L 2048,1936 L 2033,1934 L 2014,1927 L 1998,1917 L 1983,1903 L 1972,1887 L 1964,1868 L 1960,1849 L 1959,1760 L 1961,1740 L 1967,1721 L 1977,1704 L 1990,1689 L 2006,1677 L 2024,1668 L 2043,1663 L 2063,1662 L 2082,1665 L 2101,1672 L 2118,1682 L 2132,1696 L 2144,1712 L 2152,1731 L 2156,1750 L 2156,1839 L 2154,1859 L 2148,1878 L 2139,1895 L 2126,1910 L 2110,1922 L 2092,1931 L 2073,1936 L 2068,1936 z " style="fill-opacity:1.000000;fill:rgb(130,116,65);stroke:rgb(0,0,0);stroke-width:2"/></g>
<g fill-rule="evenodd"><path d="M 2051,731 L 2046,722 L 2042,711 L 2041,700 L 2042,688 L 2046,677 L 2052,667 L 2059,659 L 2069,652 L 2079,647 L 2091,645 L 2102,645 L 2113,647 L 2124,652 L 2133,659 L 2141,667 L 2147,677 L 2150,688 L 2151,700 L 2150,711 L 2147,722 L 2141,732 L 2133,740 L 2124,747 L 2113,752 L 2102,754 L 2091,754 L 2079,752 L 2069,747 L 2065,745 L 1852,958 L 1850,959 L 1846,959 L 1695,959 L 1695,970 L 1605,970 L 1605,930 L 1695,930 L 1695,940 L 1842,940 L 2051,731 z " style="fill-opacity:1.000000;fill:rgb(33,61,220);stroke:rgb(0,0,0);stroke-width:2"/></g>
<g fill-rule="evenodd"><path d="M 1605,840 L 1605,830 L 1695,830 L 1695,870 L 1605,870 L 1605,859 L 1577,859 L 1573,858 L 1571,855 L 1569,851 L 1569,850 L 1569,712 L 1570,711 L 1572,707 L 1779,500 L 1783,498 L 1786,497 L 2541,497 L 2543,498 L 2546,500 L 2748,701 L 4222,701 L 4226,702 L 4229,704 L 4315,790 L 4338,790 L 4339,784 L 4343,772 L 4350,761 L 4358,752 L 4369,744 L 4381,739 L 4393,737 L 4400,737 L 4412,738 L 4424,742 L 4435,748 L 4445,756 L 4453,766 L 4459,778 L 4462,790 L 4462,803 L 4460,815 L 4456,827 L 4449,838 L 4441,847 L 4430,855 L 4418,860 L 4406,862 L 4400,862 L 4387,861 L 4375,857 L 4364,851 L 4354,843 L 4346,833 L 4340,821 L 4337,809 L 4311,809 L 4307,809 L 4305,808 L 4218,721 L 2742,721 L 2738,719 L 2736,718 L 2535,517 L 1790,517 L 1589,718 L 1589,840 L 1605,840 z " style="fill-opacity:1.000000;fill:rgb(135,112,233);stroke:rgb(0,0,0);stroke-width:2"/></g>
<g fill-rule="evenodd"><path d="M 3109,1438 L 3112,1438 L 3124,1442 L 3135,1448 L 3145,1456 L 3153,1466 L 3159,1478 L 3162,1490 L 3162,1503 L 3160,1515 L 3156,1527 L 3149,1538 L 3141,1547 L 3130,1555 L 3118,1560 L 3106,1562 L 3100,1562 L 3087,1561 L 3075,1557 L 3064,1551 L 3054,1543 L 3046,1533 L 3040,1521 L 3037,1509 L 3037,1496 L 3039,1484 L 3043,1472 L 3050,1461 L 3058,1452 L 3069,1444 L 3081,1439 L 3090,1438 L 3090,1261 L 3087,1261 L 3075,1257 L 3064,1251 L 3054,1243 L 3046,1233 L 3040,1221 L 3037,1209 L 3037,1196 L 3039,1184 L 3043,1172 L 3050,1161 L 3058,1152 L 3069,1144 L 3081,1139 L 3093,1137 L 3100,1137 L 3112,1138 L 3124,1142 L 3135,1148 L 3145,1156 L 3153,1166 L 3159,1178 L 3162,1190 L 3184,1190 L 3270,1104 L 3273,1102 L 3277,1101 L 4195,1101 L 4305,991 L 4309,990 L 4311,990 L 4338,990 L 4339,984 L 4343,972 L 4350,961 L 4358,952 L 4369,944 L 4381,939 L 4393,937 L 4400,937 L 4412,938 L 4424,942 L 4435,948 L 4445,956 L 4453,966 L 4459,978 L 4462,990 L 4462,1003 L 4460,1015 L 4456,1027 L 4449,1038 L 4441,1047 L 4430,1055 L 4418,1060 L 4406,1062 L 4400,1062 L 4387,1061 L 4375,1057 L 4364,1051 L 4354,1043 L 4346,1033 L 4340,1021 L 4337,1009 L 4315,1009 L 4206,1118 L 4203,1120 L 4201,1121 L 3281,1121 L 3195,1206 L 3192,1209 L 3188,1209 L 3161,1209 L 3160,1215 L 3156,1227 L 3149,1238 L 3141,1247 L 3130,1255 L 3118,1260 L 3109,1261 L 3109,1438 z " style="fill-opacity:1.000000;fill:rgb(62,161,65);stroke:rgb(0,0,0);stroke-width:2"/></g>
<g fill-rule="evenodd"><path d="M 3109,1838 L 3112,1838 L 3124,1842 L 3135,1848 L 3145,1856 L 3153,1866 L 3159,1878 L 3162,1890 L 3162,1903 L 3160,1915 L 3156,1927 L 3149,1938 L 3141,1947 L 3130,1955 L 3118,1960 L 3106,1962 L 3100,1962 L 3087,1961 L 3075,1957 L 3064,1951 L 3054,1943 L 3046,1933 L 3040,1921 L 3037,1909 L 3037,1896 L 3039,1884 L 3043,1872 L 3050,1861 L 3058,1852 L 3069,1844 L 3081,1839 L 3090,1838 L 3090,1811 L 3090,1807 L 3093,1804 L 3176,1721 L 3004,1549 L 3002,1545 L 3001,1544 L 3001,1077 L 3002,1073 L 3004,1070 L 3090,984 L 3090,961 L 3087,961 L 3075,957 L 3064,951 L 3054,943 L 3046,933 L 3040,921 L 3037,909 L 3037,896 L 3039,884 L 3043,872 L 3050,861 L 3058,852 L 3069,844 L 3081,839 L 3093,837 L 3100,837 L 3112,838 L 3124,842 L 3135,848 L 3145,856 L 3153,866 L 3159,878 L 3162,890 L 3162,903 L 3160,915 L 3156,927 L 3149,938 L 3141,947 L 3130,955 L 3118,960 L 3109,961 L 3109,988 L 3109,992 L 3108,994 L 3020,1081 L 3020,1538 L 3190,1707 L 3610,1286 L 3613,1284 L 3617,1283 L 4213,1283 L 4305,1191 L 4309,1190 L 4311,1190 L 4338,1190 L 4339,1184 L 4343,1172 L 4350,1161 L 4358,1152 L 4369,1144 L 4381,1139 L 4393,1137 L 4400,1137 L 4412,1138 L 4424,1142 L 4435,1148 L 4445,1156 L 4453,1166 L 4459,1178 L 4462,1190 L 4462,1203 L 4460,1215 L 4456,1227 L 4449,1238 L 4441,1247 L 4430,1255 L 4418,1260 L 4406,1262 L 4400,1262 L 4387,1261 L 4375,1257 L 4364,1251 L 4354,1243 L 4346,1233 L 4340,1221 L 4337,1209 L 4315,1209 L 4224,1300 L 4221,1302 L 4219,1303 L 3621,1303 L 3109,1815 L 3109,1838 z " style="fill-opacity:1.000000;fill:rgb(225,252,103);stroke:rgb(0,0,0);stroke-width:2"/></g>
<g fill-rule="evenodd"><path d="M 3737,190 L 3737,137 L 3862,137 L 3862,262 L 3737,262 L 3737,209 L 3592,209 L 3194,608 L 3192,609 L 3188,609 L 3161,609 L 3160,615 L 3156,627 L 3149,638 L 3141,647 L 3130,655 L 3118,660 L 3106,662 L 3100,662 L 3087,661 L 3075,657 L 3064,651 L 3054,643 L 3046,633 L 3040,621 L 3037,609 L 3037,596 L 3039,584 L 3043,572 L 3050,561 L 3058,552 L 3069,544 L 3081,539 L 3093,537 L 3100,537 L 3112,538 L 3124,542 L 3135,548 L 3145,556 L 3153,566 L 3159,578 L 3162,590 L 3184,590 L 3583,191 L 3586,190 L 3588,190 L 3737,190 z " style="fill-opacity:1.000000;fill:rgb(62,1,126);stroke:rgb(0,0,0);stroke-width:2"/></g>
<g fill-rule="evenodd"><path d="M 5105,1190 L 5105,1105 L 5294,1105 L 5294,1294 L 5105,1294 L 5105,1209 L 5079,1209 L 5076,1209 L 5072,1206 L 4481,615 L 4479,612 L 4478,609 L 4461,609 L 4460,615 L 4456,627 L 4449,638 L 4441,647 L 4430,655 L 4418,660 L 4406,662 L 4400,662 L 4387,661 L 4375,657 L 4364,651 L 4354,643 L 4346,633 L 4340,621 L 4337,609 L 4337,596 L 4339,584 L 4343,572 L 4350,561 L 4358,552 L 4369,544 L 4381,539 L 4393,537 L 4400,537 L 4412,538 L 4424,542 L 4435,548 L 4445,556 L 4453,566 L 4459,578 L 4462,590 L 4488,590 L 4492,590 L 4495,593 L 4497,596 L 4498,598 L 4498,604 L 5083,1190 L 5105,1190 z " style="fill-opacity:1.000000;fill:rgb(151,234,220);stroke:rgb(0,0,0);stroke-width:2"/></g>
<g fill-rule="evenodd"><path d="M 5105,490 L 5105,405 L 5294,405 L 5294,594 L 5105,594 L 5105,509 L 4586,509 L 4583,508 L 4581,506 L 4484,409 L 4461,409 L 4460,415 L 4456,427 L 4449,438 L 4441,447 L 4430,455 L 4418,460 L 4406,462 L 4400,462 L 4387,461 L 4375,457 L 4364,451 L 4354,443 L 4346,433 L 4340,421 L 4337,409 L 4337,396 L 4339,384 L 4343,372 L 4350,361 L 4358,352 L 4369,344 L 4381,339 L 4393,337 L 4400,337 L 4412,338 L 4424,342 L 4435,348 L 4445,356 L 4453,366 L 4459,378 L 4462,390 L 4488,390 L 4492,390 L 4495,393 L 4592,490 L 5105,490 z " style="fill-opacity:1.000000;fill:rgb(107,150,143);stroke:rgb(0,0,0);stroke-width:2"/></g>
</svg>
