<?xml version="1.0" standalone="no"?>
<!DOCTYPE svg PUBLIC "-//W3C//DTD SVG 1.1//EN"
"http://www.w3.org/Graphics/SVG/1.1/DTD/svg11.dtd">
<svg width="5200" height="2732" viewBox="0 0 5200 2732" version="1.1"
xmlns="http://www.w3.org/2000/svg"
xmlns:xlink="http://www.w3.org/1999/xlink">
<g fill-rule="evenodd"><path d="M 4269,2732 L 4256,2730 L 4244,2726 L 4233,2720 L 4223,2712 L 4215,2702 L 4210,2690 L 4207,2678 L 4206,2665 L 4208,2653 L 4212,2641 L 4219,2630 L 4228,2621 L 4238,2613 L 4250,2608 L 4262,2606 L 4269,2606 L 4282,2607 L 4294,2611 L 4305,2617 L 4314,2625 L 4322,2635 L 4328,2647 L 4331,2659 L 4332,2672 L 4330,2684 L 4325,2696 L 4319,2707 L 4310,2716 L 4299,2724 L 4288,2729 L 4275,2731 L 4269,2732 z " style="fill-opacity:1.000000;fill:rgb(103,198,105);stroke:rgb(0,0,0);stroke-width:2"/></g>
<g fill-rule="evenodd"><path d="M 3669,332 L 3656,331 L 3644,327 L 3633,321 L 3623,312 L 3616,302 L 3610,291 L 3607,279 L 3606,266 L 3608,253 L 3612,241 L 3619,230 L 3628,221 L 3638,214 L 3650,209 L 3663,206 L 3669,206 L 3682,207 L 3694,211 L 3705,217 L 3715,226 L 3722,236 L 3728,247 L 3731,259 L 3732,272 L 3730,285 L 3725,297 L 3719,308 L 3710,317 L 3700,324 L 3688,329 L 3675,332 L 3669,332 z " style="fill-opacity:1.000000;fill:rgb(115,81,255);stroke:rgb(0,0,0);stroke-width:2"/></g>
<g fill-rule="evenodd"><path d="M 4269,2532 L 4256,2530 L 4244,2526 L 4233,2520 L 4223,2512 L 4215,2502 L 4210,2490 L 4207,2478 L 4206,2465 L 4208,2453 L 4212,2441 L 4219,2430 L 4228,2421 L 4238,2413 L 4250,2408 L 4262,2406 L 4269,2406 L 4282,2407 L 4294,2411 L 4305,2417 L 4314,2425 L 4322,2435 L 4328,2447 L 4331,2459 L 4332,2472 L 4330,2484 L 4325,2496 L 4319,2507 L 4310,2516 L 4299,2524 L 4288,2529 L 4275,2531 L 4269,2532 z " style="fill-opacity:1.000000;fill:rgb(74,236,41);stroke:rgb(0,0,0);stroke-width:2"/></g>
<g fill-rule="evenodd"><path d="M 3669,532 L 3656,531 L 3644,527 L 3633,521 L 3623,512 L 3616,502 L 3610,491 L 3607,479 L 3606,466 L 3608,453 L 3612,441 L 3619,430 L 3628,421 L 3638,414 L 3650,409 L 3663,406 L 3669,406 L 3682,407 L 3694,411 L 3705,417 L 3715,426 L 3722,436 L 3728,447 L 3731,459 L 3732,472 L 3730,485 L 3725,497 L 3719,508 L 3710,517 L 3700,524 L 3688,529 L 3675,532 L 3669,532 z " style="fill-opacity:1.000000;fill:rgb(205,186,171);stroke:rgb(0,0,0);stroke-width:2"/></g>
<g fill-rule="evenodd"><path d="M 4269,2332 L 4256,2330 L 4244,2326 L 4233,2320 L 4223,2312 L 4215,2302 L 4210,2290 L 4207,2278 L 4206,2265 L 4208,2253 L 4212,2241 L 4219,2230 L 4228,2221 L 4238,2214 L 4250,2209 L 4262,2206 L 4269,2206 L 4282,2207 L 4294,2211 L 4305,2217 L 4314,2225 L 4322,2235 L 4328,2247 L 4331,2259 L 4332,2272 L 4330,2284 L 4325,2296 L 4319,2307 L 4310,2316 L 4299,2324 L 4288,2329 L 4275,2331 L 4269,2332 z " style="fill-opacity:1.000000;fill:rgb(242,251,227);stroke:rgb(0,0,0);stroke-width:2"/></g>
<g fill-rule="evenodd"><path d="M 3669,732 L 3656,731 L 3644,727 L 3633,721 L 3623,712 L 3616,702 L 3610,691 L 3607,678 L 3606,666 L 3608,653 L 3612,641 L 3619,630 L 3628,621 L 3638,614 L 3650,609 L 3663,606 L 3669,606 L 3682,607 L 3694,611 L 3705,617 L 3715,626 L 3722,636 L 3728,647 L 3731,659 L 3732,672 L 3730,685 L 3725,697 L 3719,707 L 3710,717 L 3700,724 L 3688,729 L 3675,732 L 3669,732 z " style="fill-opacity:1.000000;fill:rgb(70,124,194);stroke:rgb(0,0,0);stroke-width:2"/></g>
<g fill-rule="evenodd"><path d="M 4269,2132 L 4256,2130 L 4244,2127 L 4233,2120 L 4223,2112 L 4215,2102 L 4210,2091 L 4207,2078 L 4206,2065 L 4208,2053 L 4212,2041 L 4219,2030 L 4228,2021 L 4238,2014 L 4250,2009 L 4262,2006 L 4269,2006 L 4282,2007 L 4294,2011 L 4305,2017 L 4314,2025 L 4322,2035 L 4328,2047 L 4331,2059 L 4332,2072 L 4330,2084 L 4325,2096 L 4319,2107 L 4310,2116 L 4299,2124 L 4288,2129 L 4275,2131 L 4269,2132 z " style="fill-opacity:1.000000;fill:rgb(84,248,27);stroke:rgb(0,0,0);stroke-width:2"/></g>
<g fill-rule="evenodd"><path d="M 3669,932 L 3656,931 L 3644,927 L 3633,921 L 3623,912 L 3616,902 L 3610,891 L 3607,878 L 3606,866 L 3608,853 L 3612,841 L 3619,830 L 3628,821 L 3638,814 L 3650,809 L 3663,806 L 3669,806 L 3682,807 L 3694,811 L 3705,817 L 3715,825 L 3722,836 L 3728,847 L 3731,859 L 3732,872 L 3730,885 L 3725,897 L 3719,907 L 3710,917 L 3700,924 L 3688,929 L 3675,932 L 3669,932 z " style="fill-opacity:1.000000;fill:rgb(232,231,141);stroke:rgb(0,0,0);stroke-width:2"/></g>
<g fill-rule="evenodd"><path d="M 4269,1932 L 4256,1930 L 4244,1927 L 4233,1920 L 4223,1912 L 4215,1902 L 4210,1891 L 4207,1878 L 4206,1865 L 4208,1853 L 4212,1841 L 4219,1830 L 4228,1821 L 4238,1814 L 4250,1809 L 4262,1806 L 4269,1806 L 4282,1807 L 4294,1811 L 4305,1817 L 4314,1825 L 4322,1835 L 4328,1847 L 4331,1859 L 4332,1872 L 4330,1884 L 4325,1896 L 4319,1907 L 4310,1916 L 4299,1924 L 4288,1929 L 4275,1931 L 4269,1932 z " style="fill-opacity:1.000000;fill:rgb(118,90,46);stroke:rgb(0,0,0);stroke-width:2"/></g>
<g fill-rule="evenodd"><path d="M 3669,1132 L 3656,1131 L 3644,1127 L 3633,1121 L 3623,1112 L 3616,1102 L 3610,1091 L 3607,1078 L 3606,1066 L 3608,1053 L 3612,1041 L 3619,1030 L 3628,1021 L 3638,1014 L 3650,1009 L 3663,1006 L 3669,1006 L 3682,1007 L 3694,1011 L 3705,1017 L 3715,1025 L 3722,1036 L 3728,1047 L 3731,1059 L 3732,1072 L 3730,1085 L 3725,1097 L 3719,1107 L 3710,1117 L 3700,1124 L 3688,1129 L 3675,1132 L 3669,1132 z " style="fill-opacity:1.000000;fill:rgb(99,51,159);stroke:rgb(0,0,0);stroke-width:2"/></g>
<g fill-rule="evenodd"><path d="M 3669,2132 L 3656,2130 L 3644,2127 L 3633,2120 L 3623,2112 L 3616,2102 L 3610,2091 L 3607,2078 L 3606,2065 L 3608,2053 L 3612,2041 L 3619,2030 L 3628,2021 L 3638,2014 L 3650,2009 L 3663,2006 L 3669,2006 L 3682,2007 L 3694,2011 L 3705,2017 L 3715,2025 L 3722,2035 L 3728,2047 L 3731,2059 L 3732,2072 L 3730,2084 L 3725,2096 L 3719,2107 L 3710,2116 L 3700,2124 L 3688,2129 L 3675,2131 L 3669,2132 z " style="fill-opacity:1.000000;fill:rgb(201,154,102);stroke:rgb(0,0,0);stroke-width:2"/></g>
<g fill-rule="evenodd"><path d="M 3669,2332 L 3656,2330 L 3644,2326 L 3633,2320 L 3623,2312 L 3616,2302 L 3610,2290 L 3607,2278 L 3606,2265 L 3608,2253 L 3612,2241 L 3619,2230 L 3628,2221 L 3638,2214 L 3650,2209 L 3663,2206 L 3669,2206 L 3682,2207 L 3694,2211 L 3705,2217 L 3715,2225 L 3722,2235 L 3728,2247 L 3731,2259 L 3732,2272 L 3730,2284 L 3725,2296 L 3719,2307 L 3710,2316 L 3700,2324 L 3688,2329 L 3675,2331 L 3669,2332 z " style="fill-opacity:1.000000;fill:rgb(50,13,183);stroke:rgb(0,0,0);stroke-width:2"/></g>
<g fill-rule="evenodd"><path d="M 3669,2532 L 3656,2530 L 3644,2526 L 3633,2520 L 3623,2512 L 3616,2502 L 3610,2490 L 3607,2478 L 3606,2465 L 3608,2453 L 3612,2441 L 3619,2430 L 3628,2421 L 3638,2413 L 3650,2408 L 3663,2406 L 3669,2406 L 3682,2407 L 3694,2411 L 3705,2417 L 3715,2425 L 3722,2435 L 3728,2447 L 3731,2459 L 3732,2472 L 3730,2484 L 3725,2496 L 3719,2507 L 3710,2516 L 3700,2524 L 3688,2529 L 3675,2531 L 3669,2532 z " style="fill-opacity:1.000000;fill:rgb(49,88,163);stroke:rgb(0,0,0);stroke-width:2"/></g>
<g fill-rule="evenodd"><path d="M 3669,2732 L 3656,2730 L 3644,2726 L 3633,2720 L 3623,2712 L 3616,2702 L 3610,2690 L 3607,2678 L 3606,2665 L 3608,2653 L 3612,2641 L 3619,2630 L 3628,2621 L 3638,2613 L 3650,2608 L 3663,2606 L 3669,2606 L 3682,2607 L 3694,2611 L 3705,2617 L 3715,2625 L 3722,2635 L 3728,2647 L 3731,2659 L 3732,2672 L 3730,2684 L 3725,2696 L 3719,2707 L 3710,2716 L 3700,2724 L 3688,2729 L 3675,2731 L 3669,2732 z " style="fill-opacity:1.000000;fill:rgb(90,37,93);stroke:rgb(0,0,0);stroke-width:2"/></g>
<g fill-rule="evenodd"><path d="M 4269,132 L 4256,131 L 4244,127 L 4233,121 L 4223,112 L 4215,102 L 4210,91 L 4207,79 L 4206,66 L 4208,53 L 4212,41 L 4219,31 L 4228,21 L 4238,14 L 4250,9 L 4262,6 L 4269,6 L 4282,7 L 4294,11 L 4305,17 L 4314,26 L 4322,36 L 4328,47 L 4331,60 L 4332,72 L 4330,85 L 4325,97 L 4319,108 L 4310,117 L 4299,124 L 4288,129 L 4275,132 L 4269,132 z " style="fill-opacity:1.000000;fill:rgb(5,23,88);stroke:rgb(0,0,0);stroke-width:2"/></g>
<g fill-rule="evenodd"><path d="M 5059,0 L 5079,0 L 5098,4 L 5116,12 L 5132,23 L 5145,38 L 5155,55 L 5161,74 L 5163,93 L 5161,113 L 5155,132 L 5145,149 L 5142,153 L 5196,207 L 5198,210 L 5199,214 L 5199,673 L 5198,677 L 5196,680 L 5142,734 L 5145,738 L 5155,755 L 5161,774 L 5163,793 L 5161,813 L 5155,832 L 5145,849 L 5142,853 L 5197,907 L 5198,909 L 5199,912 L 5199,1177 L 5199,1180 L 5197,1184 L 5111,1269 L 5143,1300 L 5144,1302 L 5145,1305 L 5145,1596 L 5145,1600 L 5143,1603 L 4381,2364 L 4378,2366 L 4376,2367 L 2758,2367 L 2754,2366 L 2751,2364 L 2700,2314 L 2697,2316 L 2686,2321 L 2675,2323 L 2663,2323 L 2652,2321 L 2642,2316 L 2632,2310 L 2625,2301 L 2619,2291 L 2615,2280 L 2615,2278 L 2420,2278 L 2420,2280 L 2416,2291 L 2411,2301 L 2403,2310 L 2394,2316 L 2383,2321 L 2372,2323 L 2360,2323 L 2349,2321 L 2339,2316 L 2335,2314 L 2255,2393 L 2252,2395 L 2248,2396 L 1688,2396 L 1685,2394 L 1683,2393 L 1604,2314 L 1600,2316 L 1590,2321 L 1578,2323 L 1567,2323 L 1555,2321 L 1545,2316 L 1536,2310 L 1528,2301 L 1522,2291 L 1519,2280 L 1518,2278 L 1220,2278 L 1220,2280 L 1217,2291 L 1211,2301 L 1203,2310 L 1194,2316 L 1183,2321 L 1172,2323 L 1161,2323 L 1149,2321 L 1139,2316 L 1135,2314 L 1091,2358 L 1088,2360 L 1084,2361 L 377,2361 L 373,2360 L 370,2358 L 329,2317 L 317,2326 L 299,2334 L 280,2338 L 260,2338 L 240,2334 L 222,2326 L 206,2314 L 193,2300 L 183,2283 L 177,2264 L 175,2244 L 177,2225 L 183,2206 L 193,2189 L 197,2185 L 142,2131 L 140,2127 L 140,2126 L 140,1763 L 140,1761 L 142,1758 L 197,1704 L 193,1700 L 183,1683 L 177,1664 L 175,1644 L 177,1625 L 183,1606 L 193,1589 L 197,1585 L 87,1476 L 85,1473 L 84,1471 L 84,763 L 65,759 L 47,751 L 31,739 L 18,724 L 8,707 L 2,689 L 0,669 L 2,649 L 8,631 L 18,613 L 31,599 L 47,587 L 65,579 L 84,575 L 104,575 L 123,579 L 141,587 L 153,596 L 207,542 L 210,540 L 214,539 L 1053,539 L 1055,540 L 1058,542 L 1100,584 L 1101,586 L 1103,589 L 1103,783 L 1102,784 L 1100,788 L 1069,819 L 1098,849 L 1099,850 L 1100,854 L 1100,877 L 1439,877 L 1439,787 L 1440,784 L 1442,780 L 1461,761 L 1464,759 L 1466,759 L 1572,758 L 1727,604 L 1725,601 L 1719,591 L 1715,580 L 1714,569 L 1715,557 L 1719,547 L 1725,537 L 1732,528 L 1742,521 L 1752,517 L 1764,514 L 1775,514 L 1786,517 L 1797,521 L 1806,528 L 1814,537 L 1820,547 L 1823,557 L 1824,569 L 1823,580 L 1820,591 L 1814,601 L 1806,610 L 1797,617 L 1786,621 L 1775,624 L 1764,624 L 1752,621 L 1742,617 L 1583,775 L 1580,777 L 1576,778 L 1472,778 L 1459,791 L 1459,909 L 1474,909 L 1474,899 L 1564,899 L 1564,909 L 1590,909 L 1594,910 L 1597,912 L 1726,1041 L 1880,1041 L 1921,1000 L 1916,991 L 1912,980 L 1911,969 L 1912,957 L 1916,946 L 1922,936 L 1929,928 L 1939,921 L 1949,916 L 1960,914 L 1972,914 L 1983,916 L 1994,921 L 2003,928 L 2011,936 L 2016,946 L 2020,957 L 2020,959 L 2165,959 L 2318,806 L 2312,795 L 2308,782 L 2306,769 L 2308,756 L 2312,743 L 2318,732 L 2327,722 L 2338,714 L 2350,709 L 2363,706 L 2376,706 L 2389,709 L 2401,714 L 2411,722 L 2420,732 L 2427,743 L 2431,756 L 2432,769 L 2431,782 L 2427,795 L 2420,806 L 2411,816 L 2401,823 L 2389,829 L 2376,832 L 2363,832 L 2350,829 L 2338,823 L 2332,820 L 2233,919 L 2332,1018 L 2338,1014 L 2350,1009 L 2363,1006 L 2376,1006 L 2389,1009 L 2401,1014 L 2411,1022 L 2420,1032 L 2427,1043 L 2431,1056 L 2432,1069 L 2431,1082 L 2427,1094 L 2420,1106 L 2411,1116 L 2401,1123 L 2389,1129 L 2376,1131 L 2363,1131 L 2350,1129 L 2338,1123 L 2327,1116 L 2318,1106 L 2312,1094 L 2308,1082 L 2306,1069 L 2308,1056 L 2312,1043 L 2318,1032 L 2219,933 L 2176,976 L 2173,978 L 2171,979 L 2020,979 L 2020,980 L 2016,991 L 2011,1001 L 2003,1010 L 1994,1017 L 1983,1021 L 1972,1024 L 1960,1024 L 1949,1021 L 1939,1017 L 1935,1014 L 1891,1058 L 1887,1060 L 1884,1061 L 1722,1061 L 1719,1060 L 1715,1058 L 1586,929 L 1564,929 L 1564,939 L 1474,939 L 1474,929 L 1449,929 L 1445,928 L 1442,926 L 1440,923 L 1439,919 L 1439,896 L 1100,896 L 1100,919 L 1099,923 L 1097,926 L 1094,928 L 1090,929 L 1064,929 L 1064,939 L 974,939 L 974,899 L 1064,899 L 1064,909 L 1080,909 L 1080,858 L 1061,839 L 974,839 L 974,799 L 1061,799 L 1083,777 L 1083,595 L 1047,559 L 218,559 L 167,610 L 171,613 L 180,631 L 186,649 L 189,669 L 186,689 L 180,707 L 171,724 L 157,739 L 141,751 L 123,759 L 104,763 L 104,1465 L 210,1571 L 222,1563 L 240,1554 L 260,1550 L 280,1550 L 299,1554 L 317,1563 L 333,1574 L 346,1589 L 356,1606 L 362,1625 L 364,1644 L 362,1664 L 356,1683 L 346,1700 L 333,1715 L 317,1726 L 299,1734 L 280,1738 L 260,1738 L 240,1734 L 222,1726 L 210,1717 L 159,1769 L 159,2120 L 210,2171 L 222,2162 L 240,2154 L 260,2150 L 280,2150 L 299,2154 L 317,2162 L 333,2174 L 346,2189 L 356,2206 L 362,2225 L 364,2244 L 362,2264 L 356,2283 L 346,2300 L 343,2303 L 381,2341 L 1080,2341 L 1121,2300 L 1116,2291 L 1112,2280 L 1111,2269 L 1112,2257 L 1116,2246 L 1122,2236 L 1129,2228 L 1139,2221 L 1149,2216 L 1161,2214 L 1172,2214 L 1183,2216 L 1194,2221 L 1203,2228 L 1211,2236 L 1217,2246 L 1220,2257 L 1220,2259 L 1518,2259 L 1519,2257 L 1522,2246 L 1527,2237 L 1492,2202 L 1489,2198 L 1489,2195 L 1489,1806 L 1474,1803 L 1455,1796 L 1438,1786 L 1424,1772 L 1412,1756 L 1405,1738 L 1401,1718 L 1400,1629 L 1402,1610 L 1408,1591 L 1418,1573 L 1431,1558 L 1446,1546 L 1464,1537 L 1484,1532 L 1504,1531 L 1523,1534 L 1542,1541 L 1559,1552 L 1573,1565 L 1585,1582 L 1592,1600 L 1596,1619 L 1597,1708 L 1595,1728 L 1589,1747 L 1579,1764 L 1566,1779 L 1551,1792 L 1533,1800 L 1513,1805 L 1508,1806 L 1508,2191 L 1541,2224 L 1545,2221 L 1555,2216 L 1567,2214 L 1578,2214 L 1590,2216 L 1600,2221 L 1609,2228 L 1617,2236 L 1623,2246 L 1626,2257 L 1628,2269 L 1626,2280 L 1623,2291 L 1618,2300 L 1694,2376 L 2244,2376 L 2321,2300 L 2316,2291 L 2312,2280 L 2311,2269 L 2312,2257 L 2316,2246 L 2321,2236 L 2329,2228 L 2339,2221 L 2349,2216 L 2360,2214 L 2372,2214 L 2383,2216 L 2394,2221 L 2403,2228 L 2411,2236 L 2416,2246 L 2420,2257 L 2420,2259 L 2615,2259 L 2615,2257 L 2619,2246 L 2625,2236 L 2632,2228 L 2642,2221 L 2652,2216 L 2663,2214 L 2675,2214 L 2686,2216 L 2697,2221 L 2706,2228 L 2714,2236 L 2719,2246 L 2723,2257 L 2724,2269 L 2723,2280 L 2719,2291 L 2714,2300 L 2762,2347 L 4370,2347 L 5126,1592 L 5126,1311 L 5093,1279 L 4331,1279 L 4330,1285 L 4325,1297 L 4319,1307 L 4310,1317 L 4299,1324 L 4288,1329 L 4275,1331 L 4269,1332 L 4256,1330 L 4244,1327 L 4233,1320 L 4223,1312 L 4215,1302 L 4210,1291 L 4207,1279 L 3962,1279 L 3764,1476 L 3761,1478 L 3758,1479 L 3731,1479 L 3730,1485 L 3725,1496 L 3719,1507 L 3710,1517 L 3700,1524 L 3688,1529 L 3675,1531 L 3669,1532 L 3656,1530 L 3644,1527 L 3633,1520 L 3623,1512 L 3616,1502 L 3610,1491 L 3607,1478 L 3606,1466 L 3608,1453 L 3612,1441 L 3619,1430 L 3628,1421 L 3638,1414 L 3650,1409 L 3663,1406 L 3669,1406 L 3682,1407 L 3694,1411 L 3705,1417 L 3715,1425 L 3722,1435 L 3728,1447 L 3731,1459 L 3753,1459 L 3951,1262 L 3954,1260 L 3957,1259 L 4207,1259 L 4208,1253 L 4212,1241 L 4219,1230 L 4228,1221 L 4238,1214 L 4250,1209 L 4262,1206 L 4269,1206 L 4282,1207 L 4294,1211 L 4305,1217 L 4314,1225 L 4322,1235 L 4328,1247 L 4331,1259 L 5093,1259 L 5180,1172 L 5180,918 L 5128,866 L 5116,875 L 5098,883 L 5079,887 L 5059,887 L 5039,883 L 5021,875 L 5005,864 L 4992,849 L 4982,832 L 4976,813 L 4974,793 L 4976,774 L 4982,755 L 4992,738 L 5005,723 L 5021,711 L 5039,703 L 5059,699 L 5079,699 L 5098,703 L 5116,711 L 5128,720 L 5179,669 L 5179,218 L 5128,167 L 5116,175 L 5098,183 L 5079,187 L 5059,187 L 5039,183 L 5021,175 L 5005,164 L 4992,149 L 4982,132 L 4976,113 L 4974,93 L 4976,74 L 4982,55 L 4992,38 L 5005,23 L 5021,12 L 5039,4 L 5059,0 z " style="fill-opacity:1.000000;fill:rgb(233,94,212);stroke:rgb(0,0,0);stroke-width:2"/></g>
<g fill-rule="evenodd"><path d="M 260,1463 L 175,1463 L 175,1274 L 260,1274 L 260,887 L 261,885 L 263,882 L 360,785 L 360,763 L 275,763 L 275,574 L 464,574 L 464,719 L 935,719 L 943,711 L 947,709 L 974,709 L 974,699 L 1010,699 L 1010,639 L 974,639 L 974,599 L 1064,599 L 1064,639 L 1029,639 L 1029,699 L 1064,699 L 1064,739 L 974,739 L 974,729 L 953,729 L 944,737 L 943,738 L 939,739 L 464,739 L 464,763 L 379,763 L 379,789 L 379,793 L 378,794 L 279,893 L 279,1274 L 364,1274 L 364,1463 L 279,1463 L 279,1479 L 287,1479 L 288,1480 L 292,1482 L 398,1588 L 399,1590 L 400,1594 L 400,1659 L 971,1659 L 971,1531 L 1168,1531 L 1168,1659 L 1189,1659 L 1353,1495 L 1357,1493 L 1360,1492 L 2359,1492 L 2359,1431 L 2350,1429 L 2338,1423 L 2327,1416 L 2318,1406 L 2312,1394 L 2308,1382 L 2306,1369 L 2308,1356 L 2312,1343 L 2318,1332 L 2327,1322 L 2338,1314 L 2350,1309 L 2363,1306 L 2376,1306 L 2389,1309 L 2401,1314 L 2411,1322 L 2420,1332 L 2427,1343 L 2431,1356 L 2432,1369 L 2431,1382 L 2427,1394 L 2420,1406 L 2411,1416 L 2401,1423 L 2389,1429 L 2379,1431 L 2379,1707 L 2389,1709 L 2401,1714 L 2411,1722 L 2420,1732 L 2427,1743 L 2431,1756 L 2432,1769 L 2431,1782 L 2427,1794 L 2420,1806 L 2411,1816 L 2401,1823 L 2389,1829 L 2376,1831 L 2363,1831 L 2350,1829 L 2338,1823 L 2327,1816 L 2318,1806 L 2312,1794 L 2308,1782 L 2306,1769 L 2308,1756 L 2312,1743 L 2318,1732 L 2327,1722 L 2338,1714 L 2350,1709 L 2359,1707 L 2359,1512 L 1364,1512 L 1200,1676 L 1197,1678 L 1193,1679 L 1168,1679 L 1168,1806 L 979,1806 L 979,2215 L 987,2216 L 997,2221 L 1006,2228 L 1014,2236 L 1020,2246 L 1023,2257 L 1025,2269 L 1023,2280 L 1020,2291 L 1014,2301 L 1006,2310 L 997,2316 L 987,2321 L 975,2323 L 964,2323 L 952,2321 L 942,2316 L 933,2310 L 925,2301 L 919,2291 L 916,2280 L 914,2269 L 916,2257 L 919,2246 L 925,2236 L 933,2228 L 942,2221 L 952,2216 L 960,2215 L 960,1707 L 960,1705 L 961,1701 L 971,1691 L 971,1679 L 400,1679 L 400,1729 L 399,1732 L 398,1734 L 279,1853 L 279,1874 L 364,1874 L 364,2063 L 175,2063 L 175,1874 L 260,1874 L 260,1849 L 260,1847 L 261,1843 L 380,1724 L 380,1598 L 281,1499 L 268,1499 L 266,1498 L 263,1496 L 261,1493 L 260,1489 L 260,1463 z " style="fill-opacity:1.000000;fill:rgb(171,178,205);stroke:rgb(0,0,0);stroke-width:2"/></g>
<g fill-rule="evenodd"><path d="M 1815,2237 L 1820,2246 L 1823,2257 L 1824,2269 L 1823,2280 L 1820,2291 L 1814,2301 L 1806,2310 L 1797,2316 L 1786,2321 L 1775,2323 L 1764,2323 L 1752,2321 L 1742,2316 L 1732,2310 L 1725,2301 L 1719,2291 L 1715,2280 L 1714,2269 L 1715,2257 L 1719,2246 L 1725,2236 L 1732,2228 L 1742,2221 L 1752,2216 L 1764,2214 L 1775,2214 L 1786,2216 L 1797,2221 L 1801,2224 L 2043,1981 L 2047,1979 L 2048,1978 L 3257,1978 L 3573,1662 L 3577,1660 L 3580,1659 L 3607,1659 L 3608,1653 L 3612,1641 L 3619,1630 L 3628,1621 L 3638,1614 L 3650,1609 L 3663,1606 L 3669,1606 L 3682,1607 L 3694,1611 L 3705,1617 L 3715,1625 L 3722,1635 L 3728,1647 L 3731,1659 L 3758,1659 L 3759,1659 L 3763,1661 L 3850,1747 L 4676,1747 L 4835,1589 L 4833,1585 L 4830,1577 L 4829,1569 L 4830,1561 L 4833,1553 L 4837,1546 L 4842,1539 L 4849,1535 L 4857,1531 L 4865,1530 L 4873,1530 L 4881,1531 L 4888,1535 L 4895,1539 L 4901,1546 L 4905,1553 L 4907,1561 L 4908,1569 L 4907,1577 L 4905,1585 L 4901,1592 L 4895,1598 L 4888,1603 L 4881,1606 L 4873,1608 L 4865,1608 L 4857,1606 L 4849,1603 L 4687,1764 L 4684,1766 L 4680,1767 L 3846,1767 L 3842,1766 L 3839,1764 L 3753,1679 L 3731,1679 L 3730,1685 L 3725,1696 L 3719,1707 L 3710,1717 L 3700,1724 L 3688,1729 L 3675,1731 L 3669,1732 L 3656,1730 L 3644,1727 L 3633,1720 L 3623,1712 L 3616,1702 L 3610,1691 L 3607,1679 L 3584,1679 L 3268,1995 L 3265,1997 L 3263,1997 L 2054,1997 L 1815,2237 z " style="fill-opacity:1.000000;fill:rgb(198,155,180);stroke:rgb(0,0,0);stroke-width:2"/></g>
<g fill-rule="evenodd"><path d="M 2214,2237 L 2220,2246 L 2223,2257 L 2224,2269 L 2223,2280 L 2220,2291 L 2214,2301 L 2206,2310 L 2197,2316 L 2186,2321 L 2175,2323 L 2163,2323 L 2152,2321 L 2142,2316 L 2132,2310 L 2125,2301 L 2119,2291 L 2115,2280 L 2114,2269 L 2115,2257 L 2119,2246 L 2125,2236 L 2132,2228 L 2142,2221 L 2152,2216 L 2163,2214 L 2175,2214 L 2186,2216 L 2197,2221 L 2200,2224 L 2305,2119 L 2308,2117 L 2310,2116 L 3319,2116 L 3573,1862 L 3577,1860 L 3580,1859 L 3607,1859 L 3608,1853 L 3612,1841 L 3619,1830 L 3628,1821 L 3638,1814 L 3650,1809 L 3663,1806 L 3669,1806 L 3682,1807 L 3694,1811 L 3705,1817 L 3715,1825 L 3722,1835 L 3728,1847 L 3731,1859 L 3758,1859 L 3759,1859 L 3763,1861 L 3850,1947 L 4676,1947 L 5035,1589 L 5033,1585 L 5030,1577 L 5029,1569 L 5030,1561 L 5033,1553 L 5037,1546 L 5042,1539 L 5049,1535 L 5057,1531 L 5065,1530 L 5073,1530 L 5081,1531 L 5088,1535 L 5095,1539 L 5101,1546 L 5105,1553 L 5107,1561 L 5108,1569 L 5107,1577 L 5105,1585 L 5101,1592 L 5095,1598 L 5088,1603 L 5081,1606 L 5073,1608 L 5065,1608 L 5057,1606 L 5049,1603 L 4687,1964 L 4684,1966 L 4682,1967 L 3846,1967 L 3842,1966 L 3839,1964 L 3753,1879 L 3731,1879 L 3730,1884 L 3725,1896 L 3719,1907 L 3710,1916 L 3700,1924 L 3688,1929 L 3675,1931 L 3669,1932 L 3656,1930 L 3644,1927 L 3633,1920 L 3623,1912 L 3616,1902 L 3610,1891 L 3607,1879 L 3584,1879 L 3330,2133 L 3327,2135 L 3325,2136 L 2316,2136 L 2214,2237 z " style="fill-opacity:1.000000;fill:rgb(84,17,14);stroke:rgb(0,0,0);stroke-width:2"/></g>
<g fill-rule="evenodd"><path d="M 1937,1806 L 1937,1828 L 1957,1847 L 2452,1847 L 2452,703 L 2296,548 L 2061,548 L 2061,687 L 2060,691 L 2059,692 L 1815,938 L 1820,946 L 1823,957 L 1824,969 L 1823,980 L 1820,991 L 1814,1001 L 1806,1010 L 1797,1017 L 1786,1021 L 1775,1024 L 1764,1024 L 1752,1021 L 1742,1017 L 1732,1010 L 1725,1001 L 1719,991 L 1715,980 L 1714,969 L 1715,957 L 1719,946 L 1725,936 L 1732,928 L 1742,921 L 1752,916 L 1764,914 L 1775,914 L 1786,916 L 1797,921 L 1801,924 L 2041,683 L 2041,542 L 1995,495 L 1727,495 L 1595,627 L 1594,628 L 1590,629 L 1564,629 L 1564,639 L 1474,639 L 1474,599 L 1564,599 L 1564,609 L 1586,609 L 1716,479 L 1720,476 L 1721,476 L 1999,476 L 2003,476 L 2006,479 L 2055,528 L 2296,528 L 2318,506 L 2312,495 L 2308,482 L 2306,469 L 2308,456 L 2312,443 L 2318,432 L 2327,422 L 2338,414 L 2350,409 L 2363,406 L 2376,406 L 2389,409 L 2401,414 L 2411,422 L 2420,432 L 2427,443 L 2431,456 L 2432,469 L 2431,482 L 2427,495 L 2420,506 L 2411,516 L 2401,524 L 2389,529 L 2376,532 L 2363,532 L 2350,529 L 2338,524 L 2332,520 L 2314,538 L 2468,692 L 2470,693 L 2471,697 L 2471,1847 L 3298,1847 L 3570,1576 L 3570,1425 L 3571,1421 L 3573,1418 L 3640,1350 L 3643,1348 L 3645,1348 L 3659,1348 L 3659,1331 L 3656,1330 L 3644,1327 L 3633,1320 L 3623,1312 L 3616,1302 L 3610,1291 L 3607,1278 L 3606,1266 L 3608,1253 L 3612,1241 L 3619,1230 L 3628,1221 L 3638,1214 L 3650,1209 L 3663,1206 L 3669,1206 L 3682,1207 L 3694,1211 L 3705,1217 L 3715,1225 L 3722,1235 L 3728,1247 L 3731,1259 L 3732,1272 L 3730,1285 L 3725,1297 L 3719,1307 L 3710,1317 L 3700,1324 L 3688,1329 L 3679,1331 L 3679,1357 L 3678,1361 L 3676,1364 L 3673,1366 L 3671,1367 L 3651,1367 L 3590,1429 L 3590,1570 L 4259,1570 L 4259,1531 L 4256,1530 L 4244,1527 L 4233,1520 L 4223,1512 L 4215,1502 L 4210,1491 L 4207,1478 L 4206,1466 L 4208,1453 L 4212,1441 L 4219,1430 L 4228,1421 L 4238,1414 L 4250,1409 L 4262,1406 L 4269,1406 L 4282,1407 L 4294,1411 L 4305,1417 L 4314,1425 L 4322,1435 L 4328,1447 L 4331,1459 L 4332,1472 L 4330,1485 L 4325,1496 L 4319,1507 L 4310,1517 L 4299,1524 L 4288,1529 L 4279,1531 L 4279,1607 L 4282,1607 L 4294,1611 L 4305,1617 L 4314,1625 L 4322,1635 L 4328,1647 L 4331,1659 L 4332,1672 L 4330,1685 L 4325,1696 L 4319,1707 L 4310,1717 L 4299,1724 L 4288,1729 L 4275,1731 L 4269,1732 L 4256,1730 L 4244,1727 L 4233,1720 L 4223,1712 L 4215,1702 L 4210,1691 L 4207,1678 L 4206,1666 L 4208,1653 L 4212,1641 L 4219,1630 L 4228,1621 L 4238,1614 L 4250,1609 L 4259,1607 L 4259,1590 L 3584,1590 L 3309,1864 L 3306,1866 L 3304,1867 L 1957,1867 L 1696,2128 L 1696,2298 L 1740,2341 L 2199,2341 L 2258,2282 L 2258,2245 L 2258,2243 L 2259,2240 L 2323,2176 L 2326,2174 L 2330,2173 L 2782,2173 L 2784,2174 L 2787,2176 L 2835,2224 L 2838,2221 L 2849,2216 L 2860,2214 L 2872,2214 L 2883,2216 L 2894,2221 L 2903,2228 L 2911,2236 L 2916,2246 L 2920,2257 L 2921,2269 L 2920,2280 L 2916,2291 L 2911,2301 L 2903,2310 L 2894,2316 L 2883,2321 L 2872,2323 L 2860,2323 L 2849,2321 L 2838,2316 L 2829,2310 L 2821,2301 L 2816,2291 L 2812,2280 L 2811,2269 L 2812,2257 L 2816,2246 L 2821,2237 L 2776,2193 L 2334,2193 L 2277,2249 L 2277,2286 L 2277,2290 L 2276,2292 L 2210,2358 L 2207,2360 L 2205,2360 L 1735,2361 L 1732,2360 L 1730,2359 L 1679,2309 L 1677,2306 L 1677,2304 L 1677,2122 L 1677,2120 L 1679,2117 L 1939,1857 L 1921,1839 L 1918,1836 L 1918,1832 L 1918,1806 L 1903,1803 L 1884,1796 L 1867,1786 L 1853,1772 L 1842,1756 L 1834,1738 L 1830,1718 L 1829,1629 L 1831,1610 L 1837,1591 L 1847,1573 L 1860,1558 L 1876,1546 L 1893,1537 L 1913,1532 L 1933,1531 L 1952,1534 L 1971,1541 L 1988,1552 L 2002,1565 L 2014,1582 L 2021,1600 L 2025,1619 L 2026,1708 L 2024,1728 L 2018,1747 L 2008,1764 L 1995,1779 L 1980,1792 L 1962,1800 L 1942,1805 L 1937,1806 z " style="fill-opacity:1.000000;fill:rgb(130,116,65);stroke:rgb(0,0,0);stroke-width:2"/></g>
<g fill-rule="evenodd"><path d="M 1921,600 L 1916,591 L 1912,580 L 1911,569 L 1912,557 L 1916,547 L 1922,537 L 1929,528 L 1939,521 L 1949,517 L 1960,514 L 1972,514 L 1983,517 L 1994,521 L 2003,528 L 2011,537 L 2016,547 L 2020,557 L 2021,569 L 2020,580 L 2016,591 L 2011,601 L 2003,610 L 1994,617 L 1983,621 L 1972,624 L 1960,624 L 1949,621 L 1939,617 L 1935,614 L 1722,827 L 1720,828 L 1716,829 L 1564,829 L 1564,839 L 1474,839 L 1474,799 L 1564,799 L 1564,809 L 1712,809 L 1921,600 z " style="fill-opacity:1.000000;fill:rgb(33,61,220);stroke:rgb(0,0,0);stroke-width:2"/></g>
<g fill-rule="evenodd"><path d="M 1474,709 L 1474,699 L 1564,699 L 1564,739 L 1474,739 L 1474,729 L 1447,729 L 1443,727 L 1441,724 L 1439,721 L 1439,719 L 1439,582 L 1440,580 L 1442,577 L 1649,369 L 1652,367 L 1656,367 L 2411,367 L 2413,367 L 2416,369 L 2617,570 L 4092,570 L 4095,571 L 4099,573 L 4184,659 L 4207,659 L 4208,653 L 4212,641 L 4219,630 L 4228,621 L 4238,614 L 4250,609 L 4262,606 L 4269,606 L 4282,607 L 4294,611 L 4305,617 L 4314,626 L 4322,636 L 4328,647 L 4331,659 L 4332,672 L 4330,685 L 4325,697 L 4319,707 L 4310,717 L 4299,724 L 4288,729 L 4275,732 L 4269,732 L 4256,731 L 4244,727 L 4233,721 L 4223,712 L 4215,702 L 4210,691 L 4207,679 L 4180,679 L 4176,678 L 4175,677 L 4088,590 L 2611,590 L 2608,589 L 2606,587 L 2405,386 L 1660,386 L 1459,588 L 1459,709 L 1474,709 z " style="fill-opacity:1.000000;fill:rgb(135,112,233);stroke:rgb(0,0,0);stroke-width:2"/></g>
<g fill-rule="evenodd"><path d="M 2979,1307 L 2982,1307 L 2994,1311 L 3005,1317 L 3015,1325 L 3023,1335 L 3028,1347 L 3031,1359 L 3032,1372 L 3030,1385 L 3026,1397 L 3019,1407 L 3010,1417 L 3000,1424 L 2988,1429 L 2975,1431 L 2969,1432 L 2956,1430 L 2944,1427 L 2933,1420 L 2923,1412 L 2916,1402 L 2910,1391 L 2907,1378 L 2906,1366 L 2908,1353 L 2913,1341 L 2919,1330 L 2928,1321 L 2939,1314 L 2950,1309 L 2959,1307 L 2959,1131 L 2956,1131 L 2944,1127 L 2933,1121 L 2923,1112 L 2916,1102 L 2910,1091 L 2907,1078 L 2906,1066 L 2908,1053 L 2913,1041 L 2919,1030 L 2928,1021 L 2939,1014 L 2950,1009 L 2963,1006 L 2969,1006 L 2982,1007 L 2994,1011 L 3005,1017 L 3015,1025 L 3023,1036 L 3028,1047 L 3031,1059 L 3054,1059 L 3139,973 L 3143,971 L 3146,970 L 4065,970 L 4175,861 L 4178,859 L 4180,859 L 4207,859 L 4208,853 L 4212,841 L 4219,830 L 4228,821 L 4238,814 L 4250,809 L 4262,806 L 4269,806 L 4282,807 L 4294,811 L 4305,817 L 4314,825 L 4322,836 L 4328,847 L 4331,859 L 4332,872 L 4330,885 L 4325,897 L 4319,907 L 4310,917 L 4299,924 L 4288,929 L 4275,932 L 4269,932 L 4256,931 L 4244,927 L 4233,921 L 4223,912 L 4215,902 L 4210,891 L 4207,879 L 4184,879 L 4076,987 L 4073,989 L 4071,990 L 3150,990 L 3065,1076 L 3061,1078 L 3058,1079 L 3031,1079 L 3030,1085 L 3026,1097 L 3019,1107 L 3010,1117 L 3000,1124 L 2988,1129 L 2979,1131 L 2979,1307 z " style="fill-opacity:1.000000;fill:rgb(62,161,65);stroke:rgb(0,0,0);stroke-width:2"/></g>
<g fill-rule="evenodd"><path d="M 2979,1707 L 2982,1707 L 2994,1711 L 3005,1717 L 3015,1725 L 3023,1735 L 3028,1747 L 3031,1759 L 3032,1772 L 3030,1784 L 3026,1796 L 3019,1807 L 3010,1816 L 3000,1824 L 2988,1829 L 2975,1831 L 2969,1832 L 2956,1830 L 2944,1827 L 2933,1820 L 2923,1812 L 2916,1802 L 2910,1791 L 2907,1778 L 2906,1766 L 2908,1753 L 2913,1741 L 2919,1730 L 2928,1721 L 2939,1714 L 2950,1709 L 2959,1707 L 2959,1680 L 2960,1676 L 2962,1673 L 3045,1590 L 2873,1418 L 2871,1415 L 2871,1413 L 2870,946 L 2871,943 L 2873,939 L 2959,853 L 2959,831 L 2956,831 L 2944,827 L 2933,821 L 2923,812 L 2916,802 L 2910,791 L 2907,778 L 2906,766 L 2908,753 L 2913,741 L 2919,730 L 2928,721 L 2939,714 L 2950,709 L 2963,706 L 2969,706 L 2982,707 L 2994,711 L 3005,717 L 3015,726 L 3023,736 L 3028,747 L 3031,759 L 3032,772 L 3030,785 L 3026,797 L 3019,807 L 3010,817 L 3000,824 L 2988,829 L 2979,831 L 2979,857 L 2978,861 L 2977,863 L 2890,950 L 2890,1407 L 3059,1576 L 3480,1156 L 3483,1153 L 3487,1153 L 4082,1153 L 4175,1061 L 4178,1059 L 4180,1059 L 4207,1059 L 4208,1053 L 4212,1041 L 4219,1030 L 4228,1021 L 4238,1014 L 4250,1009 L 4262,1006 L 4269,1006 L 4282,1007 L 4294,1011 L 4305,1017 L 4314,1025 L 4322,1036 L 4328,1047 L 4331,1059 L 4332,1072 L 4330,1085 L 4325,1097 L 4319,1107 L 4310,1117 L 4299,1124 L 4288,1129 L 4275,1132 L 4269,1132 L 4256,1131 L 4244,1127 L 4233,1121 L 4223,1112 L 4215,1102 L 4210,1091 L 4207,1079 L 4184,1079 L 4093,1170 L 4090,1172 L 4088,1172 L 3491,1172 L 2979,1684 L 2979,1707 z " style="fill-opacity:1.000000;fill:rgb(225,252,103);stroke:rgb(0,0,0);stroke-width:2"/></g>
<g fill-rule="evenodd"><path d="M 3606,59 L 3606,6 L 3732,6 L 3732,132 L 3606,132 L 3606,79 L 3462,79 L 3063,477 L 3061,478 L 3058,479 L 3031,479 L 3030,485 L 3026,497 L 3019,508 L 3010,517 L 3000,524 L 2988,529 L 2975,532 L 2969,532 L 2956,531 L 2944,527 L 2933,521 L 2923,512 L 2916,502 L 2910,491 L 2907,479 L 2906,466 L 2908,453 L 2913,441 L 2919,430 L 2928,421 L 2939,414 L 2950,409 L 2963,406 L 2969,406 L 2982,407 L 2994,411 L 3005,417 L 3015,426 L 3023,436 L 3028,447 L 3031,459 L 3054,459 L 3452,61 L 3456,59 L 3458,59 L 3606,59 z " style="fill-opacity:1.000000;fill:rgb(62,1,126);stroke:rgb(0,0,0);stroke-width:2"/></g>
<g fill-rule="evenodd"><path d="M 4974,1059 L 4974,974 L 5163,974 L 5163,1163 L 4974,1163 L 4974,1079 L 4949,1079 L 4945,1078 L 4942,1076 L 4350,485 L 4348,481 L 4348,479 L 4331,479 L 4330,485 L 4325,497 L 4319,508 L 4310,517 L 4299,524 L 4288,529 L 4275,532 L 4269,532 L 4256,531 L 4244,527 L 4233,521 L 4223,512 L 4215,502 L 4210,491 L 4207,479 L 4206,466 L 4208,453 L 4212,441 L 4219,430 L 4228,421 L 4238,414 L 4250,409 L 4262,406 L 4269,406 L 4282,407 L 4294,411 L 4305,417 L 4314,426 L 4322,436 L 4328,447 L 4331,459 L 4357,459 L 4361,460 L 4364,462 L 4367,465 L 4367,467 L 4367,474 L 4953,1059 L 4974,1059 z " style="fill-opacity:1.000000;fill:rgb(151,234,220);stroke:rgb(0,0,0);stroke-width:2"/></g>
<g fill-rule="evenodd"><path d="M 4974,359 L 4974,275 L 5163,275 L 5163,463 L 4974,463 L 4974,379 L 4455,379 L 4452,377 L 4450,376 L 4353,279 L 4331,279 L 4330,285 L 4325,297 L 4319,308 L 4310,317 L 4299,324 L 4288,329 L 4275,332 L 4269,332 L 4256,331 L 4244,327 L 4233,321 L 4223,312 L 4215,302 L 4210,291 L 4207,279 L 4206,266 L 4208,253 L 4212,241 L 4219,230 L 4228,221 L 4238,214 L 4250,209 L 4262,206 L 4269,206 L 4282,207 L 4294,211 L 4305,217 L 4314,226 L 4322,236 L 4328,247 L 4331,259 L 4357,259 L 4361,260 L 4364,262 L 4461,359 L 4974,359 z " style="fill-opacity:1.000000;fill:rgb(107,150,143);stroke:rgb(0,0,0);stroke-width:2"/></g>
</svg>
