<?xml version="1.0" standalone="no"?>
<!DOCTYPE svg PUBLIC "-//W3C//DTD SVG 1.1//EN"
"http://www.w3.org/Graphics/SVG/1.1/DTD/svg11.dtd">
<svg width="5615" height="3015" viewBox="0 0 5615 3015" version="1.1"
xmlns="http://www.w3.org/2000/svg"
xmlns:xlink="http://www.w3.org/1999/xlink">
<g fill-rule="evenodd"><path d="M 4406,2877 L 4393,2876 L 4392,2876 L 4379,2872 L 4378,2871 L 4367,2865 L 4365,2864 L 4356,2856 L 4355,2855 L 4347,2845 L 4346,2843 L 4340,2832 L 4340,2831 L 4337,2818 L 4336,2817 L 4336,2804 L 4336,2802 L 4338,2790 L 4338,2788 L 4343,2776 L 4343,2775 L 4350,2764 L 4351,2763 L 4360,2753 L 4361,2752 L 4372,2745 L 4373,2744 L 4385,2739 L 4386,2739 L 4399,2736 L 4400,2736 L 4406,2736 L 4407,2736 L 4420,2737 L 4422,2737 L 4434,2741 L 4435,2742 L 4446,2748 L 4448,2749 L 4457,2757 L 4458,2758 L 4466,2769 L 4467,2770 L 4473,2781 L 4473,2783 L 4476,2795 L 4477,2797 L 4477,2809 L 4477,2811 L 4475,2824 L 4475,2825 L 4471,2837 L 4470,2839 L 4463,2849 L 4462,2851 L 4453,2860 L 4452,2861 L 4442,2868 L 4440,2869 L 4429,2874 L 4427,2874 L 4415,2877 L 4413,2877 L 4407,2878 L 4406,2877 z " style="fill-opacity:1.000000;fill:rgb(103,198,105);stroke:rgb(0,0,0);stroke-width:2"/></g>
<g fill-rule="evenodd"><path d="M 3806,478 L 3793,477 L 3792,476 L 3780,473 L 3778,472 L 3767,466 L 3766,465 L 3756,457 L 3755,455 L 3747,445 L 3746,444 L 3741,433 L 3740,431 L 3737,419 L 3737,417 L 3736,404 L 3736,403 L 3738,390 L 3738,389 L 3743,377 L 3744,375 L 3750,365 L 3751,363 L 3760,354 L 3761,353 L 3772,346 L 3773,345 L 3785,340 L 3786,339 L 3799,337 L 3800,337 L 3806,336 L 3808,336 L 3820,338 L 3822,338 L 3834,342 L 3835,343 L 3847,349 L 3848,350 L 3858,358 L 3859,359 L 3866,369 L 3867,370 L 3873,382 L 3873,383 L 3877,396 L 3877,397 L 3878,410 L 3877,412 L 3875,424 L 3875,426 L 3871,438 L 3870,439 L 3863,450 L 3862,451 L 3853,460 L 3852,462 L 3842,469 L 3840,470 L 3829,475 L 3827,475 L 3815,478 L 3814,478 L 3807,478 L 3806,478 z " style="fill-opacity:1.000000;fill:rgb(115,81,255);stroke:rgb(0,0,0);stroke-width:2"/></g>
<g fill-rule="evenodd"><path d="M 4406,2678 L 4393,2676 L 4392,2676 L 4379,2672 L 4378,2671 L 4367,2665 L 4365,2664 L 4356,2656 L 4355,2655 L 4347,2645 L 4346,2644 L 4340,2632 L 4340,2631 L 4337,2618 L 4336,2617 L 4336,2604 L 4336,2602 L 4338,2590 L 4338,2588 L 4343,2576 L 4343,2575 L 4350,2564 L 4351,2563 L 4360,2554 L 4361,2552 L 4372,2545 L 4373,2544 L 4385,2539 L 4386,2539 L 4399,2536 L 4400,2536 L 4406,2536 L 4407,2536 L 4420,2537 L 4422,2538 L 4434,2541 L 4435,2542 L 4446,2548 L 4448,2549 L 4457,2557 L 4458,2559 L 4466,2569 L 4467,2570 L 4473,2581 L 4473,2583 L 4476,2595 L 4477,2597 L 4477,2610 L 4477,2611 L 4475,2624 L 4475,2625 L 4471,2637 L 4470,2639 L 4463,2649 L 4462,2651 L 4453,2660 L 4452,2661 L 4442,2668 L 4440,2669 L 4429,2674 L 4427,2675 L 4415,2677 L 4413,2677 L 4407,2678 L 4406,2678 z " style="fill-opacity:1.000000;fill:rgb(74,236,41);stroke:rgb(0,0,0);stroke-width:2"/></g>
<g fill-rule="evenodd"><path d="M 3806,678 L 3793,677 L 3792,676 L 3780,673 L 3778,672 L 3767,666 L 3766,665 L 3756,657 L 3755,655 L 3747,645 L 3746,644 L 3741,633 L 3740,631 L 3737,619 L 3737,617 L 3736,604 L 3736,603 L 3738,590 L 3738,589 L 3743,577 L 3744,575 L 3750,565 L 3751,563 L 3760,554 L 3761,553 L 3772,546 L 3773,545 L 3785,540 L 3786,539 L 3799,537 L 3800,537 L 3806,536 L 3808,536 L 3820,538 L 3822,538 L 3834,542 L 3835,542 L 3847,549 L 3848,550 L 3858,558 L 3859,559 L 3866,569 L 3867,570 L 3873,582 L 3873,583 L 3877,596 L 3877,597 L 3878,610 L 3877,612 L 3875,624 L 3875,626 L 3871,638 L 3870,639 L 3863,650 L 3862,651 L 3853,660 L 3852,661 L 3842,669 L 3840,670 L 3829,675 L 3827,675 L 3815,678 L 3814,678 L 3807,678 L 3806,678 z " style="fill-opacity:1.000000;fill:rgb(205,186,171);stroke:rgb(0,0,0);stroke-width:2"/></g>
<g fill-rule="evenodd"><path d="M 4406,2478 L 4393,2476 L 4392,2476 L 4379,2472 L 4378,2472 L 4367,2465 L 4365,2464 L 4356,2456 L 4355,2455 L 4347,2445 L 4346,2444 L 4340,2432 L 4340,2431 L 4337,2418 L 4336,2417 L 4336,2404 L 4336,2402 L 4338,2390 L 4338,2388 L 4343,2376 L 4343,2375 L 4350,2364 L 4351,2363 L 4360,2354 L 4361,2353 L 4372,2345 L 4373,2344 L 4385,2339 L 4386,2339 L 4399,2336 L 4400,2336 L 4406,2336 L 4407,2336 L 4420,2337 L 4422,2338 L 4434,2341 L 4435,2342 L 4446,2348 L 4448,2349 L 4457,2357 L 4458,2359 L 4466,2369 L 4467,2370 L 4473,2381 L 4473,2383 L 4476,2395 L 4477,2397 L 4477,2410 L 4477,2411 L 4475,2424 L 4475,2425 L 4471,2437 L 4470,2439 L 4463,2449 L 4462,2451 L 4453,2460 L 4452,2461 L 4442,2468 L 4440,2469 L 4429,2474 L 4427,2475 L 4415,2477 L 4413,2477 L 4407,2478 L 4406,2478 z " style="fill-opacity:1.000000;fill:rgb(242,251,227);stroke:rgb(0,0,0);stroke-width:2"/></g>
<g fill-rule="evenodd"><path d="M 3806,878 L 3793,877 L 3792,876 L 3780,873 L 3778,872 L 3767,866 L 3766,865 L 3756,857 L 3755,855 L 3747,845 L 3746,844 L 3741,833 L 3740,831 L 3737,819 L 3737,817 L 3736,804 L 3736,803 L 3738,790 L 3738,789 L 3743,777 L 3744,775 L 3750,764 L 3751,763 L 3760,754 L 3761,753 L 3772,746 L 3773,745 L 3785,740 L 3786,739 L 3799,737 L 3800,737 L 3806,736 L 3808,736 L 3820,738 L 3822,738 L 3834,742 L 3835,742 L 3847,749 L 3848,750 L 3858,758 L 3859,759 L 3866,769 L 3867,770 L 3873,782 L 3873,783 L 3877,796 L 3877,797 L 3878,810 L 3877,812 L 3875,824 L 3875,826 L 3871,838 L 3870,839 L 3863,850 L 3862,851 L 3853,860 L 3852,861 L 3842,869 L 3840,869 L 3829,874 L 3827,875 L 3815,878 L 3814,878 L 3807,878 L 3806,878 z " style="fill-opacity:1.000000;fill:rgb(70,124,194);stroke:rgb(0,0,0);stroke-width:2"/></g>
<g fill-rule="evenodd"><path d="M 4406,2278 L 4393,2276 L 4392,2276 L 4379,2272 L 4378,2272 L 4367,2265 L 4365,2264 L 4356,2256 L 4355,2255 L 4347,2245 L 4346,2244 L 4340,2232 L 4340,2231 L 4337,2218 L 4336,2217 L 4336,2204 L 4336,2202 L 4338,2190 L 4338,2188 L 4343,2176 L 4343,2175 L 4350,2164 L 4351,2163 L 4360,2154 L 4361,2153 L 4372,2145 L 4373,2145 L 4385,2140 L 4386,2139 L 4399,2136 L 4400,2136 L 4406,2136 L 4407,2136 L 4420,2137 L 4422,2138 L 4434,2141 L 4435,2142 L 4446,2148 L 4448,2149 L 4457,2157 L 4458,2159 L 4466,2169 L 4467,2170 L 4473,2181 L 4473,2183 L 4476,2195 L 4477,2197 L 4477,2210 L 4477,2211 L 4475,2224 L 4475,2225 L 4471,2237 L 4470,2239 L 4463,2250 L 4462,2251 L 4453,2260 L 4452,2261 L 4442,2268 L 4440,2269 L 4429,2274 L 4427,2275 L 4415,2277 L 4413,2277 L 4407,2278 L 4406,2278 z " style="fill-opacity:1.000000;fill:rgb(84,248,27);stroke:rgb(0,0,0);stroke-width:2"/></g>
<g fill-rule="evenodd"><path d="M 3806,1078 L 3793,1077 L 3792,1076 L 3780,1073 L 3778,1072 L 3767,1066 L 3766,1065 L 3756,1056 L 3755,1055 L 3747,1045 L 3746,1044 L 3741,1032 L 3740,1031 L 3737,1019 L 3737,1017 L 3736,1004 L 3736,1003 L 3738,990 L 3738,989 L 3743,977 L 3744,975 L 3750,964 L 3751,963 L 3760,954 L 3761,953 L 3772,946 L 3773,945 L 3785,940 L 3786,939 L 3799,937 L 3800,937 L 3806,936 L 3808,936 L 3820,938 L 3822,938 L 3834,942 L 3835,942 L 3847,949 L 3848,949 L 3858,958 L 3859,959 L 3866,969 L 3867,970 L 3873,982 L 3873,983 L 3877,996 L 3877,997 L 3878,1010 L 3877,1012 L 3875,1024 L 3875,1026 L 3871,1038 L 3870,1039 L 3863,1050 L 3862,1051 L 3853,1060 L 3852,1061 L 3842,1069 L 3840,1069 L 3829,1074 L 3827,1075 L 3815,1077 L 3814,1078 L 3807,1078 L 3806,1078 z " style="fill-opacity:1.000000;fill:rgb(232,231,141);stroke:rgb(0,0,0);stroke-width:2"/></g>
<g fill-rule="evenodd"><path d="M 4406,2078 L 4393,2076 L 4392,2076 L 4379,2072 L 4378,2072 L 4367,2065 L 4365,2065 L 4356,2056 L 4355,2055 L 4347,2045 L 4346,2044 L 4340,2032 L 4340,2031 L 4337,2018 L 4336,2017 L 4336,2004 L 4336,2002 L 4338,1990 L 4338,1988 L 4343,1976 L 4343,1975 L 4350,1964 L 4351,1963 L 4360,1954 L 4361,1953 L 4372,1945 L 4373,1945 L 4385,1940 L 4386,1939 L 4399,1937 L 4400,1936 L 4406,1936 L 4407,1936 L 4420,1937 L 4422,1938 L 4434,1941 L 4435,1942 L 4446,1948 L 4448,1949 L 4457,1958 L 4458,1959 L 4466,1969 L 4467,1970 L 4473,1982 L 4473,1983 L 4476,1995 L 4477,1997 L 4477,2010 L 4477,2011 L 4475,2024 L 4475,2025 L 4471,2037 L 4470,2039 L 4463,2050 L 4462,2051 L 4453,2060 L 4452,2061 L 4442,2068 L 4440,2069 L 4429,2074 L 4427,2075 L 4415,2077 L 4413,2077 L 4407,2078 L 4406,2078 z " style="fill-opacity:1.000000;fill:rgb(118,90,46);stroke:rgb(0,0,0);stroke-width:2"/></g>
<g fill-rule="evenodd"><path d="M 3806,1278 L 3793,1277 L 3792,1276 L 3780,1272 L 3778,1272 L 3767,1266 L 3766,1265 L 3756,1256 L 3755,1255 L 3747,1245 L 3746,1244 L 3741,1232 L 3740,1231 L 3737,1219 L 3737,1217 L 3736,1204 L 3736,1203 L 3738,1190 L 3738,1189 L 3743,1177 L 3744,1175 L 3750,1164 L 3751,1163 L 3760,1154 L 3761,1153 L 3772,1146 L 3773,1145 L 3785,1140 L 3786,1139 L 3799,1137 L 3800,1137 L 3806,1136 L 3808,1136 L 3820,1138 L 3822,1138 L 3834,1142 L 3835,1142 L 3847,1149 L 3848,1149 L 3858,1158 L 3859,1159 L 3866,1169 L 3867,1170 L 3873,1182 L 3873,1183 L 3877,1196 L 3877,1197 L 3878,1210 L 3877,1211 L 3875,1224 L 3875,1226 L 3871,1238 L 3870,1239 L 3863,1250 L 3862,1251 L 3853,1260 L 3852,1261 L 3842,1269 L 3840,1269 L 3829,1274 L 3827,1275 L 3815,1277 L 3814,1278 L 3807,1278 L 3806,1278 z " style="fill-opacity:1.000000;fill:rgb(99,51,159);stroke:rgb(0,0,0);stroke-width:2"/></g>
<g fill-rule="evenodd"><path d="M 3806,2278 L 3793,2276 L 3792,2276 L 3780,2272 L 3778,2272 L 3767,2265 L 3766,2264 L 3756,2256 L 3755,2255 L 3747,2245 L 3746,2244 L 3741,2232 L 3740,2231 L 3737,2218 L 3737,2217 L 3736,2204 L 3736,2202 L 3738,2190 L 3738,2188 L 3743,2176 L 3744,2175 L 3750,2164 L 3751,2163 L 3760,2154 L 3761,2153 L 3772,2145 L 3773,2145 L 3785,2140 L 3786,2139 L 3799,2136 L 3800,2136 L 3806,2136 L 3808,2136 L 3820,2137 L 3822,2138 L 3834,2141 L 3835,2142 L 3847,2148 L 3848,2149 L 3858,2157 L 3859,2159 L 3866,2169 L 3867,2170 L 3873,2181 L 3873,2183 L 3877,2195 L 3877,2197 L 3878,2210 L 3877,2211 L 3875,2224 L 3875,2225 L 3871,2237 L 3870,2239 L 3863,2250 L 3862,2251 L 3853,2260 L 3852,2261 L 3842,2268 L 3840,2269 L 3829,2274 L 3827,2275 L 3815,2277 L 3814,2277 L 3807,2278 L 3806,2278 z " style="fill-opacity:1.000000;fill:rgb(201,154,102);stroke:rgb(0,0,0);stroke-width:2"/></g>
<g fill-rule="evenodd"><path d="M 3806,2478 L 3793,2476 L 3792,2476 L 3780,2472 L 3778,2472 L 3767,2465 L 3766,2464 L 3756,2456 L 3755,2455 L 3747,2445 L 3746,2444 L 3741,2432 L 3740,2431 L 3737,2418 L 3737,2417 L 3736,2404 L 3736,2402 L 3738,2390 L 3738,2388 L 3743,2376 L 3744,2375 L 3750,2364 L 3751,2363 L 3760,2354 L 3761,2353 L 3772,2345 L 3773,2344 L 3785,2339 L 3786,2339 L 3799,2336 L 3800,2336 L 3806,2336 L 3808,2336 L 3820,2337 L 3822,2338 L 3834,2341 L 3835,2342 L 3847,2348 L 3848,2349 L 3858,2357 L 3859,2359 L 3866,2369 L 3867,2370 L 3873,2381 L 3873,2383 L 3877,2395 L 3877,2397 L 3878,2410 L 3877,2411 L 3875,2424 L 3875,2425 L 3871,2437 L 3870,2439 L 3863,2449 L 3862,2451 L 3853,2460 L 3852,2461 L 3842,2468 L 3840,2469 L 3829,2474 L 3827,2475 L 3815,2477 L 3814,2477 L 3807,2478 L 3806,2478 z " style="fill-opacity:1.000000;fill:rgb(50,13,183);stroke:rgb(0,0,0);stroke-width:2"/></g>
<g fill-rule="evenodd"><path d="M 3806,2678 L 3793,2676 L 3792,2676 L 3780,2672 L 3778,2671 L 3767,2665 L 3766,2664 L 3756,2656 L 3755,2655 L 3747,2645 L 3746,2644 L 3741,2632 L 3740,2631 L 3737,2618 L 3737,2617 L 3736,2604 L 3736,2602 L 3738,2590 L 3738,2588 L 3743,2576 L 3744,2575 L 3750,2564 L 3751,2563 L 3760,2554 L 3761,2552 L 3772,2545 L 3773,2544 L 3785,2539 L 3786,2539 L 3799,2536 L 3800,2536 L 3806,2536 L 3808,2536 L 3820,2537 L 3822,2538 L 3834,2541 L 3835,2542 L 3847,2548 L 3848,2549 L 3858,2557 L 3859,2559 L 3866,2569 L 3867,2570 L 3873,2581 L 3873,2583 L 3877,2595 L 3877,2597 L 3878,2610 L 3877,2611 L 3875,2624 L 3875,2625 L 3871,2637 L 3870,2639 L 3863,2649 L 3862,2651 L 3853,2660 L 3852,2661 L 3842,2668 L 3840,2669 L 3829,2674 L 3827,2675 L 3815,2677 L 3814,2677 L 3807,2678 L 3806,2678 z " style="fill-opacity:1.000000;fill:rgb(49,88,163);stroke:rgb(0,0,0);stroke-width:2"/></g>
<g fill-rule="evenodd"><path d="M 3806,2877 L 3793,2876 L 3792,2876 L 3780,2872 L 3778,2871 L 3767,2865 L 3766,2864 L 3756,2856 L 3755,2855 L 3747,2845 L 3746,2843 L 3741,2832 L 3740,2831 L 3737,2818 L 3737,2817 L 3736,2804 L 3736,2802 L 3738,2790 L 3738,2788 L 3743,2776 L 3744,2775 L 3750,2764 L 3751,2763 L 3760,2753 L 3761,2752 L 3772,2745 L 3773,2744 L 3785,2739 L 3786,2739 L 3799,2736 L 3800,2736 L 3806,2736 L 3808,2736 L 3820,2737 L 3822,2737 L 3834,2741 L 3835,2742 L 3847,2748 L 3848,2749 L 3858,2757 L 3859,2758 L 3866,2769 L 3867,2770 L 3873,2781 L 3873,2783 L 3877,2795 L 3877,2797 L 3878,2809 L 3877,2811 L 3875,2824 L 3875,2825 L 3871,2837 L 3870,2839 L 3863,2849 L 3862,2851 L 3853,2860 L 3852,2861 L 3842,2868 L 3840,2869 L 3829,2874 L 3827,2874 L 3815,2877 L 3814,2877 L 3807,2878 L 3806,2877 z " style="fill-opacity:1.000000;fill:rgb(90,37,93);stroke:rgb(0,0,0);stroke-width:2"/></g>
<g fill-rule="evenodd"><path d="M 4406,278 L 4393,277 L 4392,277 L 4379,273 L 4378,272 L 4367,266 L 4365,265 L 4356,257 L 4355,256 L 4347,245 L 4346,244 L 4340,233 L 4340,231 L 4337,219 L 4336,217 L 4336,205 L 4336,203 L 4338,190 L 4338,189 L 4343,177 L 4343,175 L 4350,165 L 4351,163 L 4360,154 L 4361,153 L 4372,146 L 4373,145 L 4385,140 L 4386,140 L 4399,137 L 4400,137 L 4406,136 L 4407,137 L 4420,138 L 4422,138 L 4434,142 L 4435,143 L 4446,149 L 4448,150 L 4457,158 L 4458,159 L 4466,169 L 4467,171 L 4473,182 L 4473,183 L 4476,196 L 4477,197 L 4477,210 L 4477,212 L 4475,224 L 4475,226 L 4471,238 L 4470,239 L 4463,250 L 4462,251 L 4453,261 L 4452,262 L 4442,269 L 4440,270 L 4429,275 L 4427,275 L 4415,278 L 4413,278 L 4407,278 L 4406,278 z " style="fill-opacity:1.000000;fill:rgb(5,23,88);stroke:rgb(0,0,0);stroke-width:2"/></g>
<g fill-rule="evenodd"><path d="M 510,1782 L 510,1783 L 510,1783 L 508,1803 L 508,1804 L 507,1805 L 501,1823 L 501,1824 L 501,1825 L 491,1842 L 490,1843 L 490,1843 L 477,1858 L 475,1859 L 459,1871 L 459,1871 L 458,1872 L 440,1880 L 439,1880 L 438,1880 L 419,1884 L 417,1884 L 398,1884 L 397,1884 L 396,1884 L 377,1880 L 376,1880 L 375,1880 L 357,1872 L 356,1871 L 349,1866 L 305,1910 L 305,2255 L 349,2299 L 356,2294 L 357,2293 L 375,2285 L 376,2285 L 377,2285 L 396,2281 L 397,2281 L 398,2281 L 417,2281 L 419,2281 L 438,2285 L 439,2285 L 440,2285 L 458,2293 L 459,2294 L 475,2306 L 476,2306 L 477,2307 L 490,2322 L 490,2322 L 491,2323 L 501,2340 L 501,2341 L 501,2342 L 507,2360 L 508,2362 L 510,2382 L 510,2382 L 510,2383 L 508,2403 L 508,2404 L 507,2404 L 501,2423 L 501,2424 L 501,2425 L 491,2441 L 522,2472 L 1214,2472 L 1249,2437 L 1247,2433 L 1247,2432 L 1246,2432 L 1243,2421 L 1242,2419 L 1241,2408 L 1241,2407 L 1241,2406 L 1242,2394 L 1243,2393 L 1246,2382 L 1247,2381 L 1247,2380 L 1253,2370 L 1253,2370 L 1254,2369 L 1262,2361 L 1262,2360 L 1263,2359 L 1272,2353 L 1273,2352 L 1284,2347 L 1285,2347 L 1286,2347 L 1297,2344 L 1298,2344 L 1298,2344 L 1310,2344 L 1312,2344 L 1323,2347 L 1324,2347 L 1324,2347 L 1335,2352 L 1336,2353 L 1346,2359 L 1346,2360 L 1347,2361 L 1355,2369 L 1355,2370 L 1356,2370 L 1361,2380 L 1362,2381 L 1362,2382 L 1364,2389 L 1650,2389 L 1653,2382 L 1653,2381 L 1653,2380 L 1655,2377 L 1624,2345 L 1623,2344 L 1621,2341 L 1620,2340 L 1620,2338 L 1619,2334 L 1619,2333 L 1619,1951 L 1611,1949 L 1609,1949 L 1590,1942 L 1589,1941 L 1572,1931 L 1571,1930 L 1556,1916 L 1555,1915 L 1544,1899 L 1543,1897 L 1535,1879 L 1535,1877 L 1531,1858 L 1531,1856 L 1530,1768 L 1530,1767 L 1532,1747 L 1533,1745 L 1538,1726 L 1539,1725 L 1549,1708 L 1550,1706 L 1563,1691 L 1564,1690 L 1580,1678 L 1581,1677 L 1599,1668 L 1600,1668 L 1620,1663 L 1621,1662 L 1641,1661 L 1643,1662 L 1662,1665 L 1664,1665 L 1682,1672 L 1684,1673 L 1701,1683 L 1702,1684 L 1717,1698 L 1718,1699 L 1729,1715 L 1730,1717 L 1738,1735 L 1738,1737 L 1742,1756 L 1742,1758 L 1743,1846 L 1743,1847 L 1741,1867 L 1740,1868 L 1734,1887 L 1734,1889 L 1724,1906 L 1723,1908 L 1710,1923 L 1709,1924 L 1693,1936 L 1692,1937 L 1674,1946 L 1673,1946 L 1654,1951 L 1654,2325 L 1680,2352 L 1690,2347 L 1691,2347 L 1692,2347 L 1703,2344 L 1704,2344 L 1705,2344 L 1716,2344 L 1718,2344 L 1729,2347 L 1730,2347 L 1731,2347 L 1741,2352 L 1743,2353 L 1752,2359 L 1753,2360 L 1753,2361 L 1761,2369 L 1761,2370 L 1762,2370 L 1768,2380 L 1768,2381 L 1768,2382 L 1772,2393 L 1772,2394 L 1773,2406 L 1773,2407 L 1773,2408 L 1772,2419 L 1772,2421 L 1768,2432 L 1768,2432 L 1768,2433 L 1765,2437 L 1835,2507 L 2379,2507 L 2449,2437 L 2447,2433 L 2446,2432 L 2446,2432 L 2443,2421 L 2442,2419 L 2441,2408 L 2441,2407 L 2441,2406 L 2442,2394 L 2443,2393 L 2446,2382 L 2446,2381 L 2447,2380 L 2453,2370 L 2453,2370 L 2453,2369 L 2461,2361 L 2462,2360 L 2462,2359 L 2472,2353 L 2473,2352 L 2484,2347 L 2484,2347 L 2485,2347 L 2497,2344 L 2497,2344 L 2498,2344 L 2510,2344 L 2511,2344 L 2523,2347 L 2523,2347 L 2524,2347 L 2535,2352 L 2536,2353 L 2545,2359 L 2546,2360 L 2547,2361 L 2554,2369 L 2555,2370 L 2555,2370 L 2561,2380 L 2561,2381 L 2562,2382 L 2564,2389 L 2747,2389 L 2749,2382 L 2749,2381 L 2750,2380 L 2756,2370 L 2756,2370 L 2757,2369 L 2764,2361 L 2765,2360 L 2766,2359 L 2775,2353 L 2776,2352 L 2787,2347 L 2788,2347 L 2788,2347 L 2800,2344 L 2800,2344 L 2801,2344 L 2813,2344 L 2814,2344 L 2826,2347 L 2826,2347 L 2827,2347 L 2838,2352 L 2839,2353 L 2848,2359 L 2849,2360 L 2850,2361 L 2857,2369 L 2858,2370 L 2858,2370 L 2864,2380 L 2865,2381 L 2865,2382 L 2868,2393 L 2869,2394 L 2870,2406 L 2870,2407 L 2870,2408 L 2869,2419 L 2868,2421 L 2865,2432 L 2865,2432 L 2864,2433 L 2862,2437 L 2903,2478 L 4505,2478 L 5256,1727 L 5256,1453 L 5228,1425 L 4475,1425 L 4475,1426 L 4471,1437 L 4470,1439 L 4463,1450 L 4462,1451 L 4453,1460 L 4452,1461 L 4442,1469 L 4440,1469 L 4429,1474 L 4427,1475 L 4415,1477 L 4413,1478 L 4407,1478 L 4406,1478 L 4393,1477 L 4392,1476 L 4379,1472 L 4378,1472 L 4367,1466 L 4365,1465 L 4356,1456 L 4355,1455 L 4347,1445 L 4346,1444 L 4340,1432 L 4340,1431 L 4338,1425 L 4103,1425 L 3908,1619 L 3907,1620 L 3903,1623 L 3902,1623 L 3901,1624 L 3897,1625 L 3895,1625 L 3875,1625 L 3875,1625 L 3871,1637 L 3870,1639 L 3863,1650 L 3862,1651 L 3853,1660 L 3852,1661 L 3842,1668 L 3840,1669 L 3829,1674 L 3827,1675 L 3815,1677 L 3814,1677 L 3807,1678 L 3806,1678 L 3793,1676 L 3792,1676 L 3780,1672 L 3778,1672 L 3767,1666 L 3766,1665 L 3756,1656 L 3755,1655 L 3747,1645 L 3746,1644 L 3741,1632 L 3740,1631 L 3737,1618 L 3737,1617 L 3736,1604 L 3736,1603 L 3738,1590 L 3738,1588 L 3743,1577 L 3744,1575 L 3750,1564 L 3751,1563 L 3760,1554 L 3761,1553 L 3772,1545 L 3773,1545 L 3785,1540 L 3786,1539 L 3799,1537 L 3800,1536 L 3806,1536 L 3808,1536 L 3820,1537 L 3822,1538 L 3834,1542 L 3835,1542 L 3847,1548 L 3848,1549 L 3858,1558 L 3859,1559 L 3866,1569 L 3867,1570 L 3873,1582 L 3873,1583 L 3875,1589 L 3888,1589 L 4083,1394 L 4084,1394 L 4087,1391 L 4089,1391 L 4090,1390 L 4094,1389 L 4095,1389 L 4338,1389 L 4338,1389 L 4343,1377 L 4343,1375 L 4350,1364 L 4351,1363 L 4360,1354 L 4361,1353 L 4372,1346 L 4373,1345 L 4385,1340 L 4386,1339 L 4399,1337 L 4400,1337 L 4406,1336 L 4407,1336 L 4420,1338 L 4422,1338 L 4434,1342 L 4435,1342 L 4446,1348 L 4448,1349 L 4457,1358 L 4458,1359 L 4466,1369 L 4467,1370 L 4473,1382 L 4473,1383 L 4475,1389 L 5228,1389 L 5310,1307 L 5310,1060 L 5265,1015 L 5258,1020 L 5257,1021 L 5239,1029 L 5238,1029 L 5237,1029 L 5218,1033 L 5216,1033 L 5197,1033 L 5196,1033 L 5195,1033 L 5176,1029 L 5175,1029 L 5174,1029 L 5156,1021 L 5155,1020 L 5139,1008 L 5138,1008 L 5137,1007 L 5124,992 L 5124,992 L 5123,991 L 5113,974 L 5113,973 L 5113,972 L 5107,954 L 5106,952 L 5104,932 L 5104,931 L 5106,911 L 5107,909 L 5113,891 L 5113,890 L 5113,889 L 5123,872 L 5124,871 L 5124,871 L 5137,856 L 5139,855 L 5155,843 L 5156,843 L 5174,835 L 5175,834 L 5176,834 L 5195,830 L 5196,830 L 5197,830 L 5216,830 L 5218,830 L 5237,834 L 5238,834 L 5239,835 L 5257,843 L 5258,843 L 5265,848 L 5309,804 L 5309,359 L 5265,315 L 5258,320 L 5258,320 L 5257,321 L 5239,329 L 5238,329 L 5237,329 L 5218,333 L 5216,334 L 5197,334 L 5196,333 L 5195,333 L 5176,329 L 5175,329 L 5174,329 L 5156,321 L 5155,320 L 5139,308 L 5138,308 L 5137,307 L 5124,293 L 5124,292 L 5123,291 L 5113,274 L 5113,273 L 5113,273 L 5107,254 L 5106,252 L 5104,233 L 5104,231 L 5106,211 L 5107,210 L 5113,191 L 5113,190 L 5113,189 L 5123,172 L 5124,172 L 5124,171 L 5137,156 L 5139,155 L 5155,144 L 5156,143 L 5174,135 L 5175,134 L 5176,134 L 5195,130 L 5196,130 L 5197,130 L 5216,130 L 5218,130 L 5237,134 L 5238,134 L 5239,135 L 5257,143 L 5258,144 L 5274,155 L 5275,156 L 5275,156 L 5289,171 L 5289,172 L 5290,172 L 5300,189 L 5300,190 L 5300,191 L 5306,210 L 5307,211 L 5309,231 L 5309,232 L 5309,233 L 5307,252 L 5307,253 L 5306,254 L 5300,273 L 5300,273 L 5300,274 L 5290,290 L 5339,339 L 5340,340 L 5342,344 L 5343,345 L 5343,346 L 5344,350 L 5344,352 L 5344,811 L 5344,813 L 5343,817 L 5343,818 L 5342,820 L 5340,823 L 5339,824 L 5290,873 L 5300,889 L 5300,890 L 5300,891 L 5306,909 L 5307,911 L 5309,931 L 5309,932 L 5309,932 L 5307,952 L 5307,953 L 5306,954 L 5300,972 L 5300,973 L 5300,974 L 5290,990 L 5340,1040 L 5340,1040 L 5342,1042 L 5342,1043 L 5343,1044 L 5344,1047 L 5345,1049 L 5345,1050 L 5345,1315 L 5345,1316 L 5344,1320 L 5344,1322 L 5343,1323 L 5341,1326 L 5340,1327 L 5260,1407 L 5286,1433 L 5286,1433 L 5288,1435 L 5288,1436 L 5289,1437 L 5290,1440 L 5291,1442 L 5291,1443 L 5291,1734 L 5291,1736 L 5290,1739 L 5290,1741 L 5289,1742 L 5287,1745 L 5286,1747 L 4525,2508 L 4523,2509 L 4520,2511 L 4519,2512 L 4518,2512 L 4516,2513 L 4515,2513 L 4514,2513 L 2896,2513 L 2894,2513 L 2890,2512 L 2889,2512 L 2887,2511 L 2884,2509 L 2883,2508 L 2837,2462 L 2827,2466 L 2826,2467 L 2826,2467 L 2814,2469 L 2813,2469 L 2801,2469 L 2800,2469 L 2800,2469 L 2788,2467 L 2788,2467 L 2787,2466 L 2776,2462 L 2775,2461 L 2766,2454 L 2765,2454 L 2764,2453 L 2757,2444 L 2756,2444 L 2756,2443 L 2750,2433 L 2749,2432 L 2749,2432 L 2747,2424 L 2564,2424 L 2562,2432 L 2561,2432 L 2561,2433 L 2555,2443 L 2555,2444 L 2554,2444 L 2547,2453 L 2546,2454 L 2545,2454 L 2536,2461 L 2535,2462 L 2524,2466 L 2523,2467 L 2523,2467 L 2511,2469 L 2510,2469 L 2498,2469 L 2497,2469 L 2497,2469 L 2485,2467 L 2484,2467 L 2484,2466 L 2474,2462 L 2399,2537 L 2398,2538 L 2394,2540 L 2393,2541 L 2392,2541 L 2388,2542 L 2386,2542 L 1826,2542 L 1825,2542 L 1823,2541 L 1820,2540 L 1819,2539 L 1818,2539 L 1816,2537 L 1816,2537 L 1741,2462 L 1731,2466 L 1730,2467 L 1729,2467 L 1718,2469 L 1716,2469 L 1705,2469 L 1704,2469 L 1703,2469 L 1692,2467 L 1691,2467 L 1690,2466 L 1680,2462 L 1678,2461 L 1669,2454 L 1668,2454 L 1668,2453 L 1660,2444 L 1659,2444 L 1659,2443 L 1653,2433 L 1653,2432 L 1653,2432 L 1650,2424 L 1364,2424 L 1362,2432 L 1362,2432 L 1361,2433 L 1356,2443 L 1355,2444 L 1355,2444 L 1347,2453 L 1346,2454 L 1346,2454 L 1336,2461 L 1335,2462 L 1324,2466 L 1324,2467 L 1323,2467 L 1312,2469 L 1310,2469 L 1298,2469 L 1298,2469 L 1297,2469 L 1286,2467 L 1285,2467 L 1284,2466 L 1274,2462 L 1234,2502 L 1233,2503 L 1230,2505 L 1228,2506 L 1227,2506 L 1223,2507 L 1222,2507 L 515,2507 L 513,2507 L 509,2506 L 508,2506 L 506,2505 L 503,2503 L 502,2502 L 466,2466 L 459,2471 L 458,2471 L 440,2479 L 439,2480 L 438,2480 L 419,2484 L 417,2484 L 398,2484 L 397,2484 L 396,2484 L 377,2480 L 376,2480 L 375,2479 L 357,2471 L 356,2471 L 340,2459 L 339,2458 L 339,2458 L 325,2443 L 325,2443 L 324,2442 L 314,2425 L 314,2424 L 314,2423 L 308,2404 L 307,2403 L 305,2383 L 305,2382 L 307,2362 L 308,2360 L 314,2342 L 314,2341 L 314,2340 L 324,2324 L 275,2274 L 274,2273 L 271,2270 L 271,2269 L 271,2268 L 270,2266 L 270,2265 L 270,2264 L 270,1901 L 270,1900 L 270,1899 L 271,1897 L 271,1896 L 271,1895 L 274,1892 L 275,1890 L 324,1841 L 314,1825 L 314,1824 L 314,1823 L 308,1805 L 307,1803 L 305,1783 L 305,1782 L 307,1762 L 308,1760 L 314,1742 L 314,1741 L 314,1740 L 324,1724 L 220,1619 L 219,1618 L 216,1615 L 216,1614 L 215,1613 L 215,1611 L 215,1610 L 215,1609 L 214,907 L 201,905 L 200,904 L 200,904 L 182,896 L 180,895 L 164,884 L 164,883 L 163,883 L 150,868 L 149,867 L 149,867 L 139,850 L 139,849 L 138,848 L 132,829 L 132,828 L 130,808 L 130,806 L 132,787 L 132,785 L 138,766 L 139,766 L 139,765 L 149,748 L 149,747 L 150,746 L 163,732 L 164,731 L 180,719 L 182,718 L 200,710 L 200,710 L 201,710 L 221,706 L 221,705 L 222,705 L 242,705 L 244,706 L 263,710 L 264,710 L 264,710 L 282,718 L 284,719 L 290,724 L 340,675 L 341,674 L 344,671 L 345,671 L 347,670 L 351,670 L 352,669 L 1191,670 L 1192,670 L 1193,670 L 1195,670 L 1196,671 L 1197,671 L 1200,674 L 1201,675 L 1243,717 L 1244,717 L 1245,719 L 1246,720 L 1246,721 L 1248,724 L 1248,726 L 1248,727 L 1248,921 L 1248,922 L 1248,923 L 1248,925 L 1247,926 L 1247,927 L 1244,930 L 1243,931 L 1218,957 L 1242,981 L 1243,982 L 1243,983 L 1244,985 L 1245,986 L 1245,987 L 1246,991 L 1246,992 L 1246,1007 L 1569,1007 L 1569,926 L 1569,924 L 1570,920 L 1570,919 L 1571,917 L 1573,914 L 1574,913 L 1593,894 L 1594,893 L 1598,891 L 1599,890 L 1600,890 L 1601,889 L 1603,889 L 1604,889 L 1707,889 L 1854,741 L 1850,734 L 1850,733 L 1849,732 L 1846,721 L 1845,719 L 1844,708 L 1844,707 L 1844,706 L 1845,695 L 1846,693 L 1849,682 L 1850,682 L 1850,681 L 1856,671 L 1856,670 L 1857,670 L 1865,661 L 1865,660 L 1866,660 L 1875,653 L 1876,652 L 1887,648 L 1888,647 L 1889,647 L 1900,645 L 1901,645 L 1901,645 L 1913,645 L 1915,645 L 1926,647 L 1927,647 L 1927,648 L 1938,652 L 1939,653 L 1949,660 L 1949,660 L 1950,661 L 1958,670 L 1958,670 L 1959,671 L 1964,681 L 1965,682 L 1965,682 L 1969,693 L 1969,695 L 1970,706 L 1970,707 L 1970,708 L 1969,719 L 1969,721 L 1965,732 L 1965,733 L 1964,734 L 1959,744 L 1958,744 L 1958,745 L 1950,753 L 1949,754 L 1949,755 L 1939,761 L 1938,762 L 1927,767 L 1927,767 L 1926,767 L 1915,770 L 1913,770 L 1901,770 L 1901,770 L 1900,770 L 1889,767 L 1888,767 L 1887,767 L 1881,764 L 1727,919 L 1725,920 L 1722,922 L 1721,923 L 1719,923 L 1716,924 L 1714,924 L 1613,924 L 1604,933 L 1604,1039 L 1604,1039 L 1604,1037 L 1605,1036 L 1605,1034 L 1606,1033 L 1607,1032 L 1608,1031 L 1609,1030 L 1611,1029 L 1612,1029 L 1702,1029 L 1704,1029 L 1705,1030 L 1707,1031 L 1708,1032 L 1709,1033 L 1710,1034 L 1710,1036 L 1710,1037 L 1710,1039 L 1728,1039 L 1729,1040 L 1733,1040 L 1735,1041 L 1736,1041 L 1739,1044 L 1740,1045 L 1868,1172 L 2014,1172 L 2049,1137 L 2047,1133 L 2046,1133 L 2046,1132 L 2043,1121 L 2042,1119 L 2041,1108 L 2041,1107 L 2041,1106 L 2042,1095 L 2043,1093 L 2046,1082 L 2046,1081 L 2047,1081 L 2053,1071 L 2053,1070 L 2054,1069 L 2061,1061 L 2062,1060 L 2063,1060 L 2072,1053 L 2073,1052 L 2084,1047 L 2085,1047 L 2085,1047 L 2097,1045 L 2097,1044 L 2098,1044 L 2110,1044 L 2111,1045 L 2123,1047 L 2123,1047 L 2124,1047 L 2135,1052 L 2136,1053 L 2146,1060 L 2146,1060 L 2147,1061 L 2154,1069 L 2155,1070 L 2155,1071 L 2161,1081 L 2162,1081 L 2162,1082 L 2164,1089 L 2300,1089 L 2446,943 L 2443,937 L 2442,936 L 2442,935 L 2438,923 L 2438,921 L 2436,908 L 2436,906 L 2438,893 L 2438,892 L 2442,879 L 2442,878 L 2443,878 L 2449,866 L 2450,866 L 2450,865 L 2459,855 L 2460,854 L 2471,846 L 2472,846 L 2472,845 L 2484,840 L 2485,840 L 2486,840 L 2499,837 L 2500,837 L 2500,837 L 2514,837 L 2515,837 L 2528,840 L 2529,840 L 2530,840 L 2542,845 L 2543,846 L 2554,854 L 2554,854 L 2555,855 L 2564,865 L 2564,866 L 2565,866 L 2571,878 L 2572,878 L 2572,879 L 2576,892 L 2577,893 L 2578,906 L 2578,907 L 2578,908 L 2577,921 L 2576,922 L 2576,923 L 2572,935 L 2572,936 L 2571,937 L 2565,948 L 2564,949 L 2564,949 L 2555,959 L 2554,960 L 2543,968 L 2542,969 L 2542,969 L 2530,974 L 2529,975 L 2528,975 L 2515,977 L 2514,978 L 2500,978 L 2500,978 L 2499,977 L 2486,975 L 2485,975 L 2484,974 L 2472,969 L 2472,969 L 2471,968 L 2382,1057 L 2471,1146 L 2472,1145 L 2484,1140 L 2485,1140 L 2486,1139 L 2499,1137 L 2500,1137 L 2500,1137 L 2514,1137 L 2515,1137 L 2528,1139 L 2529,1140 L 2530,1140 L 2542,1145 L 2543,1146 L 2554,1154 L 2554,1154 L 2555,1155 L 2564,1165 L 2564,1165 L 2565,1166 L 2571,1178 L 2572,1178 L 2572,1179 L 2576,1192 L 2577,1193 L 2578,1206 L 2578,1207 L 2578,1208 L 2577,1221 L 2576,1222 L 2576,1223 L 2572,1235 L 2572,1236 L 2571,1237 L 2565,1248 L 2564,1249 L 2564,1249 L 2555,1259 L 2554,1260 L 2543,1268 L 2542,1268 L 2542,1269 L 2530,1274 L 2529,1274 L 2528,1275 L 2515,1277 L 2514,1278 L 2500,1278 L 2500,1278 L 2499,1277 L 2486,1275 L 2485,1274 L 2484,1274 L 2472,1269 L 2471,1268 L 2460,1260 L 2460,1260 L 2459,1259 L 2450,1249 L 2450,1249 L 2449,1248 L 2443,1237 L 2442,1236 L 2442,1235 L 2438,1223 L 2438,1221 L 2436,1208 L 2436,1206 L 2438,1193 L 2438,1192 L 2442,1179 L 2442,1178 L 2443,1178 L 2446,1171 L 2357,1082 L 2320,1120 L 2318,1121 L 2315,1123 L 2314,1123 L 2313,1124 L 2311,1124 L 2310,1125 L 2309,1125 L 2164,1125 L 2162,1132 L 2162,1133 L 2161,1133 L 2155,1143 L 2155,1144 L 2154,1145 L 2147,1153 L 2146,1154 L 2146,1154 L 2136,1161 L 2135,1162 L 2124,1167 L 2123,1167 L 2123,1167 L 2111,1170 L 2110,1170 L 2098,1170 L 2097,1170 L 2097,1170 L 2085,1167 L 2085,1167 L 2084,1167 L 2074,1162 L 2034,1202 L 2033,1203 L 2030,1205 L 2028,1206 L 2027,1206 L 2023,1207 L 2022,1207 L 1860,1207 L 1859,1207 L 1855,1206 L 1854,1206 L 1852,1205 L 1849,1203 L 1848,1202 L 1721,1075 L 1710,1075 L 1710,1077 L 1710,1079 L 1710,1080 L 1709,1081 L 1708,1083 L 1707,1084 L 1705,1084 L 1704,1085 L 1702,1085 L 1612,1085 L 1611,1085 L 1609,1084 L 1608,1084 L 1607,1083 L 1606,1081 L 1605,1080 L 1605,1079 L 1604,1077 L 1604,1075 L 1587,1075 L 1585,1075 L 1581,1074 L 1580,1073 L 1579,1073 L 1575,1071 L 1574,1070 L 1573,1068 L 1571,1065 L 1570,1064 L 1570,1062 L 1569,1059 L 1569,1057 L 1569,1042 L 1246,1042 L 1246,1057 L 1246,1059 L 1245,1062 L 1244,1064 L 1244,1065 L 1242,1068 L 1241,1070 L 1239,1071 L 1236,1073 L 1235,1073 L 1233,1074 L 1230,1075 L 1228,1075 L 1210,1075 L 1210,1077 L 1210,1079 L 1210,1080 L 1209,1081 L 1208,1083 L 1207,1084 L 1205,1084 L 1204,1085 L 1202,1085 L 1112,1085 L 1111,1085 L 1109,1084 L 1108,1084 L 1107,1083 L 1106,1081 L 1105,1080 L 1105,1079 L 1105,1077 L 1105,1037 L 1105,1036 L 1105,1034 L 1106,1033 L 1107,1032 L 1108,1031 L 1109,1030 L 1111,1029 L 1112,1029 L 1202,1029 L 1204,1029 L 1205,1030 L 1207,1031 L 1208,1032 L 1209,1033 L 1210,1034 L 1210,1036 L 1210,1037 L 1210,1039 L 1210,1039 L 1210,1000 L 1196,985 L 1112,985 L 1111,985 L 1109,984 L 1108,984 L 1107,983 L 1106,982 L 1105,980 L 1105,979 L 1105,977 L 1105,937 L 1105,936 L 1105,934 L 1106,933 L 1107,932 L 1108,931 L 1109,930 L 1111,929 L 1112,929 L 1196,929 L 1213,912 L 1213,737 L 1181,705 L 359,705 L 316,749 L 325,765 L 326,766 L 326,766 L 332,785 L 332,787 L 334,806 L 334,807 L 334,808 L 332,828 L 332,828 L 332,829 L 326,848 L 326,849 L 325,850 L 315,867 L 315,867 L 314,868 L 301,883 L 300,884 L 284,895 L 283,896 L 282,896 L 264,904 L 264,904 L 263,905 L 250,907 L 250,1600 L 349,1699 L 356,1694 L 356,1694 L 357,1694 L 375,1685 L 376,1685 L 377,1685 L 396,1681 L 397,1681 L 398,1681 L 417,1681 L 419,1681 L 438,1685 L 439,1685 L 440,1685 L 458,1694 L 459,1694 L 475,1706 L 476,1706 L 477,1707 L 490,1722 L 490,1722 L 491,1723 L 501,1740 L 501,1741 L 501,1742 L 507,1760 L 508,1762 L 510,1782 L 510,1782 z " style="fill-opacity:1.000000;fill:rgb(233,94,212);stroke:rgb(0,0,0);stroke-width:2"/></g>
<g fill-rule="evenodd"><path d="M 306,2203 L 305,2203 L 305,2201 L 305,2012 L 305,2011 L 306,2010 L 306,2009 L 307,2008 L 308,2007 L 309,2006 L 310,2005 L 312,2005 L 313,2005 L 390,2005 L 390,1987 L 390,1986 L 390,1984 L 390,1983 L 391,1982 L 392,1978 L 393,1977 L 394,1976 L 510,1859 L 510,1739 L 415,1645 L 406,1645 L 404,1644 L 403,1644 L 402,1644 L 400,1643 L 399,1643 L 396,1641 L 395,1640 L 394,1638 L 392,1635 L 391,1634 L 391,1632 L 390,1629 L 390,1627 L 390,1609 L 313,1609 L 312,1609 L 310,1609 L 309,1608 L 308,1607 L 307,1606 L 306,1604 L 305,1603 L 305,1601 L 305,1413 L 305,1411 L 306,1410 L 307,1408 L 308,1407 L 309,1406 L 310,1405 L 312,1405 L 313,1405 L 390,1405 L 390,1025 L 390,1024 L 390,1023 L 391,1021 L 391,1020 L 392,1019 L 394,1016 L 395,1015 L 490,920 L 490,910 L 413,910 L 412,909 L 410,909 L 409,908 L 408,907 L 407,906 L 406,905 L 405,903 L 405,902 L 405,713 L 405,711 L 406,710 L 407,708 L 408,707 L 409,706 L 410,706 L 413,705 L 413,705 L 602,705 L 602,705 L 606,706 L 606,706 L 608,707 L 609,708 L 609,710 L 610,711 L 610,713 L 610,849 L 1069,849 L 1076,843 L 1077,842 L 1078,842 L 1082,840 L 1083,840 L 1085,840 L 1105,840 L 1105,837 L 1105,836 L 1105,834 L 1106,833 L 1107,832 L 1108,831 L 1109,830 L 1111,829 L 1112,829 L 1140,829 L 1140,785 L 1112,785 L 1111,785 L 1109,784 L 1108,784 L 1107,783 L 1106,782 L 1105,780 L 1105,779 L 1105,777 L 1105,737 L 1105,736 L 1105,734 L 1106,733 L 1107,732 L 1108,731 L 1109,730 L 1111,729 L 1112,729 L 1202,729 L 1204,729 L 1205,730 L 1206,730 L 1207,731 L 1208,732 L 1209,732 L 1209,733 L 1210,734 L 1210,736 L 1210,737 L 1210,777 L 1210,779 L 1210,780 L 1209,782 L 1208,783 L 1207,784 L 1205,784 L 1204,785 L 1202,785 L 1175,785 L 1175,829 L 1202,829 L 1204,829 L 1205,830 L 1207,831 L 1208,832 L 1209,833 L 1210,834 L 1210,836 L 1210,837 L 1210,877 L 1210,879 L 1210,880 L 1209,882 L 1208,883 L 1207,884 L 1205,884 L 1204,885 L 1202,885 L 1112,885 L 1111,885 L 1109,884 L 1108,884 L 1107,883 L 1106,882 L 1105,880 L 1105,879 L 1105,877 L 1105,875 L 1094,875 L 1088,881 L 1087,882 L 1086,882 L 1084,883 L 1083,884 L 1082,884 L 1078,885 L 1077,885 L 610,885 L 610,902 L 610,903 L 609,905 L 609,906 L 608,907 L 606,908 L 605,909 L 604,909 L 602,910 L 525,910 L 525,927 L 525,929 L 524,933 L 524,934 L 524,935 L 523,936 L 522,937 L 521,938 L 425,1035 L 425,1405 L 502,1405 L 504,1405 L 505,1405 L 506,1406 L 508,1407 L 509,1408 L 509,1410 L 510,1411 L 510,1413 L 510,1601 L 510,1603 L 509,1604 L 509,1606 L 508,1607 L 506,1608 L 505,1609 L 504,1609 L 502,1609 L 425,1609 L 425,1610 L 426,1610 L 427,1610 L 429,1610 L 430,1611 L 431,1611 L 434,1614 L 435,1615 L 541,1721 L 542,1722 L 543,1723 L 544,1725 L 544,1726 L 544,1727 L 545,1731 L 545,1732 L 545,1789 L 1101,1789 L 1101,1669 L 1101,1668 L 1102,1666 L 1102,1665 L 1103,1664 L 1105,1663 L 1106,1662 L 1107,1661 L 1109,1661 L 1306,1661 L 1307,1661 L 1309,1662 L 1310,1663 L 1311,1664 L 1312,1665 L 1313,1666 L 1314,1668 L 1314,1669 L 1314,1789 L 1324,1789 L 1486,1627 L 1487,1627 L 1490,1624 L 1492,1624 L 1493,1623 L 1497,1622 L 1498,1622 L 2489,1622 L 2489,1575 L 2486,1575 L 2485,1574 L 2484,1574 L 2472,1569 L 2471,1568 L 2460,1560 L 2460,1560 L 2459,1559 L 2450,1549 L 2450,1549 L 2449,1548 L 2443,1537 L 2442,1536 L 2442,1535 L 2438,1523 L 2438,1521 L 2436,1508 L 2436,1506 L 2438,1493 L 2438,1491 L 2442,1479 L 2442,1478 L 2443,1477 L 2449,1466 L 2450,1465 L 2450,1465 L 2459,1455 L 2460,1454 L 2471,1446 L 2472,1446 L 2472,1445 L 2484,1440 L 2485,1440 L 2486,1439 L 2499,1437 L 2500,1437 L 2500,1436 L 2514,1436 L 2515,1437 L 2528,1439 L 2529,1440 L 2530,1440 L 2542,1445 L 2543,1446 L 2554,1454 L 2554,1454 L 2555,1455 L 2564,1465 L 2564,1465 L 2565,1466 L 2571,1477 L 2572,1478 L 2572,1479 L 2576,1491 L 2577,1493 L 2578,1506 L 2578,1507 L 2578,1508 L 2577,1521 L 2576,1522 L 2576,1523 L 2572,1535 L 2572,1536 L 2571,1537 L 2565,1548 L 2564,1549 L 2564,1549 L 2555,1559 L 2554,1560 L 2543,1568 L 2542,1568 L 2542,1569 L 2530,1574 L 2529,1574 L 2528,1575 L 2525,1575 L 2525,1839 L 2528,1839 L 2529,1840 L 2530,1840 L 2542,1845 L 2543,1846 L 2554,1854 L 2554,1854 L 2555,1855 L 2564,1865 L 2564,1865 L 2565,1866 L 2571,1877 L 2572,1878 L 2572,1879 L 2576,1891 L 2577,1893 L 2578,1906 L 2578,1907 L 2578,1908 L 2577,1921 L 2576,1922 L 2576,1922 L 2572,1935 L 2572,1936 L 2571,1936 L 2565,1948 L 2564,1949 L 2564,1949 L 2555,1959 L 2554,1960 L 2543,1968 L 2542,1968 L 2542,1969 L 2530,1974 L 2529,1974 L 2528,1974 L 2515,1977 L 2514,1977 L 2500,1977 L 2500,1977 L 2499,1977 L 2486,1974 L 2485,1974 L 2484,1974 L 2472,1969 L 2471,1968 L 2460,1960 L 2460,1960 L 2459,1959 L 2450,1949 L 2450,1949 L 2449,1948 L 2443,1936 L 2442,1936 L 2442,1935 L 2438,1922 L 2438,1921 L 2436,1908 L 2436,1906 L 2438,1893 L 2438,1891 L 2442,1879 L 2442,1878 L 2443,1877 L 2449,1866 L 2450,1865 L 2450,1865 L 2459,1855 L 2460,1854 L 2471,1846 L 2472,1846 L 2472,1845 L 2484,1840 L 2485,1840 L 2486,1839 L 2489,1839 L 2489,1658 L 1506,1658 L 1344,1819 L 1343,1820 L 1340,1823 L 1338,1823 L 1337,1824 L 1333,1824 L 1331,1825 L 1314,1825 L 1314,1945 L 1314,1946 L 1313,1948 L 1312,1949 L 1311,1950 L 1310,1951 L 1309,1952 L 1307,1952 L 1306,1953 L 1125,1953 L 1125,2346 L 1126,2347 L 1128,2347 L 1138,2352 L 1140,2353 L 1149,2359 L 1150,2360 L 1150,2361 L 1158,2369 L 1158,2370 L 1159,2370 L 1165,2380 L 1165,2381 L 1165,2382 L 1169,2393 L 1169,2394 L 1170,2406 L 1170,2407 L 1170,2408 L 1169,2419 L 1169,2421 L 1165,2432 L 1165,2432 L 1165,2433 L 1159,2443 L 1158,2444 L 1158,2444 L 1150,2453 L 1150,2454 L 1149,2454 L 1140,2461 L 1138,2462 L 1128,2466 L 1127,2467 L 1126,2467 L 1115,2469 L 1113,2469 L 1102,2469 L 1101,2469 L 1100,2469 L 1089,2467 L 1088,2467 L 1087,2466 L 1077,2462 L 1075,2461 L 1066,2454 L 1065,2454 L 1065,2453 L 1057,2444 L 1056,2444 L 1056,2443 L 1050,2433 L 1050,2432 L 1050,2432 L 1046,2421 L 1046,2419 L 1044,2408 L 1044,2407 L 1044,2406 L 1046,2394 L 1046,2393 L 1050,2382 L 1050,2381 L 1050,2380 L 1056,2370 L 1056,2370 L 1057,2369 L 1065,2361 L 1065,2360 L 1066,2359 L 1075,2353 L 1077,2352 L 1087,2347 L 1088,2347 L 1089,2347 L 1090,2346 L 1090,1845 L 1090,1844 L 1090,1842 L 1090,1841 L 1090,1840 L 1092,1836 L 1093,1835 L 1094,1834 L 1101,1826 L 1101,1825 L 545,1825 L 545,1867 L 545,1868 L 544,1872 L 544,1873 L 544,1874 L 543,1876 L 542,1877 L 541,1878 L 425,1994 L 425,2005 L 502,2005 L 504,2005 L 505,2005 L 506,2006 L 508,2007 L 509,2008 L 509,2009 L 510,2011 L 510,2012 L 510,2201 L 510,2203 L 509,2204 L 509,2206 L 508,2207 L 506,2208 L 505,2209 L 504,2209 L 502,2209 L 313,2209 L 312,2209 L 310,2209 L 309,2208 L 308,2207 L 307,2206 L 306,2204 L 306,2203 z " style="fill-opacity:1.000000;fill:rgb(171,178,205);stroke:rgb(0,0,0);stroke-width:2"/></g>
<g fill-rule="evenodd"><path d="M 3392,2108 L 3706,1794 L 3707,1793 L 3710,1791 L 3711,1791 L 3713,1790 L 3717,1789 L 3718,1789 L 3738,1789 L 3738,1788 L 3743,1776 L 3744,1775 L 3750,1764 L 3751,1763 L 3760,1754 L 3761,1753 L 3772,1745 L 3773,1745 L 3785,1740 L 3786,1739 L 3799,1737 L 3800,1736 L 3806,1736 L 3808,1736 L 3820,1737 L 3822,1738 L 3834,1742 L 3835,1742 L 3847,1748 L 3848,1749 L 3858,1758 L 3859,1759 L 3866,1769 L 3867,1770 L 3873,1782 L 3873,1783 L 3875,1789 L 3895,1789 L 3896,1789 L 3898,1789 L 3899,1790 L 3900,1790 L 3904,1791 L 3905,1792 L 3906,1793 L 3991,1878 L 4811,1878 L 4963,1725 L 4960,1718 L 4960,1716 L 4959,1708 L 4959,1707 L 4959,1706 L 4960,1698 L 4960,1696 L 4963,1689 L 4963,1688 L 4964,1687 L 4968,1680 L 4968,1679 L 4969,1679 L 4974,1672 L 4975,1671 L 4982,1666 L 4983,1666 L 4984,1666 L 4991,1662 L 4992,1662 L 4993,1662 L 5001,1660 L 5002,1660 L 5002,1660 L 5011,1660 L 5012,1660 L 5020,1662 L 5021,1662 L 5022,1662 L 5029,1666 L 5030,1666 L 5031,1666 L 5037,1671 L 5039,1672 L 5044,1679 L 5045,1679 L 5045,1680 L 5049,1687 L 5050,1688 L 5050,1689 L 5052,1696 L 5053,1698 L 5054,1706 L 5054,1707 L 5054,1708 L 5053,1716 L 5052,1718 L 5050,1725 L 5050,1726 L 5049,1727 L 5045,1734 L 5045,1735 L 5044,1735 L 5039,1741 L 5037,1743 L 5031,1747 L 5030,1748 L 5029,1748 L 5022,1752 L 5021,1752 L 5020,1752 L 5012,1754 L 5011,1754 L 5002,1754 L 5002,1754 L 5001,1754 L 4993,1752 L 4992,1752 L 4991,1752 L 4988,1750 L 4830,1908 L 4829,1909 L 4826,1911 L 4825,1912 L 4823,1912 L 4819,1913 L 4818,1913 L 3984,1913 L 3982,1913 L 3979,1912 L 3977,1912 L 3976,1911 L 3973,1909 L 3971,1908 L 3888,1825 L 3875,1825 L 3875,1825 L 3871,1837 L 3870,1839 L 3863,1850 L 3862,1851 L 3853,1860 L 3852,1861 L 3842,1868 L 3840,1869 L 3829,1874 L 3827,1875 L 3815,1877 L 3814,1877 L 3807,1878 L 3806,1878 L 3793,1876 L 3792,1876 L 3780,1872 L 3778,1872 L 3767,1865 L 3766,1865 L 3756,1856 L 3755,1855 L 3747,1845 L 3746,1844 L 3741,1832 L 3740,1831 L 3738,1825 L 3725,1825 L 3412,2138 L 3411,2139 L 3407,2141 L 3406,2142 L 3405,2142 L 3403,2143 L 3402,2143 L 3401,2143 L 2195,2144 L 1962,2377 L 1964,2380 L 1965,2381 L 1965,2382 L 1969,2393 L 1969,2394 L 1970,2406 L 1970,2407 L 1970,2408 L 1969,2419 L 1969,2421 L 1965,2432 L 1965,2432 L 1964,2433 L 1959,2443 L 1958,2444 L 1958,2444 L 1950,2453 L 1949,2454 L 1949,2454 L 1939,2461 L 1938,2462 L 1927,2466 L 1927,2467 L 1926,2467 L 1915,2469 L 1913,2469 L 1901,2469 L 1901,2469 L 1900,2469 L 1889,2467 L 1888,2467 L 1887,2466 L 1876,2462 L 1875,2461 L 1866,2454 L 1865,2454 L 1865,2453 L 1857,2444 L 1856,2444 L 1856,2443 L 1850,2433 L 1850,2432 L 1849,2432 L 1846,2421 L 1845,2419 L 1844,2408 L 1844,2407 L 1844,2406 L 1845,2394 L 1846,2393 L 1849,2382 L 1850,2381 L 1850,2380 L 1856,2370 L 1856,2370 L 1857,2369 L 1865,2361 L 1865,2360 L 1866,2359 L 1875,2353 L 1876,2352 L 1887,2347 L 1888,2347 L 1889,2347 L 1900,2344 L 1901,2344 L 1901,2344 L 1913,2344 L 1915,2344 L 1926,2347 L 1927,2347 L 1927,2347 L 1937,2352 L 2176,2113 L 2177,2112 L 2180,2110 L 2181,2110 L 2182,2109 L 2184,2109 L 2185,2108 L 2186,2108 L 3392,2108 z " style="fill-opacity:1.000000;fill:rgb(198,155,180);stroke:rgb(0,0,0);stroke-width:2"/></g>
<g fill-rule="evenodd"><path d="M 3453,2247 L 3706,1994 L 3707,1993 L 3710,1991 L 3711,1991 L 3713,1990 L 3717,1989 L 3718,1989 L 3738,1989 L 3738,1988 L 3743,1976 L 3744,1975 L 3750,1964 L 3751,1963 L 3760,1954 L 3761,1953 L 3772,1945 L 3773,1945 L 3785,1940 L 3786,1939 L 3799,1937 L 3800,1936 L 3806,1936 L 3808,1936 L 3820,1937 L 3822,1938 L 3834,1941 L 3835,1942 L 3847,1948 L 3848,1949 L 3858,1958 L 3859,1959 L 3866,1969 L 3867,1970 L 3873,1982 L 3873,1983 L 3875,1989 L 3895,1989 L 3896,1989 L 3898,1989 L 3899,1990 L 3900,1990 L 3904,1991 L 3905,1992 L 3906,1993 L 3991,2078 L 4811,2078 L 5163,1725 L 5160,1718 L 5160,1716 L 5159,1708 L 5159,1707 L 5159,1706 L 5160,1698 L 5160,1696 L 5163,1689 L 5163,1688 L 5164,1687 L 5168,1680 L 5168,1679 L 5169,1679 L 5174,1672 L 5175,1671 L 5182,1666 L 5183,1666 L 5184,1666 L 5191,1662 L 5192,1662 L 5193,1662 L 5201,1660 L 5201,1660 L 5202,1660 L 5211,1660 L 5212,1660 L 5220,1662 L 5221,1662 L 5222,1662 L 5229,1666 L 5230,1666 L 5231,1666 L 5237,1671 L 5239,1672 L 5244,1679 L 5245,1679 L 5245,1680 L 5249,1687 L 5250,1688 L 5250,1689 L 5252,1696 L 5253,1698 L 5254,1706 L 5254,1707 L 5254,1708 L 5253,1716 L 5252,1718 L 5250,1725 L 5250,1726 L 5249,1727 L 5245,1734 L 5245,1735 L 5244,1735 L 5239,1741 L 5237,1743 L 5231,1747 L 5230,1748 L 5229,1748 L 5222,1752 L 5221,1752 L 5220,1752 L 5212,1754 L 5211,1754 L 5202,1754 L 5201,1754 L 5201,1754 L 5193,1752 L 5192,1752 L 5191,1752 L 5188,1750 L 4830,2108 L 4829,2109 L 4826,2111 L 4825,2112 L 4824,2112 L 4822,2113 L 4821,2113 L 4820,2113 L 3984,2113 L 3982,2113 L 3979,2112 L 3977,2112 L 3976,2111 L 3973,2109 L 3971,2108 L 3888,2025 L 3875,2025 L 3875,2025 L 3871,2037 L 3870,2039 L 3863,2050 L 3862,2051 L 3853,2060 L 3852,2061 L 3842,2068 L 3840,2069 L 3829,2074 L 3827,2075 L 3815,2077 L 3814,2077 L 3807,2078 L 3806,2078 L 3793,2076 L 3792,2076 L 3780,2072 L 3778,2072 L 3767,2065 L 3766,2065 L 3756,2056 L 3755,2055 L 3747,2045 L 3746,2044 L 3741,2032 L 3740,2031 L 3738,2025 L 3725,2025 L 3473,2277 L 3472,2278 L 3469,2280 L 3468,2280 L 3467,2281 L 3465,2281 L 3464,2282 L 3463,2282 L 2457,2282 L 2362,2377 L 2364,2380 L 2365,2381 L 2365,2382 L 2369,2393 L 2369,2394 L 2370,2406 L 2370,2407 L 2370,2408 L 2369,2419 L 2369,2421 L 2365,2432 L 2365,2432 L 2364,2433 L 2359,2443 L 2358,2444 L 2358,2444 L 2350,2453 L 2349,2454 L 2349,2454 L 2339,2461 L 2338,2462 L 2327,2466 L 2327,2467 L 2326,2467 L 2315,2469 L 2313,2469 L 2301,2469 L 2301,2469 L 2300,2469 L 2288,2467 L 2288,2467 L 2287,2466 L 2276,2462 L 2275,2461 L 2266,2454 L 2265,2454 L 2264,2453 L 2257,2444 L 2256,2444 L 2256,2443 L 2250,2433 L 2250,2432 L 2249,2432 L 2246,2421 L 2245,2419 L 2244,2408 L 2244,2407 L 2244,2406 L 2245,2394 L 2246,2393 L 2249,2382 L 2250,2381 L 2250,2380 L 2256,2370 L 2256,2370 L 2257,2369 L 2264,2361 L 2265,2360 L 2266,2359 L 2275,2353 L 2276,2352 L 2287,2347 L 2288,2347 L 2288,2347 L 2300,2344 L 2301,2344 L 2301,2344 L 2313,2344 L 2315,2344 L 2326,2347 L 2327,2347 L 2327,2347 L 2337,2352 L 2437,2252 L 2438,2251 L 2441,2249 L 2442,2248 L 2444,2248 L 2445,2247 L 2447,2247 L 2448,2247 L 3453,2247 z " style="fill-opacity:1.000000;fill:rgb(84,17,14);stroke:rgb(0,0,0);stroke-width:2"/></g>
<g fill-rule="evenodd"><path d="M 1605,781 L 1604,777 L 1604,777 L 1604,737 L 1604,737 L 1605,734 L 1606,733 L 1607,732 L 1608,731 L 1609,730 L 1611,729 L 1612,729 L 1702,729 L 1704,729 L 1705,730 L 1707,731 L 1708,732 L 1709,733 L 1710,734 L 1710,736 L 1710,737 L 1710,739 L 1721,739 L 1849,611 L 1850,610 L 1853,608 L 1854,608 L 1855,607 L 1857,607 L 1858,606 L 1859,606 L 2137,606 L 2138,606 L 2142,607 L 2144,607 L 2145,608 L 2148,610 L 2149,611 L 2196,658 L 2431,658 L 2446,643 L 2443,637 L 2442,636 L 2442,635 L 2438,623 L 2438,621 L 2436,608 L 2436,606 L 2438,593 L 2438,592 L 2442,579 L 2442,578 L 2443,578 L 2449,566 L 2450,566 L 2450,565 L 2459,555 L 2460,554 L 2471,546 L 2472,546 L 2472,545 L 2484,540 L 2485,540 L 2486,540 L 2499,537 L 2500,537 L 2500,537 L 2514,537 L 2515,537 L 2528,540 L 2529,540 L 2530,540 L 2542,545 L 2543,546 L 2554,554 L 2554,555 L 2555,555 L 2564,565 L 2564,566 L 2565,566 L 2571,578 L 2572,578 L 2572,579 L 2576,592 L 2577,593 L 2578,606 L 2578,607 L 2578,608 L 2577,621 L 2576,622 L 2576,623 L 2572,635 L 2572,636 L 2571,637 L 2565,648 L 2564,649 L 2564,650 L 2555,659 L 2554,660 L 2543,668 L 2542,669 L 2542,669 L 2530,674 L 2529,675 L 2528,675 L 2515,678 L 2514,678 L 2500,678 L 2500,678 L 2499,678 L 2486,675 L 2485,675 L 2484,674 L 2472,669 L 2471,668 L 2463,676 L 2612,825 L 2612,825 L 2614,827 L 2614,828 L 2615,829 L 2616,832 L 2617,834 L 2617,835 L 2617,1978 L 3433,1978 L 3700,1711 L 3700,1563 L 3700,1561 L 3701,1557 L 3701,1556 L 3702,1555 L 3704,1551 L 3705,1550 L 3772,1483 L 3773,1482 L 3776,1480 L 3777,1479 L 3779,1479 L 3780,1478 L 3781,1478 L 3783,1478 L 3789,1478 L 3789,1475 L 3780,1472 L 3778,1472 L 3767,1466 L 3766,1465 L 3756,1456 L 3755,1455 L 3747,1445 L 3746,1444 L 3741,1432 L 3740,1431 L 3737,1419 L 3737,1417 L 3736,1404 L 3736,1403 L 3738,1390 L 3738,1389 L 3743,1377 L 3744,1375 L 3750,1364 L 3751,1363 L 3760,1354 L 3761,1353 L 3772,1346 L 3773,1345 L 3785,1340 L 3786,1339 L 3799,1337 L 3800,1337 L 3806,1336 L 3808,1336 L 3820,1338 L 3822,1338 L 3834,1342 L 3835,1342 L 3847,1348 L 3848,1349 L 3858,1358 L 3859,1359 L 3866,1369 L 3867,1370 L 3873,1382 L 3873,1383 L 3877,1396 L 3877,1397 L 3878,1410 L 3877,1411 L 3875,1424 L 3875,1426 L 3871,1437 L 3870,1439 L 3863,1450 L 3862,1451 L 3853,1460 L 3852,1461 L 3842,1469 L 3840,1469 L 3829,1474 L 3827,1475 L 3824,1475 L 3824,1496 L 3824,1497 L 3824,1501 L 3823,1502 L 3822,1504 L 3820,1507 L 3819,1508 L 3818,1509 L 3815,1511 L 3814,1512 L 3813,1512 L 3811,1513 L 3810,1513 L 3809,1513 L 3792,1513 L 3735,1570 L 3735,1701 L 4389,1701 L 4389,1675 L 4379,1672 L 4378,1672 L 4367,1666 L 4365,1665 L 4356,1656 L 4355,1655 L 4347,1645 L 4346,1644 L 4340,1632 L 4340,1631 L 4337,1618 L 4336,1617 L 4336,1604 L 4336,1603 L 4338,1590 L 4338,1588 L 4343,1577 L 4343,1575 L 4350,1564 L 4351,1563 L 4360,1554 L 4361,1553 L 4372,1545 L 4373,1545 L 4385,1540 L 4386,1539 L 4399,1537 L 4400,1536 L 4406,1536 L 4407,1536 L 4420,1537 L 4422,1538 L 4434,1542 L 4435,1542 L 4446,1548 L 4448,1549 L 4457,1558 L 4458,1559 L 4466,1569 L 4467,1570 L 4473,1582 L 4473,1583 L 4476,1595 L 4477,1597 L 4477,1610 L 4477,1611 L 4475,1624 L 4475,1625 L 4471,1637 L 4470,1639 L 4463,1650 L 4462,1651 L 4453,1660 L 4452,1661 L 4442,1668 L 4440,1669 L 4429,1674 L 4427,1675 L 4424,1675 L 4424,1739 L 4434,1742 L 4435,1742 L 4446,1748 L 4448,1749 L 4457,1758 L 4458,1759 L 4466,1769 L 4467,1770 L 4473,1782 L 4473,1783 L 4476,1795 L 4477,1797 L 4477,1810 L 4477,1811 L 4475,1824 L 4475,1825 L 4471,1837 L 4470,1839 L 4463,1850 L 4462,1851 L 4453,1860 L 4452,1861 L 4442,1868 L 4440,1869 L 4429,1874 L 4427,1875 L 4415,1877 L 4413,1877 L 4407,1878 L 4406,1878 L 4393,1876 L 4392,1876 L 4379,1872 L 4378,1872 L 4367,1865 L 4365,1865 L 4356,1856 L 4355,1855 L 4347,1845 L 4346,1844 L 4340,1832 L 4340,1831 L 4337,1818 L 4336,1817 L 4336,1804 L 4336,1803 L 4338,1790 L 4338,1788 L 4343,1776 L 4343,1775 L 4350,1764 L 4351,1763 L 4360,1754 L 4361,1753 L 4372,1745 L 4373,1745 L 4385,1740 L 4386,1739 L 4389,1739 L 4389,1736 L 3725,1736 L 3453,2008 L 3452,2009 L 3448,2011 L 3447,2012 L 3446,2012 L 3445,2013 L 3443,2013 L 3442,2013 L 2098,2013 L 1842,2269 L 1842,2433 L 1881,2471 L 2333,2471 L 2388,2417 L 2388,2383 L 2388,2382 L 2388,2380 L 2388,2379 L 2389,2378 L 2390,2375 L 2391,2373 L 2392,2372 L 2455,2309 L 2456,2308 L 2460,2305 L 2461,2305 L 2462,2304 L 2466,2303 L 2468,2303 L 2920,2304 L 2921,2304 L 2922,2304 L 2924,2304 L 2925,2305 L 2926,2305 L 2929,2308 L 2931,2309 L 2974,2352 L 2984,2347 L 2984,2347 L 2985,2347 L 2996,2344 L 2997,2344 L 2998,2344 L 3010,2344 L 3011,2344 L 3022,2347 L 3023,2347 L 3024,2347 L 3035,2352 L 3036,2353 L 3045,2359 L 3046,2360 L 3047,2361 L 3054,2369 L 3055,2370 L 3055,2370 L 3061,2380 L 3061,2381 L 3062,2382 L 3065,2393 L 3066,2394 L 3067,2406 L 3067,2407 L 3067,2408 L 3066,2419 L 3065,2421 L 3062,2432 L 3061,2432 L 3061,2433 L 3055,2443 L 3055,2444 L 3054,2444 L 3047,2453 L 3046,2454 L 3045,2454 L 3036,2461 L 3035,2462 L 3024,2466 L 3023,2467 L 3022,2467 L 3011,2469 L 3010,2469 L 2998,2469 L 2997,2469 L 2996,2469 L 2985,2467 L 2984,2467 L 2984,2466 L 2973,2462 L 2972,2461 L 2962,2454 L 2962,2454 L 2961,2453 L 2953,2444 L 2953,2444 L 2952,2443 L 2947,2433 L 2946,2432 L 2946,2432 L 2942,2421 L 2942,2419 L 2941,2408 L 2941,2407 L 2941,2406 L 2942,2394 L 2942,2393 L 2946,2382 L 2946,2381 L 2947,2380 L 2949,2377 L 2911,2339 L 2475,2339 L 2423,2391 L 2423,2424 L 2423,2426 L 2422,2430 L 2422,2431 L 2422,2432 L 2421,2433 L 2420,2434 L 2419,2435 L 2353,2502 L 2352,2503 L 2349,2505 L 2348,2505 L 2347,2506 L 2345,2506 L 2344,2506 L 2343,2507 L 1873,2507 L 1872,2507 L 1868,2506 L 1867,2506 L 1866,2505 L 1864,2504 L 1863,2504 L 1862,2503 L 1812,2452 L 1811,2451 L 1809,2448 L 1808,2447 L 1808,2446 L 1807,2444 L 1807,2443 L 1807,2442 L 1807,2260 L 1807,2259 L 1807,2258 L 1808,2256 L 1808,2255 L 1809,2254 L 1811,2250 L 1812,2249 L 2066,1995 L 2053,1983 L 2052,1982 L 2050,1978 L 2049,1977 L 2049,1976 L 2048,1972 L 2048,1970 L 2048,1951 L 2040,1949 L 2038,1949 L 2019,1942 L 2018,1941 L 2001,1931 L 2000,1930 L 1985,1916 L 1984,1915 L 1973,1899 L 1972,1897 L 1964,1879 L 1964,1877 L 1960,1858 L 1960,1856 L 1959,1768 L 1959,1767 L 1961,1747 L 1962,1745 L 1968,1726 L 1968,1725 L 1978,1708 L 1979,1706 L 1992,1691 L 1993,1690 L 2009,1678 L 2010,1677 L 2028,1668 L 2029,1668 L 2049,1663 L 2050,1662 L 2070,1661 L 2072,1662 L 2091,1665 L 2093,1665 L 2112,1672 L 2113,1673 L 2130,1683 L 2131,1684 L 2146,1698 L 2147,1699 L 2158,1715 L 2159,1717 L 2167,1735 L 2167,1737 L 2171,1756 L 2171,1758 L 2172,1846 L 2172,1847 L 2170,1867 L 2169,1868 L 2163,1887 L 2163,1889 L 2153,1906 L 2152,1908 L 2139,1923 L 2138,1924 L 2122,1936 L 2121,1937 L 2103,1946 L 2102,1946 L 2083,1951 L 2083,1963 L 2098,1978 L 2582,1978 L 2582,845 L 2431,694 L 2207,694 L 2207,825 L 2207,827 L 2206,831 L 2206,832 L 2205,833 L 2204,834 L 2204,835 L 2203,836 L 1962,1077 L 1964,1081 L 1965,1081 L 1965,1082 L 1969,1093 L 1969,1095 L 1970,1106 L 1970,1107 L 1970,1108 L 1969,1119 L 1969,1121 L 1965,1132 L 1965,1133 L 1964,1133 L 1959,1143 L 1958,1144 L 1958,1145 L 1950,1153 L 1949,1154 L 1949,1154 L 1939,1161 L 1938,1162 L 1927,1167 L 1927,1167 L 1926,1167 L 1915,1170 L 1913,1170 L 1901,1170 L 1901,1170 L 1900,1170 L 1889,1167 L 1888,1167 L 1887,1167 L 1876,1162 L 1875,1161 L 1866,1154 L 1865,1154 L 1865,1153 L 1857,1145 L 1856,1144 L 1856,1143 L 1850,1133 L 1850,1133 L 1849,1132 L 1846,1121 L 1845,1119 L 1844,1108 L 1844,1107 L 1844,1106 L 1845,1095 L 1846,1093 L 1849,1082 L 1850,1081 L 1850,1081 L 1856,1071 L 1856,1070 L 1857,1069 L 1865,1061 L 1865,1060 L 1866,1060 L 1875,1053 L 1876,1052 L 1887,1047 L 1888,1047 L 1889,1047 L 1900,1045 L 1901,1044 L 1901,1044 L 1913,1044 L 1915,1045 L 1926,1047 L 1927,1047 L 1927,1047 L 1937,1052 L 2171,818 L 2171,683 L 2129,642 L 1869,642 L 1739,771 L 1738,772 L 1737,772 L 1735,773 L 1734,774 L 1733,774 L 1729,775 L 1728,775 L 1710,775 L 1710,777 L 1710,779 L 1710,780 L 1709,782 L 1708,783 L 1707,784 L 1705,784 L 1704,785 L 1702,785 L 1612,785 L 1611,785 L 1609,784 L 1608,784 L 1607,783 L 1606,782 L 1605,781 z " style="fill-opacity:1.000000;fill:rgb(130,116,65);stroke:rgb(0,0,0);stroke-width:2"/></g>
<g fill-rule="evenodd"><path d="M 1605,981 L 1604,977 L 1604,977 L 1604,937 L 1604,937 L 1605,935 L 1605,934 L 1606,933 L 1606,932 L 1609,930 L 1609,930 L 1611,929 L 1612,929 L 1702,929 L 1704,929 L 1705,930 L 1707,931 L 1708,932 L 1709,933 L 1710,934 L 1710,936 L 1710,937 L 1710,939 L 1847,939 L 2049,737 L 2047,734 L 2046,733 L 2046,732 L 2043,721 L 2042,719 L 2041,708 L 2041,707 L 2041,706 L 2042,695 L 2043,693 L 2046,682 L 2046,682 L 2047,681 L 2053,671 L 2053,670 L 2054,670 L 2061,661 L 2062,660 L 2063,660 L 2072,653 L 2073,652 L 2084,648 L 2085,647 L 2085,647 L 2097,645 L 2097,645 L 2098,645 L 2110,645 L 2111,645 L 2123,647 L 2123,647 L 2124,648 L 2135,652 L 2136,653 L 2146,660 L 2146,660 L 2147,661 L 2154,670 L 2155,670 L 2155,671 L 2161,681 L 2162,682 L 2162,682 L 2165,693 L 2166,695 L 2167,706 L 2167,707 L 2167,708 L 2166,719 L 2165,721 L 2162,732 L 2162,733 L 2161,734 L 2155,744 L 2155,744 L 2154,745 L 2147,753 L 2146,754 L 2146,755 L 2136,761 L 2135,762 L 2124,767 L 2123,767 L 2123,767 L 2111,770 L 2110,770 L 2098,770 L 2097,770 L 2097,770 L 2085,767 L 2085,767 L 2084,767 L 2074,762 L 1865,971 L 1864,972 L 1863,972 L 1862,973 L 1861,974 L 1859,974 L 1856,975 L 1854,975 L 1710,975 L 1710,977 L 1710,979 L 1710,980 L 1709,982 L 1708,983 L 1707,984 L 1705,984 L 1704,985 L 1702,985 L 1612,985 L 1611,985 L 1609,984 L 1608,984 L 1607,983 L 1606,982 L 1605,981 z " style="fill-opacity:1.000000;fill:rgb(33,61,220);stroke:rgb(0,0,0);stroke-width:2"/></g>
<g fill-rule="evenodd"><path d="M 2758,701 L 4229,701 L 4231,701 L 4235,702 L 4236,702 L 4238,703 L 4241,705 L 4242,706 L 4325,789 L 4338,789 L 4338,789 L 4343,777 L 4343,775 L 4350,764 L 4351,763 L 4360,754 L 4361,753 L 4372,746 L 4373,745 L 4385,740 L 4386,739 L 4399,737 L 4400,737 L 4406,736 L 4407,736 L 4420,738 L 4422,738 L 4434,742 L 4435,742 L 4446,749 L 4448,750 L 4457,758 L 4458,759 L 4466,769 L 4467,770 L 4473,782 L 4473,783 L 4476,796 L 4477,797 L 4477,810 L 4477,812 L 4475,824 L 4475,826 L 4471,838 L 4470,839 L 4463,850 L 4462,851 L 4453,860 L 4452,861 L 4442,869 L 4440,869 L 4429,874 L 4427,875 L 4415,878 L 4413,878 L 4407,878 L 4406,878 L 4393,877 L 4392,876 L 4379,873 L 4378,872 L 4367,866 L 4365,865 L 4356,857 L 4355,855 L 4347,845 L 4346,844 L 4340,833 L 4340,831 L 4338,825 L 4318,825 L 4316,825 L 4313,824 L 4312,824 L 4311,823 L 4309,822 L 4308,822 L 4307,821 L 4222,736 L 2749,736 L 2747,736 L 2746,736 L 2742,734 L 2741,734 L 2740,733 L 2739,732 L 2738,731 L 2540,532 L 1801,532 L 1604,729 L 1604,839 L 1604,839 L 1604,837 L 1605,836 L 1605,834 L 1606,833 L 1607,832 L 1608,831 L 1609,830 L 1611,829 L 1612,829 L 1702,829 L 1704,829 L 1705,830 L 1707,831 L 1708,832 L 1709,833 L 1710,834 L 1710,836 L 1710,837 L 1710,877 L 1710,879 L 1710,880 L 1709,882 L 1708,883 L 1707,884 L 1705,884 L 1704,885 L 1702,885 L 1612,885 L 1611,885 L 1609,884 L 1608,884 L 1607,883 L 1606,882 L 1605,880 L 1605,879 L 1604,877 L 1604,875 L 1585,875 L 1583,875 L 1582,874 L 1578,873 L 1577,872 L 1576,871 L 1573,868 L 1572,867 L 1571,866 L 1570,862 L 1569,861 L 1569,860 L 1569,858 L 1569,857 L 1569,720 L 1569,719 L 1570,718 L 1570,716 L 1570,715 L 1571,714 L 1573,711 L 1574,710 L 1782,502 L 1783,501 L 1786,499 L 1787,498 L 1789,498 L 1793,497 L 1794,497 L 2549,497 L 2550,497 L 2551,497 L 2553,498 L 2554,498 L 2555,499 L 2558,501 L 2560,502 L 2758,701 z " style="fill-opacity:1.000000;fill:rgb(135,112,233);stroke:rgb(0,0,0);stroke-width:2"/></g>
<g fill-rule="evenodd"><path d="M 3291,1136 L 3208,1220 L 3207,1221 L 3204,1223 L 3202,1223 L 3201,1224 L 3197,1225 L 3196,1225 L 3175,1225 L 3175,1226 L 3171,1238 L 3170,1239 L 3163,1250 L 3162,1251 L 3154,1260 L 3152,1261 L 3142,1269 L 3141,1269 L 3129,1274 L 3127,1275 L 3125,1275 L 3125,1439 L 3134,1442 L 3136,1442 L 3147,1448 L 3148,1449 L 3158,1458 L 3159,1459 L 3167,1469 L 3167,1470 L 3173,1482 L 3174,1483 L 3177,1495 L 3177,1497 L 3178,1510 L 3178,1511 L 3176,1524 L 3175,1526 L 3171,1537 L 3170,1539 L 3163,1550 L 3162,1551 L 3154,1560 L 3152,1561 L 3142,1569 L 3141,1569 L 3129,1574 L 3127,1575 L 3115,1577 L 3114,1578 L 3107,1578 L 3106,1578 L 3093,1577 L 3092,1576 L 3080,1572 L 3078,1572 L 3067,1566 L 3066,1565 L 3056,1556 L 3055,1555 L 3047,1545 L 3046,1544 L 3041,1532 L 3040,1531 L 3037,1519 L 3037,1517 L 3036,1504 L 3036,1503 L 3038,1490 L 3039,1488 L 3043,1477 L 3044,1475 L 3050,1464 L 3051,1463 L 3060,1454 L 3061,1453 L 3072,1445 L 3073,1445 L 3085,1440 L 3086,1439 L 3089,1439 L 3089,1275 L 3080,1272 L 3078,1272 L 3067,1266 L 3066,1265 L 3056,1256 L 3055,1255 L 3047,1245 L 3046,1244 L 3041,1232 L 3040,1231 L 3037,1219 L 3037,1217 L 3036,1204 L 3036,1203 L 3038,1190 L 3039,1189 L 3043,1177 L 3044,1175 L 3050,1164 L 3051,1163 L 3060,1154 L 3061,1153 L 3072,1146 L 3073,1145 L 3085,1140 L 3086,1139 L 3099,1137 L 3100,1137 L 3107,1136 L 3108,1136 L 3120,1138 L 3122,1138 L 3134,1142 L 3136,1142 L 3147,1149 L 3148,1149 L 3158,1158 L 3159,1159 L 3167,1169 L 3167,1170 L 3173,1182 L 3174,1183 L 3175,1189 L 3188,1189 L 3272,1106 L 3273,1105 L 3276,1103 L 3277,1102 L 3279,1102 L 3283,1101 L 3284,1101 L 4199,1101 L 4307,993 L 4308,992 L 4310,992 L 4313,990 L 4314,990 L 4315,990 L 4317,989 L 4318,989 L 4338,989 L 4338,989 L 4343,977 L 4343,975 L 4350,964 L 4351,963 L 4360,954 L 4361,953 L 4372,946 L 4373,945 L 4385,940 L 4386,939 L 4399,937 L 4400,937 L 4406,936 L 4407,936 L 4420,938 L 4422,938 L 4434,942 L 4435,942 L 4446,949 L 4448,949 L 4457,958 L 4458,959 L 4466,969 L 4467,970 L 4473,982 L 4473,983 L 4476,996 L 4477,997 L 4477,1010 L 4477,1012 L 4475,1024 L 4475,1026 L 4471,1038 L 4470,1039 L 4463,1050 L 4462,1051 L 4453,1060 L 4452,1061 L 4442,1069 L 4440,1069 L 4429,1074 L 4427,1075 L 4415,1077 L 4413,1078 L 4407,1078 L 4406,1078 L 4393,1077 L 4392,1076 L 4379,1073 L 4378,1072 L 4367,1066 L 4365,1065 L 4356,1056 L 4355,1055 L 4347,1045 L 4346,1044 L 4340,1032 L 4340,1031 L 4338,1025 L 4325,1025 L 4219,1131 L 4218,1132 L 4215,1134 L 4214,1135 L 4213,1135 L 4211,1136 L 4210,1136 L 4209,1136 L 3291,1136 z " style="fill-opacity:1.000000;fill:rgb(62,161,65);stroke:rgb(0,0,0);stroke-width:2"/></g>
<g fill-rule="evenodd"><path d="M 3632,1319 L 3125,1826 L 3125,1839 L 3134,1842 L 3136,1842 L 3147,1848 L 3148,1849 L 3158,1858 L 3159,1859 L 3167,1869 L 3167,1870 L 3173,1882 L 3174,1883 L 3177,1895 L 3177,1897 L 3178,1910 L 3178,1911 L 3176,1924 L 3175,1925 L 3171,1937 L 3170,1939 L 3163,1950 L 3162,1951 L 3154,1960 L 3152,1961 L 3142,1968 L 3141,1969 L 3129,1974 L 3127,1975 L 3115,1977 L 3114,1977 L 3107,1978 L 3106,1978 L 3093,1976 L 3092,1976 L 3080,1972 L 3078,1972 L 3067,1965 L 3066,1965 L 3056,1956 L 3055,1955 L 3047,1945 L 3046,1944 L 3041,1932 L 3040,1931 L 3037,1918 L 3037,1917 L 3036,1904 L 3036,1903 L 3038,1890 L 3039,1888 L 3043,1876 L 3044,1875 L 3050,1864 L 3051,1863 L 3060,1854 L 3061,1853 L 3072,1845 L 3073,1845 L 3085,1840 L 3086,1839 L 3089,1839 L 3089,1818 L 3089,1817 L 3090,1813 L 3091,1812 L 3091,1810 L 3093,1807 L 3094,1806 L 3172,1728 L 3006,1562 L 3005,1561 L 3002,1557 L 3002,1556 L 3001,1555 L 3001,1553 L 3001,1552 L 3001,1551 L 3000,1085 L 3000,1083 L 3001,1079 L 3002,1078 L 3002,1076 L 3005,1073 L 3006,1072 L 3089,988 L 3089,976 L 3080,973 L 3078,972 L 3067,966 L 3066,965 L 3056,957 L 3055,955 L 3047,945 L 3046,944 L 3041,932 L 3040,931 L 3037,919 L 3037,917 L 3036,904 L 3036,903 L 3038,890 L 3039,889 L 3043,877 L 3044,875 L 3050,864 L 3051,863 L 3060,854 L 3061,853 L 3072,846 L 3073,845 L 3085,840 L 3086,839 L 3099,837 L 3100,837 L 3107,836 L 3108,836 L 3120,838 L 3122,838 L 3134,842 L 3136,842 L 3147,849 L 3148,849 L 3158,858 L 3159,859 L 3167,869 L 3167,870 L 3173,882 L 3174,883 L 3177,896 L 3177,897 L 3178,910 L 3178,912 L 3176,924 L 3175,926 L 3171,938 L 3170,939 L 3163,950 L 3162,951 L 3154,960 L 3152,961 L 3142,969 L 3141,969 L 3129,974 L 3127,975 L 3125,976 L 3125,996 L 3124,997 L 3124,1001 L 3123,1002 L 3123,1003 L 3122,1005 L 3121,1006 L 3121,1007 L 3036,1092 L 3036,1542 L 3197,1703 L 3612,1288 L 3613,1287 L 3616,1285 L 3618,1284 L 3619,1284 L 3623,1283 L 3624,1283 L 4217,1283 L 4307,1193 L 4308,1192 L 4310,1192 L 4313,1190 L 4314,1190 L 4315,1190 L 4317,1189 L 4318,1189 L 4338,1189 L 4338,1189 L 4343,1177 L 4343,1175 L 4350,1164 L 4351,1163 L 4360,1154 L 4361,1153 L 4372,1146 L 4373,1145 L 4385,1140 L 4386,1139 L 4399,1137 L 4400,1137 L 4406,1136 L 4407,1136 L 4420,1138 L 4422,1138 L 4434,1142 L 4435,1142 L 4446,1149 L 4448,1149 L 4457,1158 L 4458,1159 L 4466,1169 L 4467,1170 L 4473,1182 L 4473,1183 L 4476,1196 L 4477,1197 L 4477,1210 L 4477,1211 L 4475,1224 L 4475,1226 L 4471,1238 L 4470,1239 L 4463,1250 L 4462,1251 L 4453,1260 L 4452,1261 L 4442,1269 L 4440,1269 L 4429,1274 L 4427,1275 L 4415,1277 L 4413,1278 L 4407,1278 L 4406,1278 L 4393,1277 L 4392,1276 L 4379,1272 L 4378,1272 L 4367,1266 L 4365,1265 L 4356,1256 L 4355,1255 L 4347,1245 L 4346,1244 L 4340,1232 L 4340,1231 L 4338,1225 L 4325,1225 L 4237,1313 L 4236,1314 L 4232,1316 L 4231,1317 L 4230,1317 L 4228,1318 L 4227,1318 L 4226,1318 L 3632,1319 z " style="fill-opacity:1.000000;fill:rgb(225,252,103);stroke:rgb(0,0,0);stroke-width:2"/></g>
<g fill-rule="evenodd"><path d="M 3188,590 L 3584,194 L 3586,193 L 3587,192 L 3590,190 L 3592,190 L 3593,190 L 3595,190 L 3595,190 L 3736,190 L 3736,144 L 3736,143 L 3737,141 L 3737,140 L 3738,139 L 3739,138 L 3741,137 L 3742,137 L 3744,136 L 3870,136 L 3871,137 L 3873,137 L 3874,138 L 3875,139 L 3876,140 L 3877,141 L 3877,143 L 3878,144 L 3878,270 L 3877,272 L 3877,273 L 3876,275 L 3875,276 L 3874,277 L 3873,278 L 3871,278 L 3870,278 L 3744,278 L 3742,278 L 3741,278 L 3739,277 L 3738,276 L 3737,275 L 3737,273 L 3736,272 L 3736,270 L 3736,225 L 3603,225 L 3207,621 L 3206,622 L 3205,622 L 3203,623 L 3202,624 L 3201,624 L 3197,625 L 3196,625 L 3175,625 L 3175,626 L 3171,638 L 3170,639 L 3163,650 L 3162,651 L 3154,660 L 3152,661 L 3142,669 L 3141,670 L 3129,675 L 3127,675 L 3115,678 L 3114,678 L 3107,678 L 3106,678 L 3093,677 L 3092,676 L 3080,673 L 3078,672 L 3067,666 L 3066,665 L 3056,657 L 3055,655 L 3047,645 L 3046,644 L 3041,633 L 3040,631 L 3037,619 L 3037,617 L 3036,604 L 3036,603 L 3038,590 L 3039,589 L 3043,577 L 3044,575 L 3050,565 L 3051,563 L 3060,554 L 3061,553 L 3072,546 L 3073,545 L 3085,540 L 3086,539 L 3099,537 L 3100,537 L 3107,536 L 3108,536 L 3120,538 L 3122,538 L 3134,542 L 3136,542 L 3147,549 L 3148,550 L 3158,558 L 3159,559 L 3167,569 L 3167,570 L 3173,582 L 3174,583 L 3175,590 L 3188,590 z " style="fill-opacity:1.000000;fill:rgb(62,1,126);stroke:rgb(0,0,0);stroke-width:2"/></g>
<g fill-rule="evenodd"><path d="M 4513,608 L 5094,1189 L 5104,1189 L 5104,1113 L 5104,1111 L 5105,1110 L 5105,1108 L 5106,1107 L 5108,1106 L 5109,1105 L 5110,1105 L 5112,1105 L 5301,1105 L 5302,1105 L 5304,1105 L 5305,1106 L 5306,1107 L 5307,1108 L 5308,1110 L 5309,1111 L 5309,1113 L 5309,1302 L 5309,1303 L 5308,1305 L 5307,1306 L 5306,1307 L 5305,1308 L 5304,1309 L 5302,1309 L 5301,1309 L 5112,1309 L 5110,1309 L 5109,1309 L 5108,1308 L 5106,1307 L 5105,1306 L 5105,1305 L 5104,1303 L 5104,1302 L 5104,1225 L 5086,1225 L 5085,1225 L 5081,1224 L 5080,1223 L 5078,1223 L 5075,1221 L 5074,1220 L 4483,628 L 4482,627 L 4480,625 L 4475,625 L 4475,626 L 4471,638 L 4470,639 L 4463,650 L 4462,651 L 4453,660 L 4452,661 L 4442,669 L 4440,670 L 4429,675 L 4427,675 L 4415,678 L 4413,678 L 4407,678 L 4406,678 L 4393,677 L 4392,676 L 4379,673 L 4378,672 L 4367,666 L 4365,665 L 4356,657 L 4355,655 L 4347,645 L 4346,644 L 4340,633 L 4340,631 L 4337,619 L 4336,617 L 4336,604 L 4336,603 L 4338,590 L 4338,589 L 4343,577 L 4343,575 L 4350,565 L 4351,563 L 4360,554 L 4361,553 L 4372,546 L 4373,545 L 4385,540 L 4386,539 L 4399,537 L 4400,537 L 4406,536 L 4407,536 L 4420,538 L 4422,538 L 4434,542 L 4435,542 L 4446,549 L 4448,550 L 4457,558 L 4458,559 L 4466,569 L 4467,570 L 4473,582 L 4473,583 L 4475,590 L 4495,590 L 4497,590 L 4500,590 L 4502,591 L 4503,592 L 4507,594 L 4508,595 L 4509,596 L 4511,599 L 4511,600 L 4512,601 L 4512,603 L 4513,604 L 4513,605 L 4513,608 z " style="fill-opacity:1.000000;fill:rgb(151,234,220);stroke:rgb(0,0,0);stroke-width:2"/></g>
<g fill-rule="evenodd"><path d="M 5308,409 L 5309,413 L 5309,413 L 5309,602 L 5309,602 L 5308,605 L 5307,606 L 5306,607 L 5305,608 L 5304,609 L 5302,609 L 5301,610 L 5112,610 L 5110,609 L 5109,609 L 5108,608 L 5106,607 L 5105,606 L 5105,605 L 5104,603 L 5104,602 L 5104,525 L 4593,525 L 4592,525 L 4590,524 L 4587,523 L 4586,522 L 4585,522 L 4583,520 L 4583,520 L 4488,425 L 4475,425 L 4475,426 L 4471,438 L 4470,439 L 4463,450 L 4462,451 L 4453,460 L 4452,462 L 4442,469 L 4440,470 L 4429,475 L 4427,475 L 4415,478 L 4413,478 L 4407,478 L 4406,478 L 4393,477 L 4392,476 L 4379,473 L 4378,472 L 4367,466 L 4365,465 L 4356,457 L 4355,455 L 4347,445 L 4346,444 L 4340,433 L 4340,431 L 4337,419 L 4336,417 L 4336,404 L 4336,403 L 4338,390 L 4338,389 L 4343,377 L 4343,375 L 4350,365 L 4351,363 L 4360,354 L 4361,353 L 4372,346 L 4373,345 L 4385,340 L 4386,339 L 4399,337 L 4400,337 L 4406,336 L 4407,336 L 4420,338 L 4422,338 L 4434,342 L 4435,343 L 4446,349 L 4448,350 L 4457,358 L 4458,359 L 4466,369 L 4467,370 L 4473,382 L 4473,383 L 4475,390 L 4495,390 L 4497,390 L 4500,390 L 4502,391 L 4503,392 L 4507,394 L 4508,395 L 4602,490 L 5104,490 L 5104,413 L 5104,411 L 5105,410 L 5105,408 L 5106,407 L 5108,406 L 5109,406 L 5110,405 L 5112,405 L 5301,405 L 5302,405 L 5304,406 L 5305,406 L 5306,407 L 5307,408 L 5308,409 z " style="fill-opacity:1.000000;fill:rgb(107,150,143);stroke:rgb(0,0,0);stroke-width:2"/></g>
</svg>
