M48
;DRILL file {KiCad 4.0.5} date Sunday, June 18, 2017 'PMt' 06:21:15 PM
;FORMAT={-:-/ absolute / metric / decimal}
FMAT,2
METRIC,TZ
T1C0.500
T2C0.700
T3C0.800
T4C1.200
T5C1.500
%
G90
G05
M71
T1
X154.94Y-139.7
X154.94Y-142.24
T2
X127.Y-126.
X127.Y-133.
X129.5Y-126.
X129.5Y-133.
X135.89Y-111.76
X138.39Y-111.76
X138.47Y-120.65
X138.47Y-134.62
X140.97Y-120.65
X140.97Y-134.62
X147.32Y-134.62
X149.82Y-134.62
T3
X147.32Y-111.76
X148.Y-120.38
X148.Y-128.
X152.Y-120.65
X152.Y-128.27
X154.94Y-111.76
X156.21Y-120.65
X156.21Y-128.27
X161.29Y-110.49
X161.29Y-113.03
X161.29Y-115.57
X161.29Y-118.11
X161.29Y-120.65
X161.29Y-123.19
X161.29Y-125.73
X161.29Y-128.27
X161.29Y-130.81
X161.29Y-133.35
X161.29Y-135.89
X161.29Y-138.43
X161.29Y-140.97
X161.29Y-143.51
X168.91Y-110.49
X168.91Y-113.03
X168.91Y-115.57
X168.91Y-118.11
X168.91Y-120.65
X168.91Y-123.19
X168.91Y-125.73
X168.91Y-128.27
X168.91Y-130.81
X168.91Y-133.35
X168.91Y-135.89
X168.91Y-138.43
X168.91Y-140.97
X168.91Y-143.51
X172.72Y-133.35
X180.34Y-133.35
T4
X113.34Y-118.11
X115.57Y-127.
X115.57Y-130.5
X115.57Y-137.16
X115.57Y-140.66
X116.84Y-118.11
X176.53Y-114.3
X176.53Y-117.8
X176.53Y-140.01
X176.53Y-143.51
T5
X123.55Y-143.
X129.Y-143.
X134.45Y-143.
T0
M30
