G04 #@! TF.FileFunction,Copper,L1,Top,Signal*
%FSLAX46Y46*%
G04 Gerber Fmt 4.6, Leading zero omitted, Abs format (unit mm)*
G04 Created by KiCad (PCBNEW 4.0.5) date Sunday, June 18, 2017 'PMt' 06:21:00 PM*
%MOMM*%
%LPD*%
G01*
G04 APERTURE LIST*
%ADD10C,1.500000*%
%ADD11C,1.400000*%
%ADD12R,1.600000X1.600000*%
%ADD13O,1.600000X1.600000*%
%ADD14C,2.400000*%
%ADD15R,2.400000X2.400000*%
%ADD16C,1.600000*%
%ADD17R,1.143000X0.508000*%
%ADD18R,2.500000X3.500000*%
%ADD19O,2.500000X3.500000*%
%ADD20C,1.000000*%
%ADD21C,0.500000*%
%ADD22C,1.000000*%
G04 APERTURE END LIST*
D10*
D11*
X129500000Y-126000000D03*
X127000000Y-126000000D03*
X127000000Y-133000000D03*
X129500000Y-133000000D03*
X135890000Y-111760000D03*
X138390000Y-111760000D03*
X149820000Y-134620000D03*
X147320000Y-134620000D03*
X138470000Y-134620000D03*
X140970000Y-134620000D03*
X138470000Y-120650000D03*
X140970000Y-120650000D03*
D12*
X161290000Y-110490000D03*
D13*
X168910000Y-143510000D03*
X161290000Y-113030000D03*
X168910000Y-140970000D03*
X161290000Y-115570000D03*
X168910000Y-138430000D03*
X161290000Y-118110000D03*
X168910000Y-135890000D03*
X161290000Y-120650000D03*
X168910000Y-133350000D03*
X161290000Y-123190000D03*
X168910000Y-130810000D03*
X161290000Y-125730000D03*
X168910000Y-128270000D03*
X161290000Y-128270000D03*
X168910000Y-125730000D03*
X161290000Y-130810000D03*
X168910000Y-123190000D03*
X161290000Y-133350000D03*
X168910000Y-120650000D03*
X161290000Y-135890000D03*
X168910000Y-118110000D03*
X161290000Y-138430000D03*
X168910000Y-115570000D03*
X161290000Y-140970000D03*
X168910000Y-113030000D03*
X161290000Y-143510000D03*
X168910000Y-110490000D03*
D14*
X113340000Y-118110000D03*
D15*
X116840000Y-118110000D03*
D14*
X115570000Y-130500000D03*
D15*
X115570000Y-127000000D03*
D14*
X115570000Y-140660000D03*
D15*
X115570000Y-137160000D03*
D14*
X176530000Y-114300000D03*
D15*
X176530000Y-117800000D03*
D14*
X176530000Y-140010000D03*
D15*
X176530000Y-143510000D03*
D16*
X148000000Y-128000000D03*
D13*
X148000000Y-120380000D03*
D16*
X147320000Y-111760000D03*
D13*
X154940000Y-111760000D03*
D16*
X152000000Y-128270000D03*
D13*
X152000000Y-120650000D03*
D16*
X172720000Y-133350000D03*
D13*
X180340000Y-133350000D03*
D16*
X156210000Y-128270000D03*
D13*
X156210000Y-120650000D03*
D17*
X131445000Y-117475000D03*
X131445000Y-118745000D03*
X131445000Y-120015000D03*
X131445000Y-121285000D03*
X125095000Y-121285000D03*
X125095000Y-120015000D03*
X125095000Y-118745000D03*
X125095000Y-117475000D03*
D18*
X123550000Y-143000000D03*
D19*
X129000000Y-143000000D03*
X134450000Y-143000000D03*
D20*
X154940000Y-139700000D03*
X154940000Y-142240000D03*
D21*
X138390000Y-111760000D02*
X137690001Y-112459999D01*
X137690001Y-112459999D02*
X137690001Y-119870001D01*
X137690001Y-119870001D02*
X137770001Y-119950001D01*
X137770001Y-119950001D02*
X138470000Y-120650000D01*
X125095000Y-122039000D02*
X125095000Y-121285000D01*
X125549999Y-122493999D02*
X125095000Y-122039000D01*
X128800001Y-130000000D02*
X125549999Y-126749998D01*
X125549999Y-126749998D02*
X125549999Y-122493999D01*
X128800001Y-130000000D02*
X128800001Y-132300001D01*
X128800001Y-126699999D02*
X128800001Y-130000000D01*
X129500000Y-126000000D02*
X128800001Y-126699999D01*
X128800001Y-132300001D02*
X129500000Y-133000000D01*
X131445000Y-121285000D02*
X131445000Y-124055000D01*
X131445000Y-124055000D02*
X129500000Y-126000000D01*
D22*
X128000000Y-117754498D02*
X128000000Y-118681500D01*
X126155501Y-115909999D02*
X128000000Y-117754498D01*
D21*
X161290000Y-128270000D02*
X166000000Y-132980000D01*
X166000000Y-132980000D02*
X166000000Y-142894002D01*
X166000000Y-142894002D02*
X168165999Y-145060001D01*
X168165999Y-145060001D02*
X171110001Y-145060001D01*
X171110001Y-145060001D02*
X172720000Y-143450002D01*
X147320000Y-134620000D02*
X150940000Y-131000000D01*
X150940000Y-131000000D02*
X158560000Y-131000000D01*
X158560000Y-131000000D02*
X160490001Y-129069999D01*
X160490001Y-129069999D02*
X161290000Y-128270000D01*
X130810000Y-142940000D02*
X133370010Y-145500010D01*
X133370010Y-145500010D02*
X135278431Y-145500010D01*
X137019999Y-143758442D02*
X137019999Y-133923999D01*
X135278431Y-145500010D02*
X137019999Y-143758442D01*
X137019999Y-133923999D02*
X137773999Y-133169999D01*
X137773999Y-133169999D02*
X139519999Y-133169999D01*
X139519999Y-133169999D02*
X140270001Y-133920001D01*
X140270001Y-133920001D02*
X140970000Y-134620000D01*
X130810000Y-142940000D02*
X130750000Y-143000000D01*
X130750000Y-143000000D02*
X129000000Y-143000000D01*
X182000000Y-135398231D02*
X182000000Y-141790002D01*
X178330001Y-145460001D02*
X174729999Y-145460001D01*
X172720000Y-134481370D02*
X172720000Y-133350000D01*
X182000000Y-141790002D02*
X178330001Y-145460001D01*
X174729999Y-145460001D02*
X172720000Y-143450002D01*
X172720000Y-143450002D02*
X172720000Y-134481370D01*
X176530000Y-114300000D02*
X177729999Y-115499999D01*
X176530000Y-114300000D02*
X182890012Y-120660012D01*
X177729999Y-115499999D02*
X177980001Y-115499999D01*
X177980001Y-115499999D02*
X176530000Y-114300000D01*
X182890012Y-120660012D02*
X182890012Y-134508219D01*
X182890012Y-134508219D02*
X182000000Y-135398231D01*
X176530000Y-140010000D02*
X176530000Y-137160000D01*
X176530000Y-137160000D02*
X172720000Y-133350000D01*
X172720000Y-133350000D02*
X172720000Y-129540000D01*
X172720000Y-129540000D02*
X168910000Y-125730000D01*
X147320000Y-111760000D02*
X146188630Y-111760000D01*
X146188630Y-111760000D02*
X138390000Y-111760000D01*
X131445000Y-121285000D02*
X137835000Y-121285000D01*
X137835000Y-121285000D02*
X138470000Y-120650000D01*
X147320000Y-134620000D02*
X140970000Y-134620000D01*
X128000000Y-118681500D02*
X128000000Y-118911500D01*
D22*
X125095000Y-120905000D02*
X125095000Y-121285000D01*
X125095000Y-120015000D02*
X125095000Y-120905000D01*
X128000000Y-118681500D02*
X126666500Y-120015000D01*
X126666500Y-120015000D02*
X125095000Y-120015000D01*
X113340000Y-118110000D02*
X113340000Y-116412944D01*
X113340000Y-116412944D02*
X113842945Y-115909999D01*
X113842945Y-115909999D02*
X126155501Y-115909999D01*
X113340000Y-118110000D02*
X113340000Y-128970002D01*
X113340000Y-128970002D02*
X113669999Y-129300001D01*
X113669999Y-129300001D02*
X114370001Y-129300001D01*
X114370001Y-129300001D02*
X115570000Y-130500000D01*
X115570000Y-130500000D02*
X113369999Y-132700001D01*
X113872944Y-140660000D02*
X115570000Y-140660000D01*
X113369999Y-132700001D02*
X113369999Y-140157055D01*
X113369999Y-140157055D02*
X113872944Y-140660000D01*
X115570000Y-143570000D02*
X117750001Y-145750001D01*
X117750001Y-145750001D02*
X126750000Y-145750000D01*
X126750000Y-145750000D02*
X129000000Y-143500000D01*
X129000000Y-143500000D02*
X129000000Y-143000000D01*
X115570000Y-140660000D02*
X115570000Y-143570000D01*
D21*
X127000000Y-126000000D02*
X127000000Y-123388500D01*
X130373500Y-120015000D02*
X131445000Y-120015000D01*
X127000000Y-123388500D02*
X130373500Y-120015000D01*
X124549988Y-130549988D02*
X124549988Y-123239988D01*
X127000000Y-133000000D02*
X124549988Y-130549988D01*
X124549988Y-123239988D02*
X122000000Y-120690000D01*
X127000000Y-133000000D02*
X128450001Y-134450001D01*
X136270000Y-128376002D02*
X136270000Y-128270000D01*
X128450001Y-134450001D02*
X130196001Y-134450001D01*
X130196001Y-134450001D02*
X136270000Y-128376002D01*
X127000000Y-133000000D02*
X118010002Y-133000000D01*
X118010002Y-133000000D02*
X117770001Y-132759999D01*
X148000000Y-128000000D02*
X151730000Y-128000000D01*
X151730000Y-128000000D02*
X152000000Y-128270000D01*
X136270000Y-128270000D02*
X136540000Y-128000000D01*
X136540000Y-128000000D02*
X148000000Y-128000000D01*
D22*
X122000000Y-118110000D02*
X124460000Y-118110000D01*
X116840000Y-118110000D02*
X122000000Y-118110000D01*
X122000000Y-118110000D02*
X122000000Y-120690000D01*
X125095000Y-117475000D02*
X125095000Y-118514990D01*
X124460000Y-118110000D02*
X125095000Y-117475000D01*
X115570000Y-127000000D02*
X115570000Y-119380000D01*
X115570000Y-119380000D02*
X116840000Y-118110000D01*
X115570000Y-137160000D02*
X115570000Y-134960000D01*
X115570000Y-134960000D02*
X117770001Y-132759999D01*
X117770001Y-132759999D02*
X117770000Y-127000000D01*
X117770000Y-127000000D02*
X115570000Y-127000000D01*
X115570000Y-137160000D02*
X117770000Y-137160000D01*
X117770000Y-137160000D02*
X123550000Y-142940000D01*
X123550000Y-142940000D02*
X123550000Y-143000000D01*
D21*
X149000000Y-112620000D02*
X149000000Y-111145998D01*
X149000000Y-111145998D02*
X148064001Y-110209999D01*
X148064001Y-110209999D02*
X137440001Y-110209999D01*
X137440001Y-110209999D02*
X136589999Y-111060001D01*
X136589999Y-111060001D02*
X135890000Y-111760000D01*
X140970000Y-120650000D02*
X149000000Y-112620000D01*
X134450000Y-140750000D02*
X134450000Y-143000000D01*
X134450000Y-135079769D02*
X134450000Y-140750000D01*
X156210000Y-128270000D02*
X154480000Y-130000000D01*
X154480000Y-130000000D02*
X139529769Y-130000000D01*
X139529769Y-130000000D02*
X134450000Y-135079769D01*
X168910000Y-128270000D02*
X168910000Y-130810000D01*
X161290000Y-125730000D02*
X166370000Y-125730000D01*
X166370000Y-125730000D02*
X168910000Y-128270000D01*
X156210000Y-128270000D02*
X158750000Y-128270000D01*
X158750000Y-128270000D02*
X161290000Y-125730000D01*
X140970000Y-120650000D02*
X142520001Y-122200001D01*
X142520001Y-122200001D02*
X150140001Y-122200001D01*
X155410001Y-127470001D02*
X156210000Y-128270000D01*
X150140001Y-122200001D02*
X155410001Y-127470001D01*
X135890000Y-111760000D02*
X135890000Y-113347500D01*
X135890000Y-113347500D02*
X131762500Y-117475000D01*
X131762500Y-117475000D02*
X131445000Y-117475000D01*
X154940000Y-139700000D02*
X154940000Y-137160000D01*
X154940000Y-137160000D02*
X161290000Y-130810000D01*
X149820000Y-134620000D02*
X154900000Y-139700000D01*
X154900000Y-139700000D02*
X154940000Y-139700000D01*
X154940000Y-142240000D02*
X156190001Y-140989999D01*
X156190001Y-140989999D02*
X156190001Y-138449999D01*
X156190001Y-138449999D02*
X160490001Y-134149999D01*
X160490001Y-134149999D02*
X161290000Y-133350000D01*
X138470000Y-134620000D02*
X146090000Y-142240000D01*
X146090000Y-142240000D02*
X154940000Y-142240000D01*
X156210000Y-115570000D02*
X161290000Y-110490000D01*
X156210000Y-120650000D02*
X156210000Y-115570000D01*
X152000000Y-120650000D02*
X152000000Y-116994002D01*
X159494001Y-109500001D02*
X159739999Y-109500001D01*
X152000000Y-116994002D02*
X159494001Y-109500001D01*
X168110001Y-122390001D02*
X168910000Y-123190000D01*
X164359966Y-118639966D02*
X168110001Y-122390001D01*
X164359966Y-110609964D02*
X164359966Y-118639966D01*
X162690001Y-108939999D02*
X164359966Y-110609964D01*
X159889999Y-108939999D02*
X162690001Y-108939999D01*
X159739999Y-109089999D02*
X159889999Y-108939999D01*
X159739999Y-109500001D02*
X159739999Y-109089999D01*
X180340000Y-133350000D02*
X179540001Y-132550001D01*
X179540001Y-132550001D02*
X179540001Y-131525999D01*
X179540001Y-131525999D02*
X171204002Y-123190000D01*
X171204002Y-123190000D02*
X170041370Y-123190000D01*
X170041370Y-123190000D02*
X168910000Y-123190000D01*
X148000000Y-120380000D02*
X148000000Y-118700000D01*
X148000000Y-118700000D02*
X154940000Y-111760000D01*
X168110001Y-119850001D02*
X168910000Y-120650000D01*
X163104219Y-107939988D02*
X165359977Y-110195746D01*
X158760012Y-107939988D02*
X163104219Y-107939988D01*
X154940000Y-111760000D02*
X158760012Y-107939988D01*
X165359977Y-110195746D02*
X165359977Y-117099977D01*
X165359977Y-117099977D02*
X168110001Y-119850001D01*
X170041370Y-120650000D02*
X168910000Y-120650000D01*
X138503998Y-107000000D02*
X157405998Y-107000000D01*
X157405998Y-107000000D02*
X157466021Y-106939977D01*
X131445000Y-118745000D02*
X130373500Y-118745000D01*
X130373500Y-118745000D02*
X130123499Y-118494999D01*
X130123499Y-118494999D02*
X130123499Y-115380499D01*
X130123499Y-115380499D02*
X138503998Y-107000000D01*
X168110001Y-117310001D02*
X168910000Y-118110000D01*
X166359988Y-115559988D02*
X168110001Y-117310001D01*
X166359988Y-109781528D02*
X166359988Y-115559988D01*
X157466021Y-106939977D02*
X163518437Y-106939977D01*
X163518437Y-106939977D02*
X166359988Y-109781528D01*
X170460001Y-113430001D02*
X170460001Y-109745999D01*
X176530000Y-117800000D02*
X174830000Y-117800000D01*
X169654001Y-108939999D02*
X168165999Y-108939999D01*
X167359999Y-109745999D02*
X167359999Y-114019999D01*
X167359999Y-114019999D02*
X168110001Y-114770001D01*
X168110001Y-114770001D02*
X168910000Y-115570000D01*
X174830000Y-117800000D02*
X170460001Y-113430001D01*
X170460001Y-109745999D02*
X169654001Y-108939999D01*
X168165999Y-108939999D02*
X167359999Y-109745999D01*
X170460001Y-115480003D02*
X170460001Y-114844230D01*
X170460001Y-114844230D02*
X168910000Y-113294229D01*
X168910000Y-113294229D02*
X168910000Y-113030000D01*
X175384003Y-119750001D02*
X174729999Y-119750001D01*
X174729999Y-119750001D02*
X170460001Y-115480003D01*
X178230000Y-143510000D02*
X180999989Y-140740011D01*
X180999989Y-140740011D02*
X180999989Y-134984013D01*
X181890001Y-127744001D02*
X181890001Y-126255999D01*
X181890001Y-126255999D02*
X175384003Y-119750001D01*
X180999989Y-128634013D02*
X181890001Y-127744001D01*
X180999989Y-131799999D02*
X180999989Y-128634013D01*
X181890001Y-132690011D02*
X180999989Y-131799999D01*
X180999989Y-134984013D02*
X181890001Y-134094001D01*
X181890001Y-134094001D02*
X181890001Y-132690011D01*
X176530000Y-143510000D02*
X178230000Y-143510000D01*
M02*
