<?xml version="1.0" standalone="no"?>
<!DOCTYPE svg PUBLIC "-//W3C//DTD SVG 1.1//EN"
"http://www.w3.org/Graphics/SVG/1.1/DTD/svg11.dtd">
<svg width="5930.83" height="3594.61" viewBox="0 0 5930.83 3594.61" version="1.1"
xmlns="http://www.w3.org/2000/svg"
xmlns:xlink="http://www.w3.org/1999/xlink">
<circle cx="3546" cy="2983" r="19" style=""/>
<circle cx="3546" cy="2783" r="19" style=""/>
<circle cx="1347" cy="2255" r="27" style=""/>
<circle cx="1543" cy="2255" r="27" style=""/>
<circle cx="1543" cy="1704" r="27" style=""/>
<circle cx="1347" cy="1704" r="27" style=""/>
<circle cx="2250" cy="1283" r="27" style=""/>
<circle cx="2446" cy="1283" r="27" style=""/>
<circle cx="2243" cy="583" r="27" style=""/>
<circle cx="2047" cy="583" r="27" style=""/>
<circle cx="2250" cy="2383" r="27" style=""/>
<circle cx="2446" cy="2383" r="27" style=""/>
<circle cx="2946" cy="2383" r="27" style=""/>
<circle cx="3143" cy="2383" r="27" style=""/>
<circle cx="3000" cy="1861" r="31" style=""/>
<circle cx="3315" cy="1883" r="31" style=""/>
<circle cx="3646" cy="1883" r="31" style=""/>
<circle cx="4046" cy="1883" r="31" style=""/>
<circle cx="4046" cy="2083" r="31" style=""/>
<circle cx="4046" cy="2283" r="31" style=""/>
<circle cx="4046" cy="2483" r="31" style=""/>
<circle cx="4046" cy="2683" r="31" style=""/>
<circle cx="4046" cy="2883" r="31" style=""/>
<circle cx="4046" cy="3083" r="31" style=""/>
<circle cx="4646" cy="3083" r="31" style=""/>
<circle cx="4646" cy="2883" r="31" style=""/>
<circle cx="4646" cy="2683" r="31" style=""/>
<circle cx="4646" cy="2483" r="31" style=""/>
<circle cx="4646" cy="2283" r="31" style=""/>
<circle cx="4646" cy="2083" r="31" style=""/>
<circle cx="4646" cy="1883" r="31" style=""/>
<circle cx="4646" cy="1683" r="31" style=""/>
<circle cx="4646" cy="1483" r="31" style=""/>
<circle cx="4646" cy="1283" r="31" style=""/>
<circle cx="4646" cy="1083" r="31" style=""/>
<circle cx="4646" cy="883" r="31" style=""/>
<circle cx="4646" cy="683" r="31" style=""/>
<circle cx="4646" cy="483" r="31" style=""/>
<circle cx="4046" cy="483" r="31" style=""/>
<circle cx="4046" cy="683" r="31" style=""/>
<circle cx="4046" cy="883" r="31" style=""/>
<circle cx="4046" cy="1083" r="31" style=""/>
<circle cx="4046" cy="1283" r="31" style=""/>
<circle cx="4046" cy="1483" r="31" style=""/>
<circle cx="4046" cy="1683" r="31" style=""/>
<circle cx="3646" cy="1283" r="31" style=""/>
<circle cx="3315" cy="1283" r="31" style=""/>
<circle cx="3000" cy="1262" r="31" style=""/>
<circle cx="2946" cy="583" r="31" style=""/>
<circle cx="3546" cy="583" r="31" style=""/>
<circle cx="4946" cy="2283" r="31" style=""/>
<circle cx="5546" cy="2283" r="31" style=""/>
<circle cx="447" cy="2858" r="47" style=""/>
<circle cx="447" cy="2583" r="47" style=""/>
<circle cx="447" cy="2058" r="47" style=""/>
<circle cx="447" cy="1783" r="47" style=""/>
<circle cx="547" cy="1083" r="47" style=""/>
<circle cx="271" cy="1083" r="47" style=""/>
<circle cx="5246" cy="1058" r="47" style=""/>
<circle cx="5246" cy="783" r="47" style=""/>
<circle cx="5246" cy="2807" r="47" style=""/>
<circle cx="5246" cy="3083" r="47" style=""/>
<circle cx="1075" cy="3042" r="59" style=""/>
<circle cx="1504" cy="3042" r="59" style=""/>
<circle cx="1933" cy="3042" r="59" style=""/>
</svg>
